<?xml version="1.0" standalone="no"?><!-- Generator: Gravit.io --><svg xmlns="http://www.w3.org/2000/svg" xmlns:xlink="http://www.w3.org/1999/xlink" style="isolation:isolate" viewBox="0 0 390 140" width="390" height="140"><defs><clipPath id="_clipPath_0eKzZqPHhKoNQQZRKMPzKHn8Scqkq20s"><rect width="390" height="140"/></clipPath></defs><g clip-path="url(#_clipPath_0eKzZqPHhKoNQQZRKMPzKHn8Scqkq20s)"><rect x="10" y="30" width="160" height="100" transform="matrix(1,0,0,1,0,0)" fill="none" vector-effect="non-scaling-stroke" stroke-width="1" stroke-dasharray="1,2" stroke="rgb(0,0,0)" stroke-linejoin="miter" stroke-linecap="square" stroke-miterlimit="3"/><rect x="190" y="30" width="190" height="100" transform="matrix(1,0,0,1,0,0)" fill="none" vector-effect="non-scaling-stroke" stroke-width="1" stroke-dasharray="1,2" stroke="rgb(0,0,0)" stroke-linejoin="miter" stroke-linecap="square" stroke-miterlimit="3"/><g id="NT"><rect x="320" y="60" width="50" height="60" transform="matrix(1,0,0,1,0,0)" fill="rgb(235,235,235)"/><g transform="matrix(1,0,0,1,320,60)"><text transform="matrix(1,0,0,1,5.044,40.836)" style="font-family:&quot;Lato&quot;;font-weight:400;font-size:28px;font-style:normal;fill:#000000;stroke:none;">NT</text></g><g transform="matrix(1,0,0,1,320,30)"><text transform="matrix(1,0,0,1,10.16,19.8)" style="font-family:&quot;Apple SD Gothic Neo&quot;;font-weight:400;font-size:16px;font-style:normal;fill:#000000;stroke:none;">종결</text></g></g><g transform="matrix(1,0,0,1,300,70)"><text transform="matrix(1,0,0,1,3.2,27.74)" style="font-family:&quot;Lato&quot;;font-weight:400;font-size:20px;font-style:normal;fill:#000000;stroke:none;">+</text></g><g id="U"><rect x="260" y="60" width="40" height="60" transform="matrix(1,0,0,1,0,0)" fill="rgb(235,235,235)"/><g transform="matrix(1,0,0,1,260,60)"><text transform="matrix(1,0,0,1,8.703,40.836)" style="font-family:&quot;Lato&quot;;font-weight:400;font-size:28px;font-style:normal;fill:#000000;stroke:none;">U</text></g><g transform="matrix(1,0,0,1,250,30)"><text transform="matrix(1,0,0,1,1.32,19.8)" style="font-family:&quot;Apple SD Gothic Neo&quot;;font-weight:400;font-size:16px;font-style:normal;fill:#000000;stroke:none;">연결모음</text></g></g><g transform="matrix(1,0,0,1,240,70)"><text transform="matrix(1,0,0,1,3.2,27.74)" style="font-family:&quot;Lato&quot;;font-weight:400;font-size:20px;font-style:normal;fill:#000000;stroke:none;">+</text></g><g id="BI"><rect x="200" y="60" width="40" height="60" transform="matrix(1,0,0,1,0,0)" fill="rgb(235,235,235)"/><g transform="matrix(1,0,0,1,200,60)"><text transform="matrix(1,0,0,1,6.029,40.836)" style="font-family:&quot;Lato&quot;;font-weight:400;font-size:28px;font-style:normal;fill:#000000;stroke:none;">BI</text></g><g transform="matrix(1,0,0,1,200,30)"><text transform="matrix(1,0,0,1,5.16,19.8)" style="font-family:&quot;Apple SD Gothic Neo&quot;;font-weight:400;font-size:16px;font-style:normal;fill:#000000;stroke:none;">시제</text></g></g><g transform="matrix(1,0,0,1,170,70)"><text transform="matrix(1,0,0,1,3.2,27.74)" style="font-family:&quot;Lato&quot;;font-weight:400;font-size:20px;font-style:normal;fill:#000000;stroke:none;">+</text></g><g id="A"><rect x="110" y="60" width="40" height="60" transform="matrix(1,0,0,1,0,0)" fill="rgb(235,235,235)"/><g transform="matrix(1,0,0,1,110,60)"><text transform="matrix(1,0,0,1,9.522,40.836)" style="font-family:&quot;Lato&quot;;font-weight:400;font-size:28px;font-style:normal;fill:#000000;stroke:none;">A</text></g><g transform="matrix(1,0,0,1,100,30)"><text transform="matrix(1,0,0,1,1.32,19.8)" style="font-family:&quot;Apple SD Gothic Neo&quot;;font-weight:400;font-size:16px;font-style:normal;fill:#000000;stroke:none;">어간모음</text></g></g><g transform="matrix(1,0,0,1,90,70)"><text transform="matrix(1,0,0,1,3.2,27.74)" style="font-family:&quot;Lato&quot;;font-weight:400;font-size:20px;font-style:normal;fill:#000000;stroke:none;">+</text></g><g transform="matrix(1,0,0,1,30,30)"><text transform="matrix(1,0,0,1,15.16,19.8)" style="font-family:&quot;Apple SD Gothic Neo&quot;;font-weight:400;font-size:16px;font-style:normal;fill:#000000;stroke:none;">어근</text></g><g transform="matrix(1,0,0,1,20,0)"><text transform="matrix(1,0,0,1,55.16,19.8)" style="font-family:&quot;Apple SD Gothic Neo&quot;;font-weight:400;font-size:16px;font-style:normal;fill:#000000;stroke:none;">어간</text></g><g transform="matrix(1,0,0,1,190,0)"><text transform="matrix(1,0,0,1,80.16,19.8)" style="font-family:&quot;Apple SD Gothic Neo&quot;;font-weight:400;font-size:16px;font-style:normal;fill:#000000;stroke:none;">어미</text></g><g id="AM"><rect x="30" y="60" width="60" height="60" transform="matrix(1,0,0,1,0,0)" fill="rgb(235,235,235)"/><g transform="matrix(1,0,0,1,30,60)"><text transform="matrix(1,0,0,1,6.523,40.836)" style="font-family:&quot;Lato&quot;;font-weight:400;font-size:28px;font-style:normal;fill:#000000;stroke:none;">AM</text></g></g></g></svg>