<?xml version="1.0" standalone="no"?><!-- Generator: Gravit.io --><svg xmlns="http://www.w3.org/2000/svg" xmlns:xlink="http://www.w3.org/1999/xlink" style="isolation:isolate" viewBox="0 0 460 140" width="460" height="140"><defs><clipPath id="_clipPath_DIZ52aOS9laOXnMkzHSFK9pNo91GjcWb"><rect width="460" height="140"/></clipPath></defs><g clip-path="url(#_clipPath_DIZ52aOS9laOXnMkzHSFK9pNo91GjcWb)"><path d=" M 10 30 L 170 30 L 170 130 L 10 130 L 10 30 Z " fill="none" vector-effect="non-scaling-stroke" stroke-width="1" stroke-dasharray="1,2" stroke="rgb(0,0,0)" stroke-linejoin="miter" stroke-linecap="square" stroke-miterlimit="3"/><path d=" M 190 30 L 450 30 L 450 130 L 190 130 L 190 30 Z " fill="none" vector-effect="non-scaling-stroke" stroke-width="1" stroke-dasharray="1,2" stroke="rgb(0,0,0)" stroke-linejoin="miter" stroke-linecap="square" stroke-miterlimit="3"/><path d=" M 320 60 L 370 60 L 370 120 L 320 120 L 320 60 Z " fill="rgb(235,235,235)"/><path d=" M 390 60 L 440 60 L 440 120 L 390 120 L 390 60 Z " fill="rgb(235,235,235)"/><path d=" M 341.48 80.774 L 343.86 80.774 L 343.86 100.836 L 342.502 100.836 L 342.502 100.836 Q 342.18 100.836 341.963 100.724 L 341.963 100.724 L 341.963 100.724 Q 341.746 100.612 341.536 100.346 L 341.536 100.346 L 329.93 85.226 L 329.93 85.226 Q 329.958 85.576 329.972 85.912 L 329.972 85.912 L 329.972 85.912 Q 329.986 86.248 329.986 86.542 L 329.986 86.542 L 329.986 100.836 L 327.606 100.836 L 327.606 80.774 L 329.006 80.774 L 329.006 80.774 Q 329.188 80.774 329.314 80.795 L 329.314 80.795 L 329.314 80.795 Q 329.44 80.816 329.538 80.865 L 329.538 80.865 L 329.538 80.865 Q 329.636 80.914 329.734 81.005 L 329.734 81.005 L 329.734 81.005 Q 329.832 81.096 329.944 81.236 L 329.944 81.236 L 341.55 96.342 L 341.55 96.342 Q 341.522 95.978 341.501 95.635 L 341.501 95.635 L 341.501 95.635 Q 341.48 95.292 341.48 94.984 L 341.48 94.984 L 341.48 80.774 L 341.48 80.774 Z  M 362.55 80.774 L 362.55 83.056 L 356.054 83.056 L 356.054 100.836 L 353.352 100.836 L 353.352 83.056 L 346.842 83.056 L 346.842 80.774 L 362.55 80.774 L 362.55 80.774 Z " fill-rule="evenodd" fill="rgb(0,0,0)"/><path d=" M 405.236 98.68 L 405.236 98.68 L 405.236 98.68 Q 406.482 98.68 407.462 98.26 L 407.462 98.26 L 407.462 98.26 Q 408.442 97.84 409.121 97.084 L 409.121 97.084 L 409.121 97.084 Q 409.8 96.328 410.157 95.278 L 410.157 95.278 L 410.157 95.278 Q 410.514 94.228 410.514 92.968 L 410.514 92.968 L 410.514 80.774 L 413.216 80.774 L 413.216 92.968 L 413.216 92.968 Q 413.216 94.704 412.663 96.188 L 412.663 96.188 L 412.663 96.188 Q 412.11 97.672 411.081 98.757 L 411.081 98.757 L 411.081 98.757 Q 410.052 99.842 408.568 100.458 L 408.568 100.458 L 408.568 100.458 Q 407.084 101.074 405.236 101.074 L 405.236 101.074 L 405.236 101.074 Q 403.388 101.074 401.904 100.458 L 401.904 100.458 L 401.904 100.458 Q 400.42 99.842 399.384 98.757 L 399.384 98.757 L 399.384 98.757 Q 398.348 97.672 397.795 96.188 L 397.795 96.188 L 397.795 96.188 Q 397.242 94.704 397.242 92.968 L 397.242 92.968 L 397.242 80.774 L 399.944 80.774 L 399.944 92.954 L 399.944 92.954 Q 399.944 94.214 400.301 95.264 L 400.301 95.264 L 400.301 95.264 Q 400.658 96.314 401.337 97.07 L 401.337 97.07 L 401.337 97.07 Q 402.016 97.826 403.003 98.253 L 403.003 98.253 L 403.003 98.253 Q 403.99 98.68 405.236 98.68 Z  M 420.79 90.49 L 423.646 90.49 L 423.646 90.49 Q 424.822 90.49 425.725 90.203 L 425.725 90.203 L 425.725 90.203 Q 426.628 89.916 427.237 89.391 L 427.237 89.391 L 427.237 89.391 Q 427.846 88.866 428.154 88.138 L 428.154 88.138 L 428.154 88.138 Q 428.462 87.41 428.462 86.528 L 428.462 86.528 L 428.462 86.528 Q 428.462 84.736 427.286 83.826 L 427.286 83.826 L 427.286 83.826 Q 426.11 82.916 423.758 82.916 L 423.758 82.916 L 420.79 82.916 L 420.79 90.49 L 420.79 90.49 Z  M 427.062 92.87 L 432.914 100.836 L 430.506 100.836 L 430.506 100.836 Q 429.764 100.836 429.414 100.262 L 429.414 100.262 L 424.206 93.094 L 424.206 93.094 Q 423.968 92.758 423.695 92.611 L 423.695 92.611 L 423.695 92.611 Q 423.422 92.464 422.848 92.464 L 422.848 92.464 L 420.79 92.464 L 420.79 100.836 L 418.088 100.836 L 418.088 80.774 L 423.758 80.774 L 423.758 80.774 Q 425.662 80.774 427.048 81.159 L 427.048 81.159 L 427.048 81.159 Q 428.434 81.544 429.337 82.272 L 429.337 82.272 L 429.337 82.272 Q 430.24 83 430.674 84.029 L 430.674 84.029 L 430.674 84.029 Q 431.108 85.058 431.108 86.332 L 431.108 86.332 L 431.108 86.332 Q 431.108 87.396 430.772 88.32 L 430.772 88.32 L 430.772 88.32 Q 430.436 89.244 429.799 89.979 L 429.799 89.979 L 429.799 89.979 Q 429.162 90.714 428.245 91.232 L 428.245 91.232 L 428.245 91.232 Q 427.328 91.75 426.166 92.016 L 426.166 92.016 L 426.166 92.016 Q 426.684 92.31 427.062 92.87 L 427.062 92.87 L 427.062 92.87 Z " fill-rule="evenodd" fill="rgb(0,0,0)"/><path d=" M 342.192 47.144 L 342.192 36.936 L 340.976 36.936 L 340.976 47.144 L 342.192 47.144 Z  M 342.544 50.456 L 342.544 49.448 L 334.288 49.448 L 334.288 46.136 L 333.072 46.136 L 333.072 50.456 L 342.544 50.456 Z  M 334.832 37.864 C 332.72 37.864 331.072 39.288 331.072 41.368 C 331.072 43.448 332.72 44.824 334.848 44.824 C 336.976 44.824 338.608 43.432 338.608 41.352 C 338.608 39.272 336.96 37.864 334.832 37.864 Z  M 334.832 38.92 C 336.384 38.92 337.456 39.928 337.456 41.368 C 337.456 42.76 336.384 43.752 334.848 43.752 C 333.376 43.752 332.24 42.76 332.24 41.352 C 332.24 39.928 333.36 38.92 334.832 38.92 Z  M 356.144 48.312 C 356.144 46.728 354.448 45.752 351.44 45.752 C 348.448 45.752 346.768 46.728 346.768 48.312 C 346.768 49.896 348.448 50.872 351.44 50.872 C 354.448 50.872 356.144 49.896 356.144 48.312 Z  M 353.136 44.024 C 351.456 43.64 349.696 42.328 349.584 40.648 L 352.784 40.648 L 352.784 39.64 L 345.152 39.64 L 345.152 40.648 L 348.336 40.648 C 348.224 42.376 346.448 43.912 344.656 44.456 L 345.328 45.416 C 346.928 44.856 348.512 43.528 348.96 42.264 C 349.632 43.56 351.216 44.632 352.496 45.016 L 353.136 44.024 Z  M 354.848 48.312 C 354.848 49.272 353.6 49.848 351.44 49.848 C 349.328 49.848 348.064 49.272 348.064 48.312 C 348.064 47.336 349.328 46.76 351.44 46.76 C 353.6 46.76 354.848 47.336 354.848 48.312 Z  M 356.032 45.688 L 356.032 36.936 L 354.816 36.936 L 354.816 45.688 L 356.032 45.688 Z  M 350.864 38.44 L 350.864 37.416 L 347.056 37.416 L 347.056 38.44 L 350.864 38.44 Z " fill-rule="evenodd" fill="rgb(0,0,0)"/><path d=" M 407.664 50.936 L 407.664 45.864 L 413.392 45.864 L 413.392 44.84 L 400.768 44.84 L 400.768 45.864 L 406.448 45.864 L 406.448 50.936 L 407.664 50.936 Z  M 412.88 42.312 C 410.416 42.008 407.728 40.216 407.728 38.312 L 407.728 37.416 L 406.448 37.416 L 406.448 38.312 C 406.448 40.216 403.984 41.992 401.296 42.344 L 401.888 43.384 C 404.016 42.968 406.4 41.608 407.072 39.976 C 407.92 41.608 410.208 42.92 412.304 43.352 L 412.88 42.312 Z  M 425.728 48.472 C 425.728 46.888 423.984 46.04 420.912 46.04 C 417.856 46.04 416.128 46.952 416.128 48.472 C 416.128 50.024 417.856 50.92 420.912 50.92 C 423.984 50.92 425.728 50.04 425.728 48.472 Z  M 425.712 42.232 L 425.712 41.224 L 417.376 41.224 L 417.376 38.616 L 425.648 38.616 L 425.648 37.608 L 416.144 37.608 L 416.144 42.232 L 420.304 42.232 L 420.304 44.008 L 414.608 44.008 L 414.608 45.016 L 427.232 45.016 L 427.232 44.008 L 421.52 44.008 L 421.52 42.232 L 425.712 42.232 Z  M 420.912 47.032 C 423.136 47.032 424.48 47.576 424.48 48.472 C 424.48 49.4 423.136 49.912 420.912 49.912 C 418.72 49.912 417.376 49.4 417.376 48.472 C 417.376 47.576 418.72 47.032 420.912 47.032 Z " fill-rule="evenodd" fill="rgb(0,0,0)"/><path d=" M 313.8 90.35 L 313.8 91.7 L 309.72 91.7 L 309.72 96 L 308.27 96 L 308.27 91.7 L 304.21 91.7 L 304.21 90.35 L 308.27 90.35 L 308.27 86.08 L 309.72 86.08 L 309.72 90.35 L 313.8 90.35 L 313.8 90.35 Z " fill="rgb(0,0,0)"/><path d=" M 383.8 90.35 L 383.8 91.7 L 379.72 91.7 L 379.72 96 L 378.27 96 L 378.27 91.7 L 374.21 91.7 L 374.21 90.35 L 378.27 90.35 L 378.27 86.08 L 379.72 86.08 L 379.72 90.35 L 383.8 90.35 L 383.8 90.35 Z " fill="rgb(0,0,0)"/><path d=" M 260 60 L 300 60 L 300 120 L 260 120 L 260 60 Z " fill="rgb(235,235,235)"/><path d=" M 279.007 98.68 L 279.007 98.68 L 279.007 98.68 Q 280.253 98.68 281.233 98.26 L 281.233 98.26 L 281.233 98.26 Q 282.213 97.84 282.892 97.084 L 282.892 97.084 L 282.892 97.084 Q 283.571 96.328 283.928 95.278 L 283.928 95.278 L 283.928 95.278 Q 284.285 94.228 284.285 92.968 L 284.285 92.968 L 284.285 80.774 L 286.987 80.774 L 286.987 92.968 L 286.987 92.968 Q 286.987 94.704 286.434 96.188 L 286.434 96.188 L 286.434 96.188 Q 285.881 97.672 284.852 98.757 L 284.852 98.757 L 284.852 98.757 Q 283.823 99.842 282.339 100.458 L 282.339 100.458 L 282.339 100.458 Q 280.855 101.074 279.007 101.074 L 279.007 101.074 L 279.007 101.074 Q 277.159 101.074 275.675 100.458 L 275.675 100.458 L 275.675 100.458 Q 274.191 99.842 273.155 98.757 L 273.155 98.757 L 273.155 98.757 Q 272.119 97.672 271.566 96.188 L 271.566 96.188 L 271.566 96.188 Q 271.013 94.704 271.013 92.968 L 271.013 92.968 L 271.013 80.774 L 273.715 80.774 L 273.715 92.954 L 273.715 92.954 Q 273.715 94.214 274.072 95.264 L 274.072 95.264 L 274.072 95.264 Q 274.429 96.314 275.108 97.07 L 275.108 97.07 L 275.108 97.07 Q 275.787 97.826 276.774 98.253 L 276.774 98.253 L 276.774 98.253 Q 277.761 98.68 279.007 98.68 Z " fill="rgb(0,0,0)"/><path d=" M 262.136 39.928 L 262.136 42.504 L 259.592 42.504 L 259.592 43.512 L 262.136 43.512 L 262.136 47.096 L 263.352 47.096 L 263.352 36.936 L 262.136 36.936 L 262.136 38.92 L 259.592 38.92 L 259.592 39.928 L 262.136 39.928 Z  M 263.656 50.456 L 263.656 49.448 L 255.528 49.448 L 255.528 46.2 L 254.312 46.2 L 254.312 50.456 L 263.656 50.456 Z  M 255.64 37.88 C 253.592 37.88 252.008 39.32 252.008 41.384 C 252.008 43.48 253.592 44.856 255.656 44.856 C 257.704 44.856 259.272 43.464 259.272 41.384 C 259.272 39.304 257.688 37.88 255.64 37.88 Z  M 255.64 38.952 C 257.096 38.952 258.088 39.96 258.088 41.384 C 258.088 42.792 257.096 43.784 255.656 43.784 C 254.264 43.784 253.208 42.792 253.208 41.384 C 253.208 39.96 254.248 38.952 255.64 38.952 Z  M 277.72 50.84 L 277.72 49.88 L 269.368 49.88 L 269.368 48.2 L 277.192 48.2 L 277.192 44.824 L 268.104 44.824 L 268.104 45.784 L 275.976 45.784 L 275.976 47.32 L 268.152 47.32 L 268.152 50.84 L 277.72 50.84 Z  M 272.92 37.704 L 266.536 37.704 L 266.536 38.728 L 271.528 38.728 C 271.064 41.016 269.016 42.872 265.944 43.64 L 266.552 44.632 C 270.04 43.624 272.632 41.384 272.92 37.704 Z  M 273.064 39.96 L 275.976 39.96 L 275.976 41.576 L 272.888 41.576 L 272.888 42.552 L 275.976 42.552 L 275.976 44.056 L 277.192 44.056 L 277.192 36.936 L 275.976 36.936 L 275.976 39 L 273.064 39 L 273.064 39.96 Z  M 292.232 49.144 L 292.232 48.12 L 286.504 48.12 L 286.504 44.776 L 290.68 44.776 L 290.68 38.184 L 281.128 38.184 L 281.128 44.776 L 285.288 44.776 L 285.288 48.12 L 279.608 48.12 L 279.608 49.144 L 292.232 49.144 Z  M 289.464 43.768 L 282.344 43.768 L 282.344 39.192 L 289.464 39.192 L 289.464 43.768 Z  M 306.072 44.712 L 306.072 43.688 L 293.448 43.688 L 293.448 44.712 L 306.072 44.712 Z  M 304.536 50.728 L 304.536 46.168 L 295 46.168 L 295 50.728 L 304.536 50.728 Z  M 303.32 49.72 L 296.216 49.72 L 296.216 47.16 L 303.32 47.16 L 303.32 49.72 Z  M 304.648 39.928 C 304.648 38.344 302.824 37.304 299.752 37.304 C 296.696 37.304 294.888 38.344 294.888 39.928 C 294.888 41.512 296.696 42.552 299.752 42.552 C 302.824 42.552 304.648 41.512 304.648 39.928 Z  M 303.464 39.928 C 303.464 40.952 301.992 41.576 299.752 41.576 C 297.512 41.576 296.072 40.952 296.072 39.928 C 296.072 38.888 297.512 38.28 299.752 38.28 C 301.992 38.28 303.464 38.888 303.464 39.928 Z " fill-rule="evenodd" fill="rgb(0,0,0)"/><path d=" M 253.8 90.35 L 253.8 91.7 L 249.72 91.7 L 249.72 96 L 248.27 96 L 248.27 91.7 L 244.21 91.7 L 244.21 90.35 L 248.27 90.35 L 248.27 86.08 L 249.72 86.08 L 249.72 90.35 L 253.8 90.35 L 253.8 90.35 Z " fill="rgb(0,0,0)"/><path d=" M 200 60 L 240 60 L 240 120 L 200 120 L 200 60 Z " fill="rgb(235,235,235)"/><path d=" M 211.293 98.68 L 215.633 98.68 L 215.633 98.68 Q 216.795 98.68 217.635 98.414 L 217.635 98.414 L 217.635 98.414 Q 218.475 98.148 219.014 97.665 L 219.014 97.665 L 219.014 97.665 Q 219.553 97.182 219.805 96.517 L 219.805 96.517 L 219.805 96.517 Q 220.057 95.852 220.057 95.054 L 220.057 95.054 L 220.057 95.054 Q 220.057 93.5 218.951 92.597 L 218.951 92.597 L 218.951 92.597 Q 217.845 91.694 215.633 91.694 L 215.633 91.694 L 211.293 91.694 L 211.293 98.68 L 211.293 98.68 Z  M 214.989 82.916 L 211.293 82.916 L 211.293 89.762 L 214.877 89.762 L 214.877 89.762 Q 216.025 89.762 216.872 89.51 L 216.872 89.51 L 216.872 89.51 Q 217.719 89.258 218.272 88.81 L 218.272 88.81 L 218.272 88.81 Q 218.825 88.362 219.091 87.725 L 219.091 87.725 L 219.091 87.725 Q 219.357 87.088 219.357 86.332 L 219.357 86.332 L 219.357 86.332 Q 219.357 84.554 218.293 83.735 L 218.293 83.735 L 218.293 83.735 Q 217.229 82.916 214.989 82.916 L 214.989 82.916 L 214.989 82.916 Z  M 208.591 80.774 L 214.989 80.774 L 214.989 80.774 Q 216.837 80.774 218.174 81.138 L 218.174 81.138 L 218.174 81.138 Q 219.511 81.502 220.372 82.174 L 220.372 82.174 L 220.372 82.174 Q 221.233 82.846 221.639 83.819 L 221.639 83.819 L 221.639 83.819 Q 222.045 84.792 222.045 86.01 L 222.045 86.01 L 222.045 86.01 Q 222.045 86.752 221.814 87.431 L 221.814 87.431 L 221.814 87.431 Q 221.583 88.11 221.121 88.698 L 221.121 88.698 L 221.121 88.698 Q 220.659 89.286 219.952 89.755 L 219.952 89.755 L 219.952 89.755 Q 219.245 90.224 218.293 90.518 L 218.293 90.518 L 218.293 90.518 Q 220.505 90.938 221.618 92.093 L 221.618 92.093 L 221.618 92.093 Q 222.731 93.248 222.731 95.124 L 222.731 95.124 L 222.731 95.124 Q 222.731 96.398 222.262 97.448 L 222.262 97.448 L 222.262 97.448 Q 221.793 98.498 220.89 99.254 L 220.89 99.254 L 220.89 99.254 Q 219.987 100.01 218.671 100.423 L 218.671 100.423 L 218.671 100.423 Q 217.355 100.836 215.675 100.836 L 215.675 100.836 L 208.591 100.836 L 208.591 80.774 L 208.591 80.774 Z  M 229.409 80.774 L 229.409 100.836 L 226.693 100.836 L 226.693 80.774 L 229.409 80.774 L 229.409 80.774 Z " fill-rule="evenodd" fill="rgb(0,0,0)"/><path d=" M 217.288 50.92 L 217.288 36.936 L 216.056 36.936 L 216.056 50.92 L 217.288 50.92 Z  M 214.28 46.632 C 212.344 45.48 210.648 43.192 210.648 40.632 L 210.648 38.152 L 209.416 38.152 L 209.416 40.68 C 209.416 43.16 207.736 45.704 205.688 46.984 L 206.488 47.896 C 208.104 46.744 209.544 45.032 210.056 43.288 C 210.6 44.968 212.248 46.696 213.512 47.56 L 214.28 46.632 Z  M 226.744 46.728 C 225.016 45.608 223.704 43.88 223.704 41.128 L 223.704 39.592 L 226.392 39.592 L 226.392 38.584 L 219.72 38.584 L 219.72 39.592 L 222.504 39.592 L 222.504 41.16 C 222.504 43.88 221.032 46.088 219.384 47.144 L 220.2 47.992 C 221.56 47.032 222.824 45.368 223.112 43.816 C 223.512 45.288 224.984 46.92 225.976 47.624 L 226.744 46.728 Z  M 228.632 50.216 L 228.632 37.272 L 227.432 37.272 L 227.432 42.072 L 225.192 42.072 L 225.192 43.08 L 227.432 43.08 L 227.432 50.216 L 228.632 50.216 Z  M 231.4 50.92 L 231.4 36.936 L 230.2 36.936 L 230.2 50.92 L 231.4 50.92 Z " fill-rule="evenodd" fill="rgb(0,0,0)"/><path d=" M 183.8 90.35 L 183.8 91.7 L 179.72 91.7 L 179.72 96 L 178.27 96 L 178.27 91.7 L 174.21 91.7 L 174.21 90.35 L 178.27 90.35 L 178.27 86.08 L 179.72 86.08 L 179.72 90.35 L 183.8 90.35 L 183.8 90.35 Z " fill="rgb(0,0,0)"/><path d=" M 110 60 L 150 60 L 150 120 L 110 120 L 110 60 Z " fill="rgb(235,235,235)"/><path d=" M 125.248 93.388 L 132.738 93.388 L 129.588 85.226 L 129.588 85.226 Q 129.448 84.862 129.294 84.379 L 129.294 84.379 L 129.294 84.379 Q 129.14 83.896 129 83.35 L 129 83.35 L 129 83.35 Q 128.706 84.484 128.398 85.24 L 128.398 85.24 L 125.248 93.388 L 125.248 93.388 Z  M 130.372 80.774 L 138.394 100.836 L 136.294 100.836 L 136.294 100.836 Q 135.93 100.836 135.706 100.654 L 135.706 100.654 L 135.706 100.654 Q 135.482 100.472 135.37 100.192 L 135.37 100.192 L 133.494 95.348 L 124.492 95.348 L 122.616 100.192 L 122.616 100.192 Q 122.532 100.444 122.294 100.64 L 122.294 100.64 L 122.294 100.64 Q 122.056 100.836 121.706 100.836 L 121.706 100.836 L 119.606 100.836 L 127.628 80.774 L 130.372 80.774 L 130.372 80.774 Z " fill-rule="evenodd" fill="rgb(0,0,0)"/><path d=" M 102.104 42.856 C 102.104 45.832 103.384 47.8 105.64 47.8 C 107.768 47.8 109.016 46.04 109.144 43.352 L 112.136 43.352 L 112.136 50.92 L 113.352 50.92 L 113.352 36.936 L 112.136 36.936 L 112.136 42.312 L 109.144 42.312 C 108.984 39.656 107.752 37.912 105.64 37.912 C 103.384 37.912 102.104 39.896 102.104 42.856 Z  M 107.96 42.872 C 107.96 45.144 107.016 46.744 105.64 46.744 C 104.248 46.744 103.32 45.144 103.32 42.872 C 103.32 40.568 104.248 38.968 105.64 38.968 C 107.016 38.968 107.96 40.568 107.96 42.872 Z  M 128.648 42.344 L 128.648 41.32 L 126.52 41.32 L 126.52 36.936 L 125.304 36.936 L 125.304 47.4 L 126.52 47.4 L 126.52 42.344 L 128.648 42.344 Z  M 126.952 50.568 L 126.952 49.56 L 118.936 49.56 L 118.936 46.248 L 117.72 46.248 L 117.72 50.568 L 126.952 50.568 Z  M 116.248 38.168 L 116.248 39.192 L 121.288 39.192 C 120.936 41.768 118.68 43.992 115.672 44.76 L 116.296 45.784 C 119.864 44.648 122.456 41.976 122.616 38.168 L 116.248 38.168 Z  M 142.232 49.144 L 142.232 48.12 L 136.504 48.12 L 136.504 44.776 L 140.68 44.776 L 140.68 38.184 L 131.128 38.184 L 131.128 44.776 L 135.288 44.776 L 135.288 48.12 L 129.608 48.12 L 129.608 49.144 L 142.232 49.144 Z  M 139.464 43.768 L 132.344 43.768 L 132.344 39.192 L 139.464 39.192 L 139.464 43.768 Z  M 156.072 44.712 L 156.072 43.688 L 143.448 43.688 L 143.448 44.712 L 156.072 44.712 Z  M 154.536 50.728 L 154.536 46.168 L 145 46.168 L 145 50.728 L 154.536 50.728 Z  M 153.32 49.72 L 146.216 49.72 L 146.216 47.16 L 153.32 47.16 L 153.32 49.72 Z  M 154.648 39.928 C 154.648 38.344 152.824 37.304 149.752 37.304 C 146.696 37.304 144.888 38.344 144.888 39.928 C 144.888 41.512 146.696 42.552 149.752 42.552 C 152.824 42.552 154.648 41.512 154.648 39.928 Z  M 153.464 39.928 C 153.464 40.952 151.992 41.576 149.752 41.576 C 147.512 41.576 146.072 40.952 146.072 39.928 C 146.072 38.888 147.512 38.28 149.752 38.28 C 151.992 38.28 153.464 38.888 153.464 39.928 Z " fill-rule="evenodd" fill="rgb(0,0,0)"/><path d=" M 103.8 90.35 L 103.8 91.7 L 99.72 91.7 L 99.72 96 L 98.27 96 L 98.27 91.7 L 94.21 91.7 L 94.21 90.35 L 98.27 90.35 L 98.27 86.08 L 99.72 86.08 L 99.72 90.35 L 103.8 90.35 L 103.8 90.35 Z " fill="rgb(0,0,0)"/><path d=" M 45.944 42.856 C 45.944 45.832 47.224 47.8 49.48 47.8 C 51.608 47.8 52.856 46.04 52.984 43.352 L 55.976 43.352 L 55.976 50.92 L 57.192 50.92 L 57.192 36.936 L 55.976 36.936 L 55.976 42.312 L 52.984 42.312 C 52.824 39.656 51.592 37.912 49.48 37.912 C 47.224 37.912 45.944 39.896 45.944 42.856 Z  M 51.8 42.872 C 51.8 45.144 50.856 46.744 49.48 46.744 C 48.088 46.744 47.16 45.144 47.16 42.872 C 47.16 40.568 48.088 38.968 49.48 38.968 C 50.856 38.968 51.8 40.568 51.8 42.872 Z  M 72.232 44.44 L 72.232 43.416 L 70.168 43.416 C 70.472 41.96 70.6 40.072 70.6 37.944 L 61.192 37.944 L 61.192 38.952 L 69.368 38.952 C 69.368 40.616 69.272 42.216 68.984 43.416 L 59.608 43.416 L 59.608 44.44 L 72.232 44.44 Z  M 71 50.408 L 71 49.4 L 62.424 49.4 L 62.424 46.008 L 61.208 46.008 L 61.208 50.408 L 71 50.408 Z " fill-rule="evenodd" fill="rgb(0,0,0)"/><path d=" M 75.944 12.856 C 75.944 15.832 77.224 17.8 79.48 17.8 C 81.608 17.8 82.856 16.04 82.984 13.352 L 85.976 13.352 L 85.976 20.92 L 87.192 20.92 L 87.192 6.936 L 85.976 6.936 L 85.976 12.312 L 82.984 12.312 C 82.824 9.656 81.592 7.912 79.48 7.912 C 77.224 7.912 75.944 9.896 75.944 12.856 Z  M 81.8 12.872 C 81.8 15.144 80.856 16.744 79.48 16.744 C 78.088 16.744 77.16 15.144 77.16 12.872 C 77.16 10.568 78.088 8.968 79.48 8.968 C 80.856 8.968 81.8 10.568 81.8 12.872 Z  M 102.488 12.344 L 102.488 11.32 L 100.36 11.32 L 100.36 6.936 L 99.144 6.936 L 99.144 17.4 L 100.36 17.4 L 100.36 12.344 L 102.488 12.344 Z  M 100.792 20.568 L 100.792 19.56 L 92.776 19.56 L 92.776 16.248 L 91.56 16.248 L 91.56 20.568 L 100.792 20.568 Z  M 90.088 8.168 L 90.088 9.192 L 95.128 9.192 C 94.776 11.768 92.52 13.992 89.512 14.76 L 90.136 15.784 C 93.704 14.648 96.296 11.976 96.456 8.168 L 90.088 8.168 Z " fill-rule="evenodd" fill="rgb(0,0,0)"/><path d=" M 305.944 12.856 C 305.944 15.832 307.224 17.8 309.48 17.8 C 311.608 17.8 312.856 16.04 312.984 13.352 L 315.976 13.352 L 315.976 20.92 L 317.192 20.92 L 317.192 6.936 L 315.976 6.936 L 315.976 12.312 L 312.984 12.312 C 312.824 9.656 311.592 7.912 309.48 7.912 C 307.224 7.912 305.944 9.896 305.944 12.856 Z  M 311.8 12.872 C 311.8 15.144 310.856 16.744 309.48 16.744 C 308.088 16.744 307.16 15.144 307.16 12.872 C 307.16 10.568 308.088 8.968 309.48 8.968 C 310.856 8.968 311.8 10.568 311.8 12.872 Z  M 331 20.92 L 331 6.936 L 329.784 6.936 L 329.784 20.92 L 331 20.92 Z  M 326.984 17.32 L 326.984 8.376 L 320.376 8.376 L 320.376 17.32 L 326.984 17.32 Z  M 325.768 16.312 L 321.608 16.312 L 321.608 9.384 L 325.768 9.384 L 325.768 16.312 Z " fill-rule="evenodd" fill="rgb(0,0,0)"/><path d=" M 30 60 L 90 60 L 90 120 L 30 120 L 30 60 Z " fill="rgb(235,235,235)"/><path d=" M 42.249 93.388 L 49.739 93.388 L 46.589 85.226 L 46.589 85.226 Q 46.449 84.862 46.295 84.379 L 46.295 84.379 L 46.295 84.379 Q 46.141 83.896 46.001 83.35 L 46.001 83.35 L 46.001 83.35 Q 45.707 84.484 45.399 85.24 L 45.399 85.24 L 42.249 93.388 L 42.249 93.388 Z  M 47.373 80.774 L 55.395 100.836 L 53.295 100.836 L 53.295 100.836 Q 52.931 100.836 52.707 100.654 L 52.707 100.654 L 52.707 100.654 Q 52.483 100.472 52.371 100.192 L 52.371 100.192 L 50.495 95.348 L 41.493 95.348 L 39.617 100.192 L 39.617 100.192 Q 39.533 100.444 39.295 100.64 L 39.295 100.64 L 39.295 100.64 Q 39.057 100.836 38.707 100.836 L 38.707 100.836 L 36.607 100.836 L 44.629 80.774 L 47.373 80.774 L 47.373 80.774 Z  M 76.913 80.774 L 78.915 80.774 L 78.915 100.836 L 76.535 100.836 L 76.535 86.094 L 76.535 86.094 Q 76.535 85.8 76.556 85.464 L 76.556 85.464 L 76.556 85.464 Q 76.577 85.128 76.605 84.778 L 76.605 84.778 L 69.717 97.322 L 69.717 97.322 Q 69.395 97.952 68.737 97.952 L 68.737 97.952 L 68.345 97.952 L 68.345 97.952 Q 67.687 97.952 67.365 97.322 L 67.365 97.322 L 60.337 84.722 L 60.337 84.722 Q 60.421 85.464 60.421 86.094 L 60.421 86.094 L 60.421 100.836 L 58.041 100.836 L 58.041 80.774 L 60.043 80.774 L 60.043 80.774 Q 60.407 80.774 60.603 80.844 L 60.603 80.844 L 60.603 80.844 Q 60.799 80.914 60.981 81.236 L 60.981 81.236 L 67.911 93.584 L 67.911 93.584 Q 68.079 93.92 68.24 94.284 L 68.24 94.284 L 68.24 94.284 Q 68.401 94.648 68.541 95.026 L 68.541 95.026 L 68.541 95.026 Q 68.681 94.648 68.835 94.277 L 68.835 94.277 L 68.835 94.277 Q 68.989 93.906 69.171 93.57 L 69.171 93.57 L 75.975 81.236 L 75.975 81.236 Q 76.143 80.914 76.346 80.844 L 76.346 80.844 L 76.346 80.844 Q 76.549 80.774 76.913 80.774 L 76.913 80.774 L 76.913 80.774 Z " fill-rule="evenodd" fill="rgb(0,0,0)"/></g></svg>