<?xml version="1.0" standalone="no"?><!-- Generator: Gravit.io --><svg xmlns="http://www.w3.org/2000/svg" xmlns:xlink="http://www.w3.org/1999/xlink" style="isolation:isolate" viewBox="0 0 275 150" width="275" height="150"><defs><clipPath id="_clipPath_3GNDOhqtMUZvBhGSEA3QhBwYbKOfFjWO"><rect width="275" height="150"/></clipPath></defs><g clip-path="url(#_clipPath_3GNDOhqtMUZvBhGSEA3QhBwYbKOfFjWO)"><path d=" M 20 30 L 105 30 L 105 70 L 20 70 L 20 30 Z " fill="rgb(235,235,235)"/><path d=" M 125 30 L 255 30 L 255 70 L 125 70 L 125 30 Z " fill="rgb(235,235,235)"/><path d=" M 42 41.433 L 49.449 60.062 L 47.499 60.062 L 47.499 60.062 Q 47.161 60.062 46.953 59.893 L 46.953 59.893 L 46.953 59.893 Q 46.745 59.724 46.641 59.464 L 46.641 59.464 L 44.899 54.966 L 36.54 54.966 L 34.798 59.464 L 34.798 59.464 Q 34.707 59.698 34.486 59.88 L 34.486 59.88 L 34.486 59.88 Q 34.265 60.062 33.94 60.062 L 33.94 60.062 L 31.99 60.062 L 39.439 41.433 L 42 41.433 L 42 41.433 Z  M 40.167 45.58 L 37.242 53.146 L 44.197 53.146 L 41.272 45.567 L 41.272 45.567 Q 40.986 44.865 40.713 43.812 L 40.713 43.812 L 40.713 43.812 Q 40.57 44.345 40.433 44.793 L 40.433 44.793 L 40.433 44.793 Q 40.297 45.242 40.167 45.58 L 40.167 45.58 L 40.167 45.58 Z  M 60.967 53.328 L 60.967 53.328 L 60.967 53.328 Q 61.149 53.64 61.285 53.985 L 61.285 53.985 L 61.285 53.985 Q 61.422 54.329 61.552 54.68 L 61.552 54.68 L 61.552 54.68 Q 61.682 54.316 61.825 53.985 L 61.825 53.985 L 61.825 53.985 Q 61.968 53.653 62.15 53.315 L 62.15 53.315 L 68.455 41.862 L 68.455 41.862 Q 68.624 41.563 68.806 41.498 L 68.806 41.498 L 68.806 41.498 Q 68.988 41.433 69.326 41.433 L 69.326 41.433 L 71.185 41.433 L 71.185 60.062 L 68.975 60.062 L 68.975 46.373 L 68.975 46.373 Q 68.975 46.1 68.988 45.788 L 68.988 45.788 L 68.988 45.788 Q 69.001 45.476 69.027 45.151 L 69.027 45.151 L 62.644 56.799 L 62.644 56.799 Q 62.319 57.384 61.734 57.384 L 61.734 57.384 L 61.37 57.384 L 61.37 57.384 Q 60.785 57.384 60.46 56.799 L 60.46 56.799 L 53.934 45.112 L 53.934 45.112 Q 53.973 45.45 53.992 45.775 L 53.992 45.775 L 53.992 45.775 Q 54.012 46.1 54.012 46.373 L 54.012 46.373 L 54.012 60.062 L 51.802 60.062 L 51.802 41.433 L 53.661 41.433 L 53.661 41.433 Q 53.999 41.433 54.181 41.498 L 54.181 41.498 L 54.181 41.498 Q 54.363 41.563 54.532 41.862 L 54.532 41.862 L 60.967 53.328 L 60.967 53.328 Z  M 83.6 41.433 L 91.049 60.062 L 89.099 60.062 L 89.099 60.062 Q 88.761 60.062 88.553 59.893 L 88.553 59.893 L 88.553 59.893 Q 88.345 59.724 88.241 59.464 L 88.241 59.464 L 86.499 54.966 L 78.14 54.966 L 76.398 59.464 L 76.398 59.464 Q 76.307 59.698 76.086 59.88 L 76.086 59.88 L 76.086 59.88 Q 75.865 60.062 75.54 60.062 L 75.54 60.062 L 73.59 60.062 L 81.039 41.433 L 83.6 41.433 L 83.6 41.433 Z  M 81.767 45.58 L 78.842 53.146 L 85.797 53.146 L 82.872 45.567 L 82.872 45.567 Q 82.586 44.865 82.313 43.812 L 82.313 43.812 L 82.313 43.812 Q 82.17 44.345 82.033 44.793 L 82.033 44.793 L 82.033 44.793 Q 81.897 45.242 81.767 45.58 L 81.767 45.58 L 81.767 45.58 Z " fill-rule="evenodd" fill="rgb(0,0,0)"/><path d=" M 162.454 60.062 L 155.863 60.062 L 155.863 41.433 L 161.804 41.433 L 161.804 41.433 Q 163.52 41.433 164.761 41.771 L 164.761 41.771 L 164.761 41.771 Q 166.003 42.109 166.803 42.733 L 166.803 42.733 L 166.803 42.733 Q 167.602 43.357 167.986 44.261 L 167.986 44.261 L 167.986 44.261 Q 168.369 45.164 168.369 46.295 L 168.369 46.295 L 168.369 46.295 Q 168.369 46.984 168.154 47.621 L 168.154 47.621 L 168.154 47.621 Q 167.94 48.258 167.505 48.804 L 167.505 48.804 L 167.505 48.804 Q 167.069 49.35 166.413 49.779 L 166.413 49.779 L 166.413 49.779 Q 165.756 50.208 164.872 50.481 L 164.872 50.481 L 164.872 50.481 Q 166.913 50.884 167.953 51.95 L 167.953 51.95 L 167.953 51.95 Q 168.993 53.016 168.993 54.758 L 168.993 54.758 L 168.993 54.758 Q 168.993 55.941 168.558 56.916 L 168.558 56.916 L 168.558 56.916 Q 168.122 57.891 167.284 58.593 L 167.284 58.593 L 167.284 58.593 Q 166.445 59.295 165.23 59.679 L 165.23 59.679 L 165.23 59.679 Q 164.014 60.062 162.454 60.062 L 162.454 60.062 L 162.454 60.062 Z  M 162.402 51.573 L 158.385 51.573 L 158.385 58.06 L 162.415 58.06 L 162.415 58.06 Q 163.494 58.06 164.267 57.813 L 164.267 57.813 L 164.267 57.813 Q 165.041 57.566 165.541 57.118 L 165.541 57.118 L 165.541 57.118 Q 166.042 56.669 166.276 56.052 L 166.276 56.052 L 166.276 56.052 Q 166.51 55.434 166.51 54.693 L 166.51 54.693 L 166.51 54.693 Q 166.51 53.25 165.49 52.412 L 165.49 52.412 L 165.49 52.412 Q 164.469 51.573 162.402 51.573 L 162.402 51.573 L 162.402 51.573 Z  M 158.385 43.422 L 158.385 49.779 L 161.713 49.779 L 161.713 49.779 Q 162.779 49.779 163.559 49.545 L 163.559 49.545 L 163.559 49.545 Q 164.339 49.311 164.853 48.895 L 164.853 48.895 L 164.853 48.895 Q 165.366 48.479 165.613 47.888 L 165.613 47.888 L 165.613 47.888 Q 165.86 47.296 165.86 46.594 L 165.86 46.594 L 165.86 46.594 Q 165.86 44.956 164.872 44.189 L 164.872 44.189 L 164.872 44.189 Q 163.884 43.422 161.804 43.422 L 161.804 43.422 L 158.385 43.422 L 158.385 43.422 Z  M 179.926 58.06 L 179.926 58.06 L 179.926 58.06 Q 181.083 58.06 181.993 57.67 L 181.993 57.67 L 181.993 57.67 Q 182.903 57.28 183.534 56.578 L 183.534 56.578 L 183.534 56.578 Q 184.164 55.876 184.496 54.901 L 184.496 54.901 L 184.496 54.901 Q 184.827 53.926 184.827 52.756 L 184.827 52.756 L 184.827 41.433 L 187.336 41.433 L 187.336 52.756 L 187.336 52.756 Q 187.336 54.368 186.823 55.746 L 186.823 55.746 L 186.823 55.746 Q 186.309 57.124 185.354 58.132 L 185.354 58.132 L 185.354 58.132 Q 184.398 59.139 183.02 59.711 L 183.02 59.711 L 183.02 59.711 Q 181.642 60.283 179.926 60.283 L 179.926 60.283 L 179.926 60.283 Q 178.21 60.283 176.832 59.711 L 176.832 59.711 L 176.832 59.711 Q 175.454 59.139 174.492 58.132 L 174.492 58.132 L 174.492 58.132 Q 173.53 57.124 173.017 55.746 L 173.017 55.746 L 173.017 55.746 Q 172.503 54.368 172.503 52.756 L 172.503 52.756 L 172.503 41.433 L 175.012 41.433 L 175.012 52.743 L 175.012 52.743 Q 175.012 53.913 175.344 54.888 L 175.344 54.888 L 175.344 54.888 Q 175.675 55.863 176.306 56.565 L 176.306 56.565 L 176.306 56.565 Q 176.936 57.267 177.853 57.664 L 177.853 57.664 L 177.853 57.664 Q 178.769 58.06 179.926 58.06 Z  M 192.965 41.433 L 192.965 41.433 L 192.965 41.433 Q 193.303 41.433 193.466 41.518 L 193.466 41.518 L 193.466 41.518 Q 193.628 41.602 193.836 41.862 L 193.836 41.862 L 204.626 55.902 L 204.626 55.902 Q 204.587 55.564 204.574 55.246 L 204.574 55.246 L 204.574 55.246 Q 204.561 54.927 204.561 54.628 L 204.561 54.628 L 204.561 41.433 L 206.771 41.433 L 206.771 60.062 L 205.497 60.062 L 205.497 60.062 Q 205.198 60.062 204.997 59.958 L 204.997 59.958 L 204.997 59.958 Q 204.795 59.854 204.6 59.607 L 204.6 59.607 L 193.823 45.58 L 193.823 45.58 Q 193.849 45.905 193.862 46.217 L 193.862 46.217 L 193.862 46.217 Q 193.875 46.529 193.875 46.789 L 193.875 46.789 L 193.875 60.062 L 191.665 60.062 L 191.665 41.433 L 192.965 41.433 L 192.965 41.433 Z  M 209.423 41.433 L 224.009 41.433 L 224.009 43.552 L 217.99 43.552 L 217.99 60.062 L 215.468 60.062 L 215.468 43.552 L 209.423 43.552 L 209.423 41.433 L 209.423 41.433 Z " fill-rule="evenodd" fill="rgb(0,0,0)"/><path d=" M 47.31 17.742 C 47.31 20.718 48.59 22.686 50.846 22.686 C 52.974 22.686 54.222 20.926 54.35 18.238 L 57.342 18.238 L 57.342 25.806 L 58.558 25.806 L 58.558 11.822 L 57.342 11.822 L 57.342 17.198 L 54.35 17.198 C 54.19 14.542 52.958 12.798 50.846 12.798 C 48.59 12.798 47.31 14.782 47.31 17.742 Z  M 53.166 17.758 C 53.166 20.03 52.222 21.63 50.846 21.63 C 49.454 21.63 48.526 20.03 48.526 17.758 C 48.526 15.454 49.454 13.854 50.846 13.854 C 52.222 13.854 53.166 15.454 53.166 17.758 Z  M 73.854 17.23 L 73.854 16.206 L 71.726 16.206 L 71.726 11.822 L 70.51 11.822 L 70.51 22.286 L 71.726 22.286 L 71.726 17.23 L 73.854 17.23 Z  M 72.158 25.454 L 72.158 24.446 L 64.142 24.446 L 64.142 21.134 L 62.926 21.134 L 62.926 25.454 L 72.158 25.454 Z  M 61.454 13.054 L 61.454 14.078 L 66.494 14.078 C 66.142 16.654 63.886 18.878 60.878 19.646 L 61.502 20.67 C 65.07 19.534 67.662 16.862 67.822 13.054 L 61.454 13.054 Z " fill-rule="evenodd" fill="rgb(0,0,0)"/><path d=" M 175.944 17.856 C 175.944 20.832 177.224 22.8 179.48 22.8 C 181.608 22.8 182.856 21.04 182.984 18.352 L 185.976 18.352 L 185.976 25.92 L 187.192 25.92 L 187.192 11.936 L 185.976 11.936 L 185.976 17.312 L 182.984 17.312 C 182.824 14.656 181.592 12.912 179.48 12.912 C 177.224 12.912 175.944 14.896 175.944 17.856 Z  M 181.8 17.872 C 181.8 20.144 180.856 21.744 179.48 21.744 C 178.088 21.744 177.16 20.144 177.16 17.872 C 177.16 15.568 178.088 13.968 179.48 13.968 C 180.856 13.968 181.8 15.568 181.8 17.872 Z  M 201 25.92 L 201 11.936 L 199.784 11.936 L 199.784 25.92 L 201 25.92 Z  M 196.984 22.32 L 196.984 13.376 L 190.376 13.376 L 190.376 22.32 L 196.984 22.32 Z  M 195.768 21.312 L 191.608 21.312 L 191.608 14.384 L 195.768 14.384 L 195.768 21.312 Z " fill-rule="evenodd" fill="rgb(0,0,0)"/><path d=" M 20 100 L 65 100 L 65 140 L 20 140 L 20 100 Z " fill="rgb(235,235,235)"/><path d=" M 75 100 L 105 100 L 105 140 L 75 140 L 75 100 Z " fill="rgb(235,235,235)"/><path d=" M 90.1 112.751 L 96.403 128.514 L 94.753 128.514 L 94.753 128.514 Q 94.467 128.514 94.291 128.371 L 94.291 128.371 L 94.291 128.371 Q 94.115 128.228 94.027 128.008 L 94.027 128.008 L 92.553 124.202 L 85.48 124.202 L 84.006 128.008 L 84.006 128.008 Q 83.929 128.206 83.742 128.36 L 83.742 128.36 L 83.742 128.36 Q 83.555 128.514 83.28 128.514 L 83.28 128.514 L 81.63 128.514 L 87.933 112.751 L 90.1 112.751 L 90.1 112.751 Z  M 88.549 116.26 L 86.074 122.662 L 91.959 122.662 L 89.484 116.249 L 89.484 116.249 Q 89.242 115.655 89.011 114.764 L 89.011 114.764 L 89.011 114.764 Q 88.89 115.215 88.775 115.595 L 88.775 115.595 L 88.775 115.595 Q 88.659 115.974 88.549 116.26 L 88.549 116.26 L 88.549 116.26 Z " fill-rule="evenodd" fill="rgb(0,0,0)"/><path d=" M 68.828 90.892 C 68.828 93.124 69.788 94.6 71.48 94.6 C 73.076 94.6 74.012 93.28 74.108 91.264 L 76.352 91.264 L 76.352 96.94 L 77.264 96.94 L 77.264 86.452 L 76.352 86.452 L 76.352 90.484 L 74.108 90.484 C 73.988 88.492 73.064 87.184 71.48 87.184 C 69.788 87.184 68.828 88.672 68.828 90.892 Z  M 73.22 90.904 C 73.22 92.608 72.512 93.808 71.48 93.808 C 70.436 93.808 69.74 92.608 69.74 90.904 C 69.74 89.176 70.436 87.976 71.48 87.976 C 72.512 87.976 73.22 89.176 73.22 90.904 Z  M 88.736 90.508 L 88.736 89.74 L 87.14 89.74 L 87.14 86.452 L 86.228 86.452 L 86.228 94.3 L 87.14 94.3 L 87.14 90.508 L 88.736 90.508 Z  M 87.464 96.676 L 87.464 95.92 L 81.452 95.92 L 81.452 93.436 L 80.54 93.436 L 80.54 96.676 L 87.464 96.676 Z  M 79.436 87.376 L 79.436 88.144 L 83.216 88.144 C 82.952 90.076 81.26 91.744 79.004 92.32 L 79.472 93.088 C 82.148 92.236 84.092 90.232 84.212 87.376 L 79.436 87.376 Z  M 98.924 95.608 L 98.924 94.84 L 94.628 94.84 L 94.628 92.332 L 97.76 92.332 L 97.76 87.388 L 90.596 87.388 L 90.596 92.332 L 93.716 92.332 L 93.716 94.84 L 89.456 94.84 L 89.456 95.608 L 98.924 95.608 Z  M 96.848 91.576 L 91.508 91.576 L 91.508 88.144 L 96.848 88.144 L 96.848 91.576 Z  M 109.304 92.284 L 109.304 91.516 L 99.836 91.516 L 99.836 92.284 L 109.304 92.284 Z  M 108.152 96.796 L 108.152 93.376 L 101 93.376 L 101 96.796 L 108.152 96.796 Z  M 107.24 96.04 L 101.912 96.04 L 101.912 94.12 L 107.24 94.12 L 107.24 96.04 Z  M 108.236 88.696 C 108.236 87.508 106.868 86.728 104.564 86.728 C 102.272 86.728 100.916 87.508 100.916 88.696 C 100.916 89.884 102.272 90.664 104.564 90.664 C 106.868 90.664 108.236 89.884 108.236 88.696 Z  M 107.348 88.696 C 107.348 89.464 106.244 89.932 104.564 89.932 C 102.884 89.932 101.804 89.464 101.804 88.696 C 101.804 87.916 102.884 87.46 104.564 87.46 C 106.244 87.46 107.348 87.916 107.348 88.696 Z " fill-rule="evenodd" fill="rgb(0,0,0)"/><path d=" M 31.708 90.892 C 31.708 93.124 32.668 94.6 34.36 94.6 C 35.956 94.6 36.892 93.28 36.988 91.264 L 39.232 91.264 L 39.232 96.94 L 40.144 96.94 L 40.144 86.452 L 39.232 86.452 L 39.232 90.484 L 36.988 90.484 C 36.868 88.492 35.944 87.184 34.36 87.184 C 32.668 87.184 31.708 88.672 31.708 90.892 Z  M 36.1 90.904 C 36.1 92.608 35.392 93.808 34.36 93.808 C 33.316 93.808 32.62 92.608 32.62 90.904 C 32.62 89.176 33.316 87.976 34.36 87.976 C 35.392 87.976 36.1 89.176 36.1 90.904 Z  M 51.424 92.08 L 51.424 91.312 L 49.876 91.312 C 50.104 90.22 50.2 88.804 50.2 87.208 L 43.144 87.208 L 43.144 87.964 L 49.276 87.964 C 49.276 89.212 49.204 90.412 48.988 91.312 L 41.956 91.312 L 41.956 92.08 L 51.424 92.08 Z  M 50.5 96.556 L 50.5 95.8 L 44.068 95.8 L 44.068 93.256 L 43.156 93.256 L 43.156 96.556 L 50.5 96.556 Z " fill-rule="evenodd" fill="rgb(0,0,0)"/><path d=" M 125 100 L 160 100 L 160 140 L 125 140 L 125 100 Z " fill="rgb(235,235,235)"/><path d=" M 170 100 L 200 100 L 200 140 L 170 140 L 170 100 Z " fill="rgb(235,235,235)"/><path d=" M 210 100 L 255 100 L 255 140 L 210 140 L 210 100 Z " fill="rgb(235,235,235)"/><path d=" M 138.497 128.514 L 132.92 128.514 L 132.92 112.751 L 137.947 112.751 L 137.947 112.751 Q 139.399 112.751 140.45 113.037 L 140.45 113.037 L 140.45 113.037 Q 141.5 113.323 142.177 113.851 L 142.177 113.851 L 142.177 113.851 Q 142.853 114.379 143.178 115.144 L 143.178 115.144 L 143.178 115.144 Q 143.502 115.908 143.502 116.865 L 143.502 116.865 L 143.502 116.865 Q 143.502 117.448 143.321 117.987 L 143.321 117.987 L 143.321 117.987 Q 143.139 118.526 142.771 118.988 L 142.771 118.988 L 142.771 118.988 Q 142.402 119.45 141.847 119.813 L 141.847 119.813 L 141.847 119.813 Q 141.291 120.176 140.543 120.407 L 140.543 120.407 L 140.543 120.407 Q 142.27 120.748 143.15 121.65 L 143.15 121.65 L 143.15 121.65 Q 144.03 122.552 144.03 124.026 L 144.03 124.026 L 144.03 124.026 Q 144.03 125.027 143.662 125.852 L 143.662 125.852 L 143.662 125.852 Q 143.293 126.677 142.584 127.271 L 142.584 127.271 L 142.584 127.271 Q 141.874 127.865 140.846 128.19 L 140.846 128.19 L 140.846 128.19 Q 139.817 128.514 138.497 128.514 L 138.497 128.514 L 138.497 128.514 Z  M 138.453 121.331 L 135.054 121.331 L 135.054 126.82 L 138.464 126.82 L 138.464 126.82 Q 139.377 126.82 140.032 126.611 L 140.032 126.611 L 140.032 126.611 Q 140.686 126.402 141.11 126.023 L 141.11 126.023 L 141.11 126.023 Q 141.533 125.643 141.731 125.121 L 141.731 125.121 L 141.731 125.121 Q 141.929 124.598 141.929 123.971 L 141.929 123.971 L 141.929 123.971 Q 141.929 122.75 141.066 122.041 L 141.066 122.041 L 141.066 122.041 Q 140.202 121.331 138.453 121.331 L 138.453 121.331 L 138.453 121.331 Z  M 135.054 114.434 L 135.054 119.813 L 137.87 119.813 L 137.87 119.813 Q 138.772 119.813 139.432 119.615 L 139.432 119.615 L 139.432 119.615 Q 140.092 119.417 140.527 119.065 L 140.527 119.065 L 140.527 119.065 Q 140.961 118.713 141.17 118.213 L 141.17 118.213 L 141.17 118.213 Q 141.379 117.712 141.379 117.118 L 141.379 117.118 L 141.379 117.118 Q 141.379 115.732 140.543 115.083 L 140.543 115.083 L 140.543 115.083 Q 139.707 114.434 137.947 114.434 L 137.947 114.434 L 135.054 114.434 L 135.054 114.434 Z  M 149.684 112.751 L 149.684 128.514 L 147.55 128.514 L 147.55 112.751 L 149.684 112.751 L 149.684 112.751 Z " fill-rule="evenodd" fill="rgb(0,0,0)"/><path d=" M 184.011 126.82 L 184.011 126.82 L 184.011 126.82 Q 184.99 126.82 185.76 126.49 L 185.76 126.49 L 185.76 126.49 Q 186.53 126.16 187.063 125.566 L 187.063 125.566 L 187.063 125.566 Q 187.597 124.972 187.878 124.147 L 187.878 124.147 L 187.878 124.147 Q 188.158 123.322 188.158 122.332 L 188.158 122.332 L 188.158 112.751 L 190.281 112.751 L 190.281 122.332 L 190.281 122.332 Q 190.281 123.696 189.847 124.862 L 189.847 124.862 L 189.847 124.862 Q 189.412 126.028 188.604 126.881 L 188.604 126.881 L 188.604 126.881 Q 187.795 127.733 186.629 128.217 L 186.629 128.217 L 186.629 128.217 Q 185.463 128.701 184.011 128.701 L 184.011 128.701 L 184.011 128.701 Q 182.559 128.701 181.393 128.217 L 181.393 128.217 L 181.393 128.217 Q 180.227 127.733 179.413 126.881 L 179.413 126.881 L 179.413 126.881 Q 178.599 126.028 178.165 124.862 L 178.165 124.862 L 178.165 124.862 Q 177.73 123.696 177.73 122.332 L 177.73 122.332 L 177.73 112.751 L 179.853 112.751 L 179.853 122.321 L 179.853 122.321 Q 179.853 123.311 180.134 124.136 L 180.134 124.136 L 180.134 124.136 Q 180.414 124.961 180.948 125.555 L 180.948 125.555 L 180.948 125.555 Q 181.481 126.149 182.257 126.485 L 182.257 126.485 L 182.257 126.485 Q 183.032 126.82 184.011 126.82 Z " fill="rgb(0,0,0)"/><path d=" M 171.352 88.696 L 171.352 90.628 L 169.444 90.628 L 169.444 91.384 L 171.352 91.384 L 171.352 94.072 L 172.264 94.072 L 172.264 86.452 L 171.352 86.452 L 171.352 87.94 L 169.444 87.94 L 169.444 88.696 L 171.352 88.696 Z  M 172.492 96.592 L 172.492 95.836 L 166.396 95.836 L 166.396 93.4 L 165.484 93.4 L 165.484 96.592 L 172.492 96.592 Z  M 166.48 87.16 C 164.944 87.16 163.756 88.24 163.756 89.788 C 163.756 91.36 164.944 92.392 166.492 92.392 C 168.028 92.392 169.204 91.348 169.204 89.788 C 169.204 88.228 168.016 87.16 166.48 87.16 Z  M 166.48 87.964 C 167.572 87.964 168.316 88.72 168.316 89.788 C 168.316 90.844 167.572 91.588 166.492 91.588 C 165.448 91.588 164.656 90.844 164.656 89.788 C 164.656 88.72 165.436 87.964 166.48 87.964 Z  M 183.04 96.88 L 183.04 96.16 L 176.776 96.16 L 176.776 94.9 L 182.644 94.9 L 182.644 92.368 L 175.828 92.368 L 175.828 93.088 L 181.732 93.088 L 181.732 94.24 L 175.864 94.24 L 175.864 96.88 L 183.04 96.88 Z  M 179.44 87.028 L 174.652 87.028 L 174.652 87.796 L 178.396 87.796 C 178.048 89.512 176.512 90.904 174.208 91.48 L 174.664 92.224 C 177.28 91.468 179.224 89.788 179.44 87.028 Z  M 179.548 88.72 L 181.732 88.72 L 181.732 89.932 L 179.416 89.932 L 179.416 90.664 L 181.732 90.664 L 181.732 91.792 L 182.644 91.792 L 182.644 86.452 L 181.732 86.452 L 181.732 88 L 179.548 88 L 179.548 88.72 Z  M 193.924 95.608 L 193.924 94.84 L 189.628 94.84 L 189.628 92.332 L 192.76 92.332 L 192.76 87.388 L 185.596 87.388 L 185.596 92.332 L 188.716 92.332 L 188.716 94.84 L 184.456 94.84 L 184.456 95.608 L 193.924 95.608 Z  M 191.848 91.576 L 186.508 91.576 L 186.508 88.144 L 191.848 88.144 L 191.848 91.576 Z  M 204.304 92.284 L 204.304 91.516 L 194.836 91.516 L 194.836 92.284 L 204.304 92.284 Z  M 203.152 96.796 L 203.152 93.376 L 196 93.376 L 196 96.796 L 203.152 96.796 Z  M 202.24 96.04 L 196.912 96.04 L 196.912 94.12 L 202.24 94.12 L 202.24 96.04 Z  M 203.236 88.696 C 203.236 87.508 201.868 86.728 199.564 86.728 C 197.272 86.728 195.916 87.508 195.916 88.696 C 195.916 89.884 197.272 90.664 199.564 90.664 C 201.868 90.664 203.236 89.884 203.236 88.696 Z  M 202.348 88.696 C 202.348 89.464 201.244 89.932 199.564 89.932 C 197.884 89.932 196.804 89.464 196.804 88.696 C 196.804 87.916 197.884 87.46 199.564 87.46 C 201.244 87.46 202.348 87.916 202.348 88.696 Z " fill-rule="evenodd" fill="rgb(0,0,0)"/><path d=" M 140.216 96.94 L 140.216 86.452 L 139.292 86.452 L 139.292 96.94 L 140.216 96.94 Z  M 137.96 93.724 C 136.508 92.86 135.236 91.144 135.236 89.224 L 135.236 87.364 L 134.312 87.364 L 134.312 89.26 C 134.312 91.12 133.052 93.028 131.516 93.988 L 132.116 94.672 C 133.328 93.808 134.408 92.524 134.792 91.216 C 135.2 92.476 136.436 93.772 137.384 94.42 L 137.96 93.724 Z  M 147.308 93.796 C 146.012 92.956 145.028 91.66 145.028 89.596 L 145.028 88.444 L 147.044 88.444 L 147.044 87.688 L 142.04 87.688 L 142.04 88.444 L 144.128 88.444 L 144.128 89.62 C 144.128 91.66 143.024 93.316 141.788 94.108 L 142.4 94.744 C 143.42 94.024 144.368 92.776 144.584 91.612 C 144.884 92.716 145.988 93.94 146.732 94.468 L 147.308 93.796 Z  M 148.724 96.412 L 148.724 86.704 L 147.824 86.704 L 147.824 90.304 L 146.144 90.304 L 146.144 91.06 L 147.824 91.06 L 147.824 96.412 L 148.724 96.412 Z  M 150.8 96.94 L 150.8 86.452 L 149.9 86.452 L 149.9 96.94 L 150.8 96.94 Z " fill-rule="evenodd" fill="rgb(0,0,0)"/><path d=" M 219.708 112.751 L 219.708 112.751 L 219.708 112.751 Q 219.994 112.751 220.132 112.823 L 220.132 112.823 L 220.132 112.823 Q 220.269 112.894 220.445 113.114 L 220.445 113.114 L 229.575 124.994 L 229.575 124.994 Q 229.542 124.708 229.531 124.439 L 229.531 124.439 L 229.531 124.439 Q 229.52 124.169 229.52 123.916 L 229.52 123.916 L 229.52 112.751 L 231.39 112.751 L 231.39 128.514 L 230.312 128.514 L 230.312 128.514 Q 230.059 128.514 229.889 128.426 L 229.889 128.426 L 229.889 128.426 Q 229.718 128.338 229.553 128.129 L 229.553 128.129 L 220.434 116.26 L 220.434 116.26 Q 220.456 116.535 220.467 116.799 L 220.467 116.799 L 220.467 116.799 Q 220.478 117.063 220.478 117.283 L 220.478 117.283 L 220.478 128.514 L 218.608 128.514 L 218.608 112.751 L 219.708 112.751 L 219.708 112.751 Z  M 233.634 112.751 L 245.976 112.751 L 245.976 114.544 L 240.883 114.544 L 240.883 128.514 L 238.749 128.514 L 238.749 114.544 L 233.634 114.544 L 233.634 112.751 L 233.634 112.751 Z " fill-rule="evenodd" fill="rgb(0,0,0)"/><path d=" M 32.48 112.751 L 38.783 128.514 L 37.133 128.514 L 37.133 128.514 Q 36.847 128.514 36.671 128.371 L 36.671 128.371 L 36.671 128.371 Q 36.495 128.228 36.407 128.008 L 36.407 128.008 L 34.933 124.202 L 27.86 124.202 L 26.386 128.008 L 26.386 128.008 Q 26.309 128.206 26.122 128.36 L 26.122 128.36 L 26.122 128.36 Q 25.935 128.514 25.66 128.514 L 25.66 128.514 L 24.01 128.514 L 30.313 112.751 L 32.48 112.751 L 32.48 112.751 Z  M 30.929 116.26 L 28.454 122.662 L 34.339 122.662 L 31.864 116.249 L 31.864 116.249 Q 31.622 115.655 31.391 114.764 L 31.391 114.764 L 31.391 114.764 Q 31.27 115.215 31.155 115.594 L 31.155 115.594 L 31.155 115.594 Q 31.039 115.974 30.929 116.26 L 30.929 116.26 L 30.929 116.26 Z  M 48.529 122.816 L 48.529 122.816 L 48.529 122.816 Q 48.683 123.08 48.799 123.371 L 48.799 123.371 L 48.799 123.371 Q 48.914 123.663 49.024 123.96 L 49.024 123.96 L 49.024 123.96 Q 49.134 123.652 49.255 123.371 L 49.255 123.371 L 49.255 123.371 Q 49.376 123.091 49.53 122.805 L 49.53 122.805 L 54.865 113.114 L 54.865 113.114 Q 55.008 112.861 55.162 112.806 L 55.162 112.806 L 55.162 112.806 Q 55.316 112.751 55.602 112.751 L 55.602 112.751 L 57.175 112.751 L 57.175 128.514 L 55.305 128.514 L 55.305 116.931 L 55.305 116.931 Q 55.305 116.7 55.316 116.436 L 55.316 116.436 L 55.316 116.436 Q 55.327 116.172 55.349 115.897 L 55.349 115.897 L 49.948 125.753 L 49.948 125.753 Q 49.673 126.248 49.178 126.248 L 49.178 126.248 L 48.87 126.248 L 48.87 126.248 Q 48.375 126.248 48.1 125.753 L 48.1 125.753 L 42.578 115.864 L 42.578 115.864 Q 42.611 116.15 42.628 116.425 L 42.628 116.425 L 42.628 116.425 Q 42.644 116.7 42.644 116.931 L 42.644 116.931 L 42.644 128.514 L 40.774 128.514 L 40.774 112.751 L 42.347 112.751 L 42.347 112.751 Q 42.633 112.751 42.787 112.806 L 42.787 112.806 L 42.787 112.806 Q 42.941 112.861 43.084 113.114 L 43.084 113.114 L 48.529 122.816 L 48.529 122.816 Z " fill-rule="evenodd" fill="rgb(0,0,0)"/><path d=" M 229.988 95.104 C 229.988 93.94 228.656 93.316 226.304 93.316 C 223.964 93.316 222.644 93.988 222.644 95.104 C 222.644 96.244 223.964 96.916 226.304 96.916 C 228.656 96.916 229.988 96.256 229.988 95.104 Z  M 230.576 89.956 C 229.112 89.812 227.18 88.996 226.844 87.748 L 230.18 87.748 L 230.18 86.992 L 222.44 86.992 L 222.44 87.748 L 225.788 87.748 C 225.476 88.984 223.688 89.812 222.068 89.968 L 222.488 90.724 C 224.336 90.46 225.896 89.524 226.304 88.552 C 226.832 89.512 228.404 90.436 230.156 90.724 L 230.576 89.956 Z  M 226.304 94.048 C 228.008 94.048 229.064 94.432 229.064 95.104 C 229.064 95.8 228.008 96.172 226.304 96.172 C 224.612 96.172 223.568 95.8 223.568 95.104 C 223.568 94.432 224.612 94.048 226.304 94.048 Z  M 231.044 92.464 L 231.044 91.696 L 226.76 91.696 L 226.76 90.112 L 225.848 90.112 L 225.848 91.696 L 221.576 91.696 L 221.576 92.464 L 231.044 92.464 Z  M 240.92 96.88 L 240.92 96.16 L 234.656 96.16 L 234.656 94.9 L 240.524 94.9 L 240.524 92.368 L 233.708 92.368 L 233.708 93.088 L 239.612 93.088 L 239.612 94.24 L 233.744 94.24 L 233.744 96.88 L 240.92 96.88 Z  M 237.32 87.028 L 232.532 87.028 L 232.532 87.796 L 236.276 87.796 C 235.928 89.512 234.392 90.904 232.088 91.48 L 232.544 92.224 C 235.16 91.468 237.104 89.788 237.32 87.028 Z  M 237.428 88.72 L 239.612 88.72 L 239.612 89.932 L 237.296 89.932 L 237.296 90.664 L 239.612 90.664 L 239.612 91.792 L 240.524 91.792 L 240.524 86.452 L 239.612 86.452 L 239.612 88 L 237.428 88 L 237.428 88.72 Z " fill-rule="evenodd" fill="rgb(0,0,0)"/><path d=" M 115.108 45.688 L 116.714 45.688 L 116.714 50.385 L 121.191 50.385 L 121.191 51.87 L 116.714 51.87 L 116.714 56.6 L 115.108 56.6 L 115.108 51.87 L 110.653 51.87 L 110.653 50.385 L 115.108 50.385 L 115.108 45.688 L 115.108 45.688 Z " fill="rgb(0,0,0)"/><path d=" M 69.933 116.864 L 71.101 116.864 L 71.101 120.28 L 74.357 120.28 L 74.357 121.36 L 71.101 121.36 L 71.101 124.8 L 69.933 124.8 L 69.933 121.36 L 66.693 121.36 L 66.693 120.28 L 69.933 120.28 L 69.933 116.864 L 69.933 116.864 Z " fill="rgb(0,0,0)"/><path d=" M 164.933 116.864 L 166.101 116.864 L 166.101 120.28 L 169.357 120.28 L 169.357 121.36 L 166.101 121.36 L 166.101 124.8 L 164.933 124.8 L 164.933 121.36 L 161.693 121.36 L 161.693 120.28 L 164.933 120.28 L 164.933 116.864 L 164.933 116.864 Z " fill="rgb(0,0,0)"/><path d=" M 204.367 116.864 L 205.535 116.864 L 205.535 120.28 L 208.791 120.28 L 208.791 121.36 L 205.535 121.36 L 205.535 124.8 L 204.367 124.8 L 204.367 121.36 L 201.127 121.36 L 201.127 120.28 L 204.367 120.28 L 204.367 116.864 L 204.367 116.864 Z " fill="rgb(0,0,0)"/></g></svg>