<?xml version="1.0" standalone="no"?><!-- Generator: Gravit.io --><svg xmlns="http://www.w3.org/2000/svg" xmlns:xlink="http://www.w3.org/1999/xlink" style="isolation:isolate" viewBox="0 0 480 140" width="480" height="140"><defs><clipPath id="_clipPath_axQvrKxVKWteTwl1Pi8Dt5Fx5UOR42Oq"><rect width="480" height="140"/></clipPath></defs><g clip-path="url(#_clipPath_axQvrKxVKWteTwl1Pi8Dt5Fx5UOR42Oq)"><path d=" M 20 30 L 180 30 L 180 130 L 20 130 L 20 30 Z " fill="none" vector-effect="non-scaling-stroke" stroke-width="1" stroke-dasharray="1,2" stroke="rgb(0,0,0)" stroke-linejoin="miter" stroke-linecap="square" stroke-miterlimit="3"/><path d=" M 200 30 L 460 30 L 460 130 L 200 130 L 200 30 Z " fill="none" vector-effect="non-scaling-stroke" stroke-width="1" stroke-dasharray="1,2" stroke="rgb(0,0,0)" stroke-linejoin="miter" stroke-linecap="square" stroke-miterlimit="3"/><path d=" M 330 60 L 380 60 L 380 120 L 330 120 L 330 60 Z " fill="rgb(235,235,235)"/><path d=" M 400 60 L 450 60 L 450 120 L 400 120 L 400 60 Z " fill="rgb(235,235,235)"/><path d=" M 351.48 80.774 L 353.86 80.774 L 353.86 100.836 L 352.502 100.836 L 352.502 100.836 Q 352.18 100.836 351.963 100.724 L 351.963 100.724 L 351.963 100.724 Q 351.746 100.612 351.536 100.346 L 351.536 100.346 L 339.93 85.226 L 339.93 85.226 Q 339.958 85.576 339.972 85.912 L 339.972 85.912 L 339.972 85.912 Q 339.986 86.248 339.986 86.542 L 339.986 86.542 L 339.986 100.836 L 337.606 100.836 L 337.606 80.774 L 339.006 80.774 L 339.006 80.774 Q 339.188 80.774 339.314 80.795 L 339.314 80.795 L 339.314 80.795 Q 339.44 80.816 339.538 80.865 L 339.538 80.865 L 339.538 80.865 Q 339.636 80.914 339.734 81.005 L 339.734 81.005 L 339.734 81.005 Q 339.832 81.096 339.944 81.236 L 339.944 81.236 L 351.55 96.342 L 351.55 96.342 Q 351.522 95.978 351.501 95.635 L 351.501 95.635 L 351.501 95.635 Q 351.48 95.292 351.48 94.984 L 351.48 94.984 L 351.48 80.774 L 351.48 80.774 Z  M 372.55 80.774 L 372.55 83.056 L 366.054 83.056 L 366.054 100.836 L 363.352 100.836 L 363.352 83.056 L 356.842 83.056 L 356.842 80.774 L 372.55 80.774 L 372.55 80.774 Z " fill-rule="evenodd" fill="rgb(0,0,0)"/><path d=" M 415.236 98.68 L 415.236 98.68 L 415.236 98.68 Q 416.482 98.68 417.462 98.26 L 417.462 98.26 L 417.462 98.26 Q 418.442 97.84 419.121 97.084 L 419.121 97.084 L 419.121 97.084 Q 419.8 96.328 420.157 95.278 L 420.157 95.278 L 420.157 95.278 Q 420.514 94.228 420.514 92.968 L 420.514 92.968 L 420.514 80.774 L 423.216 80.774 L 423.216 92.968 L 423.216 92.968 Q 423.216 94.704 422.663 96.188 L 422.663 96.188 L 422.663 96.188 Q 422.11 97.672 421.081 98.757 L 421.081 98.757 L 421.081 98.757 Q 420.052 99.842 418.568 100.458 L 418.568 100.458 L 418.568 100.458 Q 417.084 101.074 415.236 101.074 L 415.236 101.074 L 415.236 101.074 Q 413.388 101.074 411.904 100.458 L 411.904 100.458 L 411.904 100.458 Q 410.42 99.842 409.384 98.757 L 409.384 98.757 L 409.384 98.757 Q 408.348 97.672 407.795 96.188 L 407.795 96.188 L 407.795 96.188 Q 407.242 94.704 407.242 92.968 L 407.242 92.968 L 407.242 80.774 L 409.944 80.774 L 409.944 92.954 L 409.944 92.954 Q 409.944 94.214 410.301 95.264 L 410.301 95.264 L 410.301 95.264 Q 410.658 96.314 411.337 97.07 L 411.337 97.07 L 411.337 97.07 Q 412.016 97.826 413.003 98.253 L 413.003 98.253 L 413.003 98.253 Q 413.99 98.68 415.236 98.68 Z  M 430.79 90.49 L 433.646 90.49 L 433.646 90.49 Q 434.822 90.49 435.725 90.203 L 435.725 90.203 L 435.725 90.203 Q 436.628 89.916 437.237 89.391 L 437.237 89.391 L 437.237 89.391 Q 437.846 88.866 438.154 88.138 L 438.154 88.138 L 438.154 88.138 Q 438.462 87.41 438.462 86.528 L 438.462 86.528 L 438.462 86.528 Q 438.462 84.736 437.286 83.826 L 437.286 83.826 L 437.286 83.826 Q 436.11 82.916 433.758 82.916 L 433.758 82.916 L 430.79 82.916 L 430.79 90.49 L 430.79 90.49 Z  M 437.062 92.87 L 442.914 100.836 L 440.506 100.836 L 440.506 100.836 Q 439.764 100.836 439.414 100.262 L 439.414 100.262 L 434.206 93.094 L 434.206 93.094 Q 433.968 92.758 433.695 92.611 L 433.695 92.611 L 433.695 92.611 Q 433.422 92.464 432.848 92.464 L 432.848 92.464 L 430.79 92.464 L 430.79 100.836 L 428.088 100.836 L 428.088 80.774 L 433.758 80.774 L 433.758 80.774 Q 435.662 80.774 437.048 81.159 L 437.048 81.159 L 437.048 81.159 Q 438.434 81.544 439.337 82.272 L 439.337 82.272 L 439.337 82.272 Q 440.24 83 440.674 84.029 L 440.674 84.029 L 440.674 84.029 Q 441.108 85.058 441.108 86.332 L 441.108 86.332 L 441.108 86.332 Q 441.108 87.396 440.772 88.32 L 440.772 88.32 L 440.772 88.32 Q 440.436 89.244 439.799 89.979 L 439.799 89.979 L 439.799 89.979 Q 439.162 90.714 438.245 91.232 L 438.245 91.232 L 438.245 91.232 Q 437.328 91.75 436.166 92.016 L 436.166 92.016 L 436.166 92.016 Q 436.684 92.31 437.062 92.87 L 437.062 92.87 L 437.062 92.87 Z " fill-rule="evenodd" fill="rgb(0,0,0)"/><path d=" M 352.192 47.144 L 352.192 36.936 L 350.976 36.936 L 350.976 47.144 L 352.192 47.144 Z  M 352.544 50.456 L 352.544 49.448 L 344.288 49.448 L 344.288 46.136 L 343.072 46.136 L 343.072 50.456 L 352.544 50.456 Z  M 344.832 37.864 C 342.72 37.864 341.072 39.288 341.072 41.368 C 341.072 43.448 342.72 44.824 344.848 44.824 C 346.976 44.824 348.608 43.432 348.608 41.352 C 348.608 39.272 346.96 37.864 344.832 37.864 Z  M 344.832 38.92 C 346.384 38.92 347.456 39.928 347.456 41.368 C 347.456 42.76 346.384 43.752 344.848 43.752 C 343.376 43.752 342.24 42.76 342.24 41.352 C 342.24 39.928 343.36 38.92 344.832 38.92 Z  M 366.144 48.312 C 366.144 46.728 364.448 45.752 361.44 45.752 C 358.448 45.752 356.768 46.728 356.768 48.312 C 356.768 49.896 358.448 50.872 361.44 50.872 C 364.448 50.872 366.144 49.896 366.144 48.312 Z  M 363.136 44.024 C 361.456 43.64 359.696 42.328 359.584 40.648 L 362.784 40.648 L 362.784 39.64 L 355.152 39.64 L 355.152 40.648 L 358.336 40.648 C 358.224 42.376 356.448 43.912 354.656 44.456 L 355.328 45.416 C 356.928 44.856 358.512 43.528 358.96 42.264 C 359.632 43.56 361.216 44.632 362.496 45.016 L 363.136 44.024 Z  M 364.848 48.312 C 364.848 49.272 363.6 49.848 361.44 49.848 C 359.328 49.848 358.064 49.272 358.064 48.312 C 358.064 47.336 359.328 46.76 361.44 46.76 C 363.6 46.76 364.848 47.336 364.848 48.312 Z  M 366.032 45.688 L 366.032 36.936 L 364.816 36.936 L 364.816 45.688 L 366.032 45.688 Z  M 360.864 38.44 L 360.864 37.416 L 357.056 37.416 L 357.056 38.44 L 360.864 38.44 Z " fill-rule="evenodd" fill="rgb(0,0,0)"/><path d=" M 417.664 50.936 L 417.664 45.864 L 423.392 45.864 L 423.392 44.84 L 410.768 44.84 L 410.768 45.864 L 416.448 45.864 L 416.448 50.936 L 417.664 50.936 Z  M 422.88 42.312 C 420.416 42.008 417.728 40.216 417.728 38.312 L 417.728 37.416 L 416.448 37.416 L 416.448 38.312 C 416.448 40.216 413.984 41.992 411.296 42.344 L 411.888 43.384 C 414.016 42.968 416.4 41.608 417.072 39.976 C 417.92 41.608 420.208 42.92 422.304 43.352 L 422.88 42.312 Z  M 435.728 48.472 C 435.728 46.888 433.984 46.04 430.912 46.04 C 427.856 46.04 426.128 46.952 426.128 48.472 C 426.128 50.024 427.856 50.92 430.912 50.92 C 433.984 50.92 435.728 50.04 435.728 48.472 Z  M 435.712 42.232 L 435.712 41.224 L 427.376 41.224 L 427.376 38.616 L 435.648 38.616 L 435.648 37.608 L 426.144 37.608 L 426.144 42.232 L 430.304 42.232 L 430.304 44.008 L 424.608 44.008 L 424.608 45.016 L 437.232 45.016 L 437.232 44.008 L 431.52 44.008 L 431.52 42.232 L 435.712 42.232 Z  M 430.912 47.032 C 433.136 47.032 434.48 47.576 434.48 48.472 C 434.48 49.4 433.136 49.912 430.912 49.912 C 428.72 49.912 427.376 49.4 427.376 48.472 C 427.376 47.576 428.72 47.032 430.912 47.032 Z " fill-rule="evenodd" fill="rgb(0,0,0)"/><path d=" M 323.8 90.35 L 323.8 91.7 L 319.72 91.7 L 319.72 96 L 318.27 96 L 318.27 91.7 L 314.21 91.7 L 314.21 90.35 L 318.27 90.35 L 318.27 86.08 L 319.72 86.08 L 319.72 90.35 L 323.8 90.35 L 323.8 90.35 Z " fill="rgb(0,0,0)"/><path d=" M 393.8 90.35 L 393.8 91.7 L 389.72 91.7 L 389.72 96 L 388.27 96 L 388.27 91.7 L 384.21 91.7 L 384.21 90.35 L 388.27 90.35 L 388.27 86.08 L 389.72 86.08 L 389.72 90.35 L 393.8 90.35 L 393.8 90.35 Z " fill="rgb(0,0,0)"/><path d=" M 270 60 L 310 60 L 310 120 L 270 120 L 270 60 Z " fill="rgb(235,235,235)"/><path d=" M 289.007 98.68 L 289.007 98.68 L 289.007 98.68 Q 290.253 98.68 291.233 98.26 L 291.233 98.26 L 291.233 98.26 Q 292.213 97.84 292.892 97.084 L 292.892 97.084 L 292.892 97.084 Q 293.571 96.328 293.928 95.278 L 293.928 95.278 L 293.928 95.278 Q 294.285 94.228 294.285 92.968 L 294.285 92.968 L 294.285 80.774 L 296.987 80.774 L 296.987 92.968 L 296.987 92.968 Q 296.987 94.704 296.434 96.188 L 296.434 96.188 L 296.434 96.188 Q 295.881 97.672 294.852 98.757 L 294.852 98.757 L 294.852 98.757 Q 293.823 99.842 292.339 100.458 L 292.339 100.458 L 292.339 100.458 Q 290.855 101.074 289.007 101.074 L 289.007 101.074 L 289.007 101.074 Q 287.159 101.074 285.675 100.458 L 285.675 100.458 L 285.675 100.458 Q 284.191 99.842 283.155 98.757 L 283.155 98.757 L 283.155 98.757 Q 282.119 97.672 281.566 96.188 L 281.566 96.188 L 281.566 96.188 Q 281.013 94.704 281.013 92.968 L 281.013 92.968 L 281.013 80.774 L 283.715 80.774 L 283.715 92.954 L 283.715 92.954 Q 283.715 94.214 284.072 95.264 L 284.072 95.264 L 284.072 95.264 Q 284.429 96.314 285.108 97.07 L 285.108 97.07 L 285.108 97.07 Q 285.787 97.826 286.774 98.253 L 286.774 98.253 L 286.774 98.253 Q 287.761 98.68 289.007 98.68 Z " fill="rgb(0,0,0)"/><path d=" M 272.136 39.928 L 272.136 42.504 L 269.592 42.504 L 269.592 43.512 L 272.136 43.512 L 272.136 47.096 L 273.352 47.096 L 273.352 36.936 L 272.136 36.936 L 272.136 38.92 L 269.592 38.92 L 269.592 39.928 L 272.136 39.928 Z  M 273.656 50.456 L 273.656 49.448 L 265.528 49.448 L 265.528 46.2 L 264.312 46.2 L 264.312 50.456 L 273.656 50.456 Z  M 265.64 37.88 C 263.592 37.88 262.008 39.32 262.008 41.384 C 262.008 43.48 263.592 44.856 265.656 44.856 C 267.704 44.856 269.272 43.464 269.272 41.384 C 269.272 39.304 267.688 37.88 265.64 37.88 Z  M 265.64 38.952 C 267.096 38.952 268.088 39.96 268.088 41.384 C 268.088 42.792 267.096 43.784 265.656 43.784 C 264.264 43.784 263.208 42.792 263.208 41.384 C 263.208 39.96 264.248 38.952 265.64 38.952 Z  M 287.72 50.84 L 287.72 49.88 L 279.368 49.88 L 279.368 48.2 L 287.192 48.2 L 287.192 44.824 L 278.104 44.824 L 278.104 45.784 L 285.976 45.784 L 285.976 47.32 L 278.152 47.32 L 278.152 50.84 L 287.72 50.84 Z  M 282.92 37.704 L 276.536 37.704 L 276.536 38.728 L 281.528 38.728 C 281.064 41.016 279.016 42.872 275.944 43.64 L 276.552 44.632 C 280.04 43.624 282.632 41.384 282.92 37.704 Z  M 283.064 39.96 L 285.976 39.96 L 285.976 41.576 L 282.888 41.576 L 282.888 42.552 L 285.976 42.552 L 285.976 44.056 L 287.192 44.056 L 287.192 36.936 L 285.976 36.936 L 285.976 39 L 283.064 39 L 283.064 39.96 Z  M 302.232 49.144 L 302.232 48.12 L 296.504 48.12 L 296.504 44.776 L 300.68 44.776 L 300.68 38.184 L 291.128 38.184 L 291.128 44.776 L 295.288 44.776 L 295.288 48.12 L 289.608 48.12 L 289.608 49.144 L 302.232 49.144 Z  M 299.464 43.768 L 292.344 43.768 L 292.344 39.192 L 299.464 39.192 L 299.464 43.768 Z  M 316.072 44.712 L 316.072 43.688 L 303.448 43.688 L 303.448 44.712 L 316.072 44.712 Z  M 314.536 50.728 L 314.536 46.168 L 305 46.168 L 305 50.728 L 314.536 50.728 Z  M 313.32 49.72 L 306.216 49.72 L 306.216 47.16 L 313.32 47.16 L 313.32 49.72 Z  M 314.648 39.928 C 314.648 38.344 312.824 37.304 309.752 37.304 C 306.696 37.304 304.888 38.344 304.888 39.928 C 304.888 41.512 306.696 42.552 309.752 42.552 C 312.824 42.552 314.648 41.512 314.648 39.928 Z  M 313.464 39.928 C 313.464 40.952 311.992 41.576 309.752 41.576 C 307.512 41.576 306.072 40.952 306.072 39.928 C 306.072 38.888 307.512 38.28 309.752 38.28 C 311.992 38.28 313.464 38.888 313.464 39.928 Z " fill-rule="evenodd" fill="rgb(0,0,0)"/><path d=" M 263.8 90.35 L 263.8 91.7 L 259.72 91.7 L 259.72 96 L 258.27 96 L 258.27 91.7 L 254.21 91.7 L 254.21 90.35 L 258.27 90.35 L 258.27 86.08 L 259.72 86.08 L 259.72 90.35 L 263.8 90.35 L 263.8 90.35 Z " fill="rgb(0,0,0)"/><path d=" M 210 60 L 250 60 L 250 120 L 210 120 L 210 60 Z " fill="rgb(235,235,235)"/><path d=" M 221.293 98.68 L 225.633 98.68 L 225.633 98.68 Q 226.795 98.68 227.635 98.414 L 227.635 98.414 L 227.635 98.414 Q 228.475 98.148 229.014 97.665 L 229.014 97.665 L 229.014 97.665 Q 229.553 97.182 229.805 96.517 L 229.805 96.517 L 229.805 96.517 Q 230.057 95.852 230.057 95.054 L 230.057 95.054 L 230.057 95.054 Q 230.057 93.5 228.951 92.597 L 228.951 92.597 L 228.951 92.597 Q 227.845 91.694 225.633 91.694 L 225.633 91.694 L 221.293 91.694 L 221.293 98.68 L 221.293 98.68 Z  M 224.989 82.916 L 221.293 82.916 L 221.293 89.762 L 224.877 89.762 L 224.877 89.762 Q 226.025 89.762 226.872 89.51 L 226.872 89.51 L 226.872 89.51 Q 227.719 89.258 228.272 88.81 L 228.272 88.81 L 228.272 88.81 Q 228.825 88.362 229.091 87.725 L 229.091 87.725 L 229.091 87.725 Q 229.357 87.088 229.357 86.332 L 229.357 86.332 L 229.357 86.332 Q 229.357 84.554 228.293 83.735 L 228.293 83.735 L 228.293 83.735 Q 227.229 82.916 224.989 82.916 L 224.989 82.916 L 224.989 82.916 Z  M 218.591 80.774 L 224.989 80.774 L 224.989 80.774 Q 226.837 80.774 228.174 81.138 L 228.174 81.138 L 228.174 81.138 Q 229.511 81.502 230.372 82.174 L 230.372 82.174 L 230.372 82.174 Q 231.233 82.846 231.639 83.819 L 231.639 83.819 L 231.639 83.819 Q 232.045 84.792 232.045 86.01 L 232.045 86.01 L 232.045 86.01 Q 232.045 86.752 231.814 87.431 L 231.814 87.431 L 231.814 87.431 Q 231.583 88.11 231.121 88.698 L 231.121 88.698 L 231.121 88.698 Q 230.659 89.286 229.952 89.755 L 229.952 89.755 L 229.952 89.755 Q 229.245 90.224 228.293 90.518 L 228.293 90.518 L 228.293 90.518 Q 230.505 90.938 231.618 92.093 L 231.618 92.093 L 231.618 92.093 Q 232.731 93.248 232.731 95.124 L 232.731 95.124 L 232.731 95.124 Q 232.731 96.398 232.262 97.448 L 232.262 97.448 L 232.262 97.448 Q 231.793 98.498 230.89 99.254 L 230.89 99.254 L 230.89 99.254 Q 229.987 100.01 228.671 100.423 L 228.671 100.423 L 228.671 100.423 Q 227.355 100.836 225.675 100.836 L 225.675 100.836 L 218.591 100.836 L 218.591 80.774 L 218.591 80.774 Z  M 239.409 80.774 L 239.409 100.836 L 236.693 100.836 L 236.693 80.774 L 239.409 80.774 L 239.409 80.774 Z " fill-rule="evenodd" fill="rgb(0,0,0)"/><path d=" M 227.288 50.92 L 227.288 36.936 L 226.056 36.936 L 226.056 50.92 L 227.288 50.92 Z  M 224.28 46.632 C 222.344 45.48 220.648 43.192 220.648 40.632 L 220.648 38.152 L 219.416 38.152 L 219.416 40.68 C 219.416 43.16 217.736 45.704 215.688 46.984 L 216.488 47.896 C 218.104 46.744 219.544 45.032 220.056 43.288 C 220.6 44.968 222.248 46.696 223.512 47.56 L 224.28 46.632 Z  M 236.744 46.728 C 235.016 45.608 233.704 43.88 233.704 41.128 L 233.704 39.592 L 236.392 39.592 L 236.392 38.584 L 229.72 38.584 L 229.72 39.592 L 232.504 39.592 L 232.504 41.16 C 232.504 43.88 231.032 46.088 229.384 47.144 L 230.2 47.992 C 231.56 47.032 232.824 45.368 233.112 43.816 C 233.512 45.288 234.984 46.92 235.976 47.624 L 236.744 46.728 Z  M 238.632 50.216 L 238.632 37.272 L 237.432 37.272 L 237.432 42.072 L 235.192 42.072 L 235.192 43.08 L 237.432 43.08 L 237.432 50.216 L 238.632 50.216 Z  M 241.4 50.92 L 241.4 36.936 L 240.2 36.936 L 240.2 50.92 L 241.4 50.92 Z " fill-rule="evenodd" fill="rgb(0,0,0)"/><path d=" M 193.8 90.35 L 193.8 91.7 L 189.72 91.7 L 189.72 96 L 188.27 96 L 188.27 91.7 L 184.21 91.7 L 184.21 90.35 L 188.27 90.35 L 188.27 86.08 L 189.72 86.08 L 189.72 90.35 L 193.8 90.35 L 193.8 90.35 Z " fill="rgb(0,0,0)"/><path d=" M 120 60 L 160 60 L 160 120 L 120 120 L 120 60 Z " fill="rgb(235,235,235)"/><path d=" M 135.248 93.388 L 142.738 93.388 L 139.588 85.226 L 139.588 85.226 Q 139.448 84.862 139.294 84.379 L 139.294 84.379 L 139.294 84.379 Q 139.14 83.896 139 83.35 L 139 83.35 L 139 83.35 Q 138.706 84.484 138.398 85.24 L 138.398 85.24 L 135.248 93.388 L 135.248 93.388 Z  M 140.372 80.774 L 148.394 100.836 L 146.294 100.836 L 146.294 100.836 Q 145.93 100.836 145.706 100.654 L 145.706 100.654 L 145.706 100.654 Q 145.482 100.472 145.37 100.192 L 145.37 100.192 L 143.494 95.348 L 134.492 95.348 L 132.616 100.192 L 132.616 100.192 Q 132.532 100.444 132.294 100.64 L 132.294 100.64 L 132.294 100.64 Q 132.056 100.836 131.706 100.836 L 131.706 100.836 L 129.606 100.836 L 137.628 80.774 L 140.372 80.774 L 140.372 80.774 Z " fill-rule="evenodd" fill="rgb(0,0,0)"/><path d=" M 112.104 42.856 C 112.104 45.832 113.384 47.8 115.64 47.8 C 117.768 47.8 119.016 46.04 119.144 43.352 L 122.136 43.352 L 122.136 50.92 L 123.352 50.92 L 123.352 36.936 L 122.136 36.936 L 122.136 42.312 L 119.144 42.312 C 118.984 39.656 117.752 37.912 115.64 37.912 C 113.384 37.912 112.104 39.896 112.104 42.856 Z  M 117.96 42.872 C 117.96 45.144 117.016 46.744 115.64 46.744 C 114.248 46.744 113.32 45.144 113.32 42.872 C 113.32 40.568 114.248 38.968 115.64 38.968 C 117.016 38.968 117.96 40.568 117.96 42.872 Z  M 138.648 42.344 L 138.648 41.32 L 136.52 41.32 L 136.52 36.936 L 135.304 36.936 L 135.304 47.4 L 136.52 47.4 L 136.52 42.344 L 138.648 42.344 Z  M 136.952 50.568 L 136.952 49.56 L 128.936 49.56 L 128.936 46.248 L 127.72 46.248 L 127.72 50.568 L 136.952 50.568 Z  M 126.248 38.168 L 126.248 39.192 L 131.288 39.192 C 130.936 41.768 128.68 43.992 125.672 44.76 L 126.296 45.784 C 129.864 44.648 132.456 41.976 132.616 38.168 L 126.248 38.168 Z  M 152.232 49.144 L 152.232 48.12 L 146.504 48.12 L 146.504 44.776 L 150.68 44.776 L 150.68 38.184 L 141.128 38.184 L 141.128 44.776 L 145.288 44.776 L 145.288 48.12 L 139.608 48.12 L 139.608 49.144 L 152.232 49.144 Z  M 149.464 43.768 L 142.344 43.768 L 142.344 39.192 L 149.464 39.192 L 149.464 43.768 Z  M 166.072 44.712 L 166.072 43.688 L 153.448 43.688 L 153.448 44.712 L 166.072 44.712 Z  M 164.536 50.728 L 164.536 46.168 L 155 46.168 L 155 50.728 L 164.536 50.728 Z  M 163.32 49.72 L 156.216 49.72 L 156.216 47.16 L 163.32 47.16 L 163.32 49.72 Z  M 164.648 39.928 C 164.648 38.344 162.824 37.304 159.752 37.304 C 156.696 37.304 154.888 38.344 154.888 39.928 C 154.888 41.512 156.696 42.552 159.752 42.552 C 162.824 42.552 164.648 41.512 164.648 39.928 Z  M 163.464 39.928 C 163.464 40.952 161.992 41.576 159.752 41.576 C 157.512 41.576 156.072 40.952 156.072 39.928 C 156.072 38.888 157.512 38.28 159.752 38.28 C 161.992 38.28 163.464 38.888 163.464 39.928 Z " fill-rule="evenodd" fill="rgb(0,0,0)"/><path d=" M 113.8 90.35 L 113.8 91.7 L 109.72 91.7 L 109.72 96 L 108.27 96 L 108.27 91.7 L 104.21 91.7 L 104.21 90.35 L 108.27 90.35 L 108.27 86.08 L 109.72 86.08 L 109.72 90.35 L 113.8 90.35 L 113.8 90.35 Z " fill="rgb(0,0,0)"/><path d=" M 55.944 42.856 C 55.944 45.832 57.224 47.8 59.48 47.8 C 61.608 47.8 62.856 46.04 62.984 43.352 L 65.976 43.352 L 65.976 50.92 L 67.192 50.92 L 67.192 36.936 L 65.976 36.936 L 65.976 42.312 L 62.984 42.312 C 62.824 39.656 61.592 37.912 59.48 37.912 C 57.224 37.912 55.944 39.896 55.944 42.856 Z  M 61.8 42.872 C 61.8 45.144 60.856 46.744 59.48 46.744 C 58.088 46.744 57.16 45.144 57.16 42.872 C 57.16 40.568 58.088 38.968 59.48 38.968 C 60.856 38.968 61.8 40.568 61.8 42.872 Z  M 82.232 44.44 L 82.232 43.416 L 80.168 43.416 C 80.472 41.96 80.6 40.072 80.6 37.944 L 71.192 37.944 L 71.192 38.952 L 79.368 38.952 C 79.368 40.616 79.272 42.216 78.984 43.416 L 69.608 43.416 L 69.608 44.44 L 82.232 44.44 Z  M 81 50.408 L 81 49.4 L 72.424 49.4 L 72.424 46.008 L 71.208 46.008 L 71.208 50.408 L 81 50.408 Z " fill-rule="evenodd" fill="rgb(0,0,0)"/><path d=" M 85.944 12.856 C 85.944 15.832 87.224 17.8 89.48 17.8 C 91.608 17.8 92.856 16.04 92.984 13.352 L 95.976 13.352 L 95.976 20.92 L 97.192 20.92 L 97.192 6.936 L 95.976 6.936 L 95.976 12.312 L 92.984 12.312 C 92.824 9.656 91.592 7.912 89.48 7.912 C 87.224 7.912 85.944 9.896 85.944 12.856 Z  M 91.8 12.872 C 91.8 15.144 90.856 16.744 89.48 16.744 C 88.088 16.744 87.16 15.144 87.16 12.872 C 87.16 10.568 88.088 8.968 89.48 8.968 C 90.856 8.968 91.8 10.568 91.8 12.872 Z  M 112.488 12.344 L 112.488 11.32 L 110.36 11.32 L 110.36 6.936 L 109.144 6.936 L 109.144 17.4 L 110.36 17.4 L 110.36 12.344 L 112.488 12.344 Z  M 110.792 20.568 L 110.792 19.56 L 102.776 19.56 L 102.776 16.248 L 101.56 16.248 L 101.56 20.568 L 110.792 20.568 Z  M 100.088 8.168 L 100.088 9.192 L 105.128 9.192 C 104.776 11.768 102.52 13.992 99.512 14.76 L 100.136 15.784 C 103.704 14.648 106.296 11.976 106.456 8.168 L 100.088 8.168 Z " fill-rule="evenodd" fill="rgb(0,0,0)"/><path d=" M 315.944 12.856 C 315.944 15.832 317.224 17.8 319.48 17.8 C 321.608 17.8 322.856 16.04 322.984 13.352 L 325.976 13.352 L 325.976 20.92 L 327.192 20.92 L 327.192 6.936 L 325.976 6.936 L 325.976 12.312 L 322.984 12.312 C 322.824 9.656 321.592 7.912 319.48 7.912 C 317.224 7.912 315.944 9.896 315.944 12.856 Z  M 321.8 12.872 C 321.8 15.144 320.856 16.744 319.48 16.744 C 318.088 16.744 317.16 15.144 317.16 12.872 C 317.16 10.568 318.088 8.968 319.48 8.968 C 320.856 8.968 321.8 10.568 321.8 12.872 Z  M 341 20.92 L 341 6.936 L 339.784 6.936 L 339.784 20.92 L 341 20.92 Z  M 336.984 17.32 L 336.984 8.376 L 330.376 8.376 L 330.376 17.32 L 336.984 17.32 Z  M 335.768 16.312 L 331.608 16.312 L 331.608 9.384 L 335.768 9.384 L 335.768 16.312 Z " fill-rule="evenodd" fill="rgb(0,0,0)"/><path d=" M 40 60 L 100 60 L 100 120 L 40 120 L 40 60 Z " fill="rgb(235,235,235)"/><path d=" M 52.249 93.388 L 59.739 93.388 L 56.589 85.226 L 56.589 85.226 Q 56.449 84.862 56.295 84.379 L 56.295 84.379 L 56.295 84.379 Q 56.141 83.896 56.001 83.35 L 56.001 83.35 L 56.001 83.35 Q 55.707 84.484 55.399 85.24 L 55.399 85.24 L 52.249 93.388 L 52.249 93.388 Z  M 57.373 80.774 L 65.395 100.836 L 63.295 100.836 L 63.295 100.836 Q 62.931 100.836 62.707 100.654 L 62.707 100.654 L 62.707 100.654 Q 62.483 100.472 62.371 100.192 L 62.371 100.192 L 60.495 95.348 L 51.493 95.348 L 49.617 100.192 L 49.617 100.192 Q 49.533 100.444 49.295 100.64 L 49.295 100.64 L 49.295 100.64 Q 49.057 100.836 48.707 100.836 L 48.707 100.836 L 46.607 100.836 L 54.629 80.774 L 57.373 80.774 L 57.373 80.774 Z  M 86.913 80.774 L 88.915 80.774 L 88.915 100.836 L 86.535 100.836 L 86.535 86.094 L 86.535 86.094 Q 86.535 85.8 86.556 85.464 L 86.556 85.464 L 86.556 85.464 Q 86.577 85.128 86.605 84.778 L 86.605 84.778 L 79.717 97.322 L 79.717 97.322 Q 79.395 97.952 78.737 97.952 L 78.737 97.952 L 78.345 97.952 L 78.345 97.952 Q 77.687 97.952 77.365 97.322 L 77.365 97.322 L 70.337 84.722 L 70.337 84.722 Q 70.421 85.464 70.421 86.094 L 70.421 86.094 L 70.421 100.836 L 68.041 100.836 L 68.041 80.774 L 70.043 80.774 L 70.043 80.774 Q 70.407 80.774 70.603 80.844 L 70.603 80.844 L 70.603 80.844 Q 70.799 80.914 70.981 81.236 L 70.981 81.236 L 77.911 93.584 L 77.911 93.584 Q 78.079 93.92 78.24 94.284 L 78.24 94.284 L 78.24 94.284 Q 78.401 94.648 78.541 95.026 L 78.541 95.026 L 78.541 95.026 Q 78.681 94.648 78.835 94.277 L 78.835 94.277 L 78.835 94.277 Q 78.989 93.906 79.171 93.57 L 79.171 93.57 L 85.975 81.236 L 85.975 81.236 Q 86.143 80.914 86.346 80.844 L 86.346 80.844 L 86.346 80.844 Q 86.549 80.774 86.913 80.774 L 86.913 80.774 L 86.913 80.774 Z " fill-rule="evenodd" fill="rgb(0,0,0)"/></g></svg>