<?xml version="1.0" standalone="no"?><!-- Generator: Gravit.io --><svg xmlns="http://www.w3.org/2000/svg" xmlns:xlink="http://www.w3.org/1999/xlink" style="isolation:isolate" viewBox="0 0 470 120" width="470" height="120"><defs><clipPath id="_clipPath_a0nCRrAYxh4zk36L0PF3scx4nLZt0Ww0"><rect width="470" height="120"/></clipPath></defs><g clip-path="url(#_clipPath_a0nCRrAYxh4zk36L0PF3scx4nLZt0Ww0)"><path d=" M 370 50 L 450 50 L 450 110 L 370 110 L 370 50 Z " fill="rgb(235,235,235)"/><path d=" M 386.489 86.776 L 394.079 86.776 L 394.068 88.514 L 384.355 88.514 L 384.355 72.751 L 394.068 72.751 L 394.068 74.489 L 386.489 74.489 L 386.489 79.725 L 392.627 79.725 L 392.627 81.397 L 386.489 81.397 L 386.489 86.776 L 386.489 86.776 Z  M 399.183 80.385 L 401.427 80.385 L 401.427 80.385 Q 402.351 80.385 403.06 80.159 L 403.06 80.159 L 403.06 80.159 Q 403.77 79.934 404.248 79.521 L 404.248 79.521 L 404.248 79.521 Q 404.727 79.109 404.969 78.537 L 404.969 78.537 L 404.969 78.537 Q 405.211 77.965 405.211 77.272 L 405.211 77.272 L 405.211 77.272 Q 405.211 75.864 404.287 75.149 L 404.287 75.149 L 404.287 75.149 Q 403.363 74.434 401.515 74.434 L 401.515 74.434 L 399.183 74.434 L 399.183 80.385 L 399.183 80.385 Z  M 404.111 82.255 L 408.709 88.514 L 406.817 88.514 L 406.817 88.514 Q 406.234 88.514 405.959 88.063 L 405.959 88.063 L 401.867 82.431 L 401.867 82.431 Q 401.68 82.167 401.465 82.051 L 401.465 82.051 L 401.465 82.051 Q 401.251 81.936 400.8 81.936 L 400.8 81.936 L 399.183 81.936 L 399.183 88.514 L 397.06 88.514 L 397.06 72.751 L 401.515 72.751 L 401.515 72.751 Q 403.011 72.751 404.1 73.053 L 404.1 73.053 L 404.1 73.053 Q 405.189 73.356 405.898 73.928 L 405.898 73.928 L 405.898 73.928 Q 406.608 74.5 406.949 75.308 L 406.949 75.308 L 406.949 75.308 Q 407.29 76.117 407.29 77.118 L 407.29 77.118 L 407.29 77.118 Q 407.29 77.954 407.026 78.68 L 407.026 78.68 L 407.026 78.68 Q 406.762 79.406 406.261 79.983 L 406.261 79.983 L 406.261 79.983 Q 405.761 80.561 405.04 80.968 L 405.04 80.968 L 405.04 80.968 Q 404.32 81.375 403.407 81.584 L 403.407 81.584 L 403.407 81.584 Q 403.814 81.815 404.111 82.255 L 404.111 82.255 L 404.111 82.255 Z  M 413.329 82.662 L 419.214 82.662 L 416.739 76.249 L 416.739 76.249 Q 416.629 75.963 416.508 75.583 L 416.508 75.583 L 416.508 75.583 Q 416.387 75.204 416.277 74.775 L 416.277 74.775 L 416.277 74.775 Q 416.046 75.666 415.804 76.26 L 415.804 76.26 L 413.329 82.662 L 413.329 82.662 Z  M 417.355 72.751 L 423.658 88.514 L 422.008 88.514 L 422.008 88.514 Q 421.722 88.514 421.546 88.371 L 421.546 88.371 L 421.546 88.371 Q 421.37 88.228 421.282 88.008 L 421.282 88.008 L 419.808 84.202 L 412.735 84.202 L 411.261 88.008 L 411.261 88.008 Q 411.195 88.206 411.008 88.36 L 411.008 88.36 L 411.008 88.36 Q 410.821 88.514 410.546 88.514 L 410.546 88.514 L 408.896 88.514 L 415.199 72.751 L 417.355 72.751 L 417.355 72.751 Z  M 434.317 74.203 L 433.8 75.215 L 433.8 75.215 Q 433.701 75.38 433.585 75.462 L 433.585 75.462 L 433.585 75.462 Q 433.47 75.545 433.305 75.545 L 433.305 75.545 L 433.305 75.545 Q 433.118 75.545 432.865 75.358 L 432.865 75.358 L 432.865 75.358 Q 432.612 75.171 432.232 74.945 L 432.232 74.945 L 432.232 74.945 Q 431.853 74.72 431.319 74.533 L 431.319 74.533 L 431.319 74.533 Q 430.786 74.346 430.027 74.346 L 430.027 74.346 L 430.027 74.346 Q 429.312 74.346 428.767 74.538 L 428.767 74.538 L 428.767 74.538 Q 428.223 74.731 427.854 75.061 L 427.854 75.061 L 427.854 75.061 Q 427.486 75.391 427.299 75.836 L 427.299 75.836 L 427.299 75.836 Q 427.112 76.282 427.112 76.799 L 427.112 76.799 L 427.112 76.799 Q 427.112 77.459 427.436 77.893 L 427.436 77.893 L 427.436 77.893 Q 427.761 78.328 428.294 78.636 L 428.294 78.636 L 428.294 78.636 Q 428.828 78.944 429.504 79.169 L 429.504 79.169 L 429.504 79.169 Q 430.181 79.395 430.89 79.637 L 430.89 79.637 L 430.89 79.637 Q 431.6 79.879 432.276 80.181 L 432.276 80.181 L 432.276 80.181 Q 432.953 80.484 433.486 80.946 L 433.486 80.946 L 433.486 80.946 Q 434.02 81.408 434.344 82.079 L 434.344 82.079 L 434.344 82.079 Q 434.669 82.75 434.669 83.729 L 434.669 83.729 L 434.669 83.729 Q 434.669 84.763 434.317 85.67 L 434.317 85.67 L 434.317 85.67 Q 433.965 86.578 433.288 87.249 L 433.288 87.249 L 433.288 87.249 Q 432.612 87.92 431.627 88.305 L 431.627 88.305 L 431.627 88.305 Q 430.643 88.69 429.389 88.69 L 429.389 88.69 L 429.389 88.69 Q 427.849 88.69 426.595 88.134 L 426.595 88.134 L 426.595 88.134 Q 425.341 87.579 424.45 86.633 L 424.45 86.633 L 425.066 85.621 L 425.066 85.621 Q 425.154 85.5 425.28 85.417 L 425.28 85.417 L 425.28 85.417 Q 425.407 85.335 425.561 85.335 L 425.561 85.335 L 425.561 85.335 Q 425.704 85.335 425.885 85.45 L 425.885 85.45 L 425.885 85.45 Q 426.067 85.566 426.298 85.742 L 426.298 85.742 L 426.298 85.742 Q 426.529 85.918 426.826 86.127 L 426.826 86.127 L 426.826 86.127 Q 427.123 86.336 427.502 86.512 L 427.502 86.512 L 427.502 86.512 Q 427.882 86.688 428.366 86.803 L 428.366 86.803 L 428.366 86.803 Q 428.85 86.919 429.455 86.919 L 429.455 86.919 L 429.455 86.919 Q 430.214 86.919 430.808 86.71 L 430.808 86.71 L 430.808 86.71 Q 431.402 86.501 431.814 86.121 L 431.814 86.121 L 431.814 86.121 Q 432.227 85.742 432.447 85.214 L 432.447 85.214 L 432.447 85.214 Q 432.667 84.686 432.667 84.037 L 432.667 84.037 L 432.667 84.037 Q 432.667 83.322 432.342 82.865 L 432.342 82.865 L 432.342 82.865 Q 432.018 82.409 431.49 82.101 L 431.49 82.101 L 431.49 82.101 Q 430.962 81.793 430.28 81.578 L 430.28 81.578 L 430.28 81.578 Q 429.598 81.364 428.894 81.138 L 428.894 81.138 L 428.894 81.138 Q 428.19 80.913 427.508 80.616 L 427.508 80.616 L 427.508 80.616 Q 426.826 80.319 426.298 79.846 L 426.298 79.846 L 426.298 79.846 Q 425.77 79.373 425.445 78.663 L 425.445 78.663 L 425.445 78.663 Q 425.121 77.954 425.121 76.909 L 425.121 76.909 L 425.121 76.909 Q 425.121 76.073 425.445 75.292 L 425.445 75.292 L 425.445 75.292 Q 425.77 74.511 426.391 73.906 L 426.391 73.906 L 426.391 73.906 Q 427.013 73.301 427.92 72.938 L 427.92 72.938 L 427.92 72.938 Q 428.828 72.575 430.005 72.575 L 430.005 72.575 L 430.005 72.575 Q 431.325 72.575 432.408 72.993 L 432.408 72.993 L 432.408 72.993 Q 433.492 73.411 434.317 74.203 L 434.317 74.203 L 434.317 74.203 Z " fill-rule="evenodd" fill="rgb(0,0,0)"/><path d=" M 416.184 40.52 L 416.184 26.536 L 414.968 26.536 L 414.968 40.52 L 416.184 40.52 Z  M 412.168 36.92 L 412.168 27.976 L 405.56 27.976 L 405.56 36.92 L 412.168 36.92 Z  M 410.952 35.912 L 406.792 35.912 L 406.792 28.984 L 410.952 28.984 L 410.952 35.912 Z  M 427.352 34.92 L 427.256 33.944 C 426.408 34.056 424.824 34.216 423.32 34.296 L 423.32 32.936 C 425.112 32.728 426.296 31.64 426.296 30.088 C 426.296 28.408 424.856 27.16 422.744 27.16 C 420.648 27.16 419.176 28.408 419.176 30.072 C 419.176 31.608 420.344 32.712 422.104 32.936 L 422.104 34.344 C 420.728 34.408 419.368 34.424 418.392 34.408 L 418.584 35.48 C 419.576 35.48 421.352 35.416 422.92 35.32 C 424.584 35.224 426.344 35.032 427.352 34.92 Z  M 431.528 32.344 L 431.528 31.32 L 429.416 31.32 L 429.416 26.536 L 428.184 26.536 L 428.184 37.096 L 429.416 37.096 L 429.416 32.344 L 431.528 32.344 Z  M 425.128 30.072 C 425.128 31.16 424.216 31.944 422.744 31.944 C 421.272 31.944 420.392 31.224 420.392 30.072 C 420.392 29.032 421.272 28.2 422.744 28.2 C 424.216 28.2 425.128 29 425.128 30.072 Z  M 429.784 40.216 L 429.784 39.208 L 421.752 39.208 L 421.752 36.392 L 420.536 36.392 L 420.536 40.216 L 429.784 40.216 Z  M 443.912 35 L 443.912 33.992 L 435.24 33.992 L 435.24 31.752 L 443.512 31.752 L 443.512 27.576 L 434.056 27.576 L 434.056 28.6 L 442.296 28.6 L 442.296 30.744 L 434.008 30.744 L 434.008 35 L 435.992 35 L 435.992 37.72 L 432.472 37.72 L 432.472 38.744 L 445.096 38.744 L 445.096 37.72 L 441.656 37.72 L 441.656 35 L 443.912 35 Z  M 437.208 35 L 440.456 35 L 440.456 37.72 L 437.208 37.72 L 437.208 35 Z  M 386.008 33.416 L 386.008 32.376 L 383.736 32.376 L 383.736 26.536 L 382.52 26.536 L 382.52 40.52 L 383.736 40.52 L 383.736 33.416 L 386.008 33.416 Z  M 381.72 36.984 L 381.624 35.976 C 380.376 36.168 378.616 36.296 376.936 36.376 L 376.936 31.992 L 375.704 31.992 L 375.704 36.408 C 374.664 36.44 373.416 36.424 372.648 36.424 L 372.824 37.496 C 373.992 37.496 375.544 37.448 376.952 37.384 C 378.312 37.304 380.376 37.16 381.72 36.984 Z  M 380.664 28.008 L 373.352 28.008 L 373.352 29.032 L 379.432 29.032 C 379.496 30.6 379.304 32.904 379 34.264 L 380.168 34.424 C 380.472 33.064 380.696 30.152 380.664 28.008 Z  M 396.952 33.16 L 396.952 40.52 L 398.168 40.52 L 398.168 26.536 L 396.952 26.536 L 396.952 32.12 L 393.784 32.12 L 393.784 33.16 L 396.952 33.16 Z  M 393.832 28.024 L 387.24 28.024 L 387.24 29.048 L 392.52 29.048 C 392.28 32.2 390.264 35.24 386.728 36.792 L 387.432 37.752 C 391.032 36.04 393.768 32.568 393.832 28.024 Z  M 390.136 19.72 C 392.648 19.72 393.736 18.472 393.736 16.6 C 393.736 14.792 392.728 14.12 391.144 13.576 L 390.088 13.24 C 388.872 12.824 388.488 12.376 388.488 11.352 C 388.488 10.328 389.224 9.688 390.536 9.688 C 391.72 9.688 392.568 9.992 393.192 10.28 L 393.192 9.208 C 392.6 8.92 391.848 8.616 390.584 8.616 C 388.344 8.616 387.24 9.8 387.24 11.464 C 387.24 13.096 388.088 13.864 389.592 14.36 L 390.632 14.728 C 391.928 15.144 392.456 15.592 392.456 16.696 C 392.456 17.864 391.736 18.632 390.088 18.632 C 388.952 18.632 387.896 18.344 387.08 17.928 L 387.08 19 C 387.8 19.4 388.824 19.72 390.136 19.72 Z  M 399.8 19.72 C 402.36 19.72 403.672 18.52 403.672 15.784 L 403.672 8.776 L 402.488 8.776 L 402.488 15.72 C 402.488 18.024 401.624 18.712 399.848 18.712 C 398.072 18.712 397.112 18.008 397.112 15.736 L 397.112 8.776 L 395.832 8.776 L 395.832 15.8 C 395.832 18.472 397.272 19.72 399.8 19.72 Z  M 406.344 19.528 L 407.528 19.528 L 407.528 10.456 L 407.576 10.456 L 410.68 19.528 L 411.864 19.528 L 415 10.456 L 415.048 10.456 L 415.048 19.528 L 416.328 19.528 L 416.328 8.792 L 414.456 8.792 L 411.368 17.864 L 411.336 17.864 L 408.232 8.792 L 406.344 8.792 L 406.344 19.528 Z  M 428.584 7.336 L 428.584 21.32 L 429.8 21.32 L 429.8 7.336 L 428.584 7.336 Z  M 426.376 11.752 C 426.376 9.704 424.808 8.424 422.744 8.424 C 420.712 8.424 419.096 9.784 419.096 11.752 C 419.096 13.624 420.68 15 422.744 15 C 424.76 15 426.376 13.736 426.376 11.752 Z  M 425.192 11.752 C 425.192 13.064 424.072 13.976 422.744 13.976 C 421.384 13.976 420.28 13.048 420.28 11.752 C 420.28 10.44 421.4 9.464 422.744 9.464 C 424.104 9.464 425.192 10.344 425.192 11.752 Z  M 427.768 17.768 L 427.656 16.776 C 426.632 16.904 424.824 17.016 422.872 17.08 C 421.176 17.176 419.528 17.208 418.328 17.192 L 418.552 18.264 C 419.608 18.248 421.144 18.2 422.792 18.12 C 424.568 18.04 426.568 17.912 427.768 17.768 Z " fill-rule="evenodd" fill="rgb(0,0,0)"/><path d=" M 148.296 34.92 L 148.2 33.944 C 147.352 34.056 145.768 34.216 144.264 34.296 L 144.264 32.936 C 146.056 32.728 147.24 31.64 147.24 30.088 C 147.24 28.408 145.8 27.16 143.688 27.16 C 141.592 27.16 140.12 28.408 140.12 30.072 C 140.12 31.608 141.288 32.712 143.048 32.936 L 143.048 34.344 C 141.672 34.408 140.312 34.424 139.336 34.408 L 139.528 35.48 C 140.52 35.48 142.296 35.416 143.864 35.32 C 145.528 35.224 147.288 35.032 148.296 34.92 Z  M 152.472 32.344 L 152.472 31.32 L 150.36 31.32 L 150.36 26.536 L 149.128 26.536 L 149.128 37.096 L 150.36 37.096 L 150.36 32.344 L 152.472 32.344 Z  M 146.072 30.072 C 146.072 31.16 145.16 31.944 143.688 31.944 C 142.216 31.944 141.336 31.224 141.336 30.072 C 141.336 29.032 142.216 28.2 143.688 28.2 C 145.16 28.2 146.072 29 146.072 30.072 Z  M 150.728 40.216 L 150.728 39.208 L 142.696 39.208 L 142.696 36.392 L 141.48 36.392 L 141.48 40.216 L 150.728 40.216 Z  M 164.856 35 L 164.856 33.992 L 156.184 33.992 L 156.184 31.752 L 164.456 31.752 L 164.456 27.576 L 155 27.576 L 155 28.6 L 163.24 28.6 L 163.24 30.744 L 154.952 30.744 L 154.952 35 L 156.936 35 L 156.936 37.72 L 153.416 37.72 L 153.416 38.744 L 166.04 38.744 L 166.04 37.72 L 162.6 37.72 L 162.6 35 L 164.856 35 Z  M 158.152 35 L 161.4 35 L 161.4 37.72 L 158.152 37.72 L 158.152 35 Z  M 120.792 33.416 L 120.792 32.376 L 118.52 32.376 L 118.52 26.536 L 117.304 26.536 L 117.304 40.52 L 118.52 40.52 L 118.52 33.416 L 120.792 33.416 Z  M 116.504 36.984 L 116.408 35.976 C 115.16 36.168 113.4 36.296 111.72 36.376 L 111.72 31.992 L 110.488 31.992 L 110.488 36.408 C 109.448 36.44 108.2 36.424 107.432 36.424 L 107.608 37.496 C 108.776 37.496 110.328 37.448 111.736 37.384 C 113.096 37.304 115.16 37.16 116.504 36.984 Z  M 115.448 28.008 L 108.136 28.008 L 108.136 29.032 L 114.216 29.032 C 114.28 30.6 114.088 32.904 113.784 34.264 L 114.952 34.424 C 115.256 33.064 115.48 30.152 115.448 28.008 Z  M 131.736 33.16 L 131.736 40.52 L 132.952 40.52 L 132.952 26.536 L 131.736 26.536 L 131.736 32.12 L 128.568 32.12 L 128.568 33.16 L 131.736 33.16 Z  M 128.616 28.024 L 122.024 28.024 L 122.024 29.048 L 127.304 29.048 C 127.064 32.2 125.048 35.24 121.512 36.792 L 122.216 37.752 C 125.816 36.04 128.552 32.568 128.616 28.024 Z  M 68.856 40.536 L 68.856 35.464 L 74.584 35.464 L 74.584 34.44 L 61.96 34.44 L 61.96 35.464 L 67.64 35.464 L 67.64 40.536 L 68.856 40.536 Z  M 74.072 31.912 C 71.608 31.608 68.92 29.816 68.92 27.912 L 68.92 27.016 L 67.64 27.016 L 67.64 27.912 C 67.64 29.816 65.176 31.592 62.488 31.944 L 63.08 32.984 C 65.208 32.568 67.592 31.208 68.264 29.576 C 69.112 31.208 71.4 32.52 73.496 32.952 L 74.072 31.912 Z  M 86.92 38.072 C 86.92 36.488 85.176 35.64 82.104 35.64 C 79.048 35.64 77.32 36.552 77.32 38.072 C 77.32 39.624 79.048 40.52 82.104 40.52 C 85.176 40.52 86.92 39.64 86.92 38.072 Z  M 86.904 31.832 L 86.904 30.824 L 78.568 30.824 L 78.568 28.216 L 86.84 28.216 L 86.84 27.208 L 77.336 27.208 L 77.336 31.832 L 81.496 31.832 L 81.496 33.608 L 75.8 33.608 L 75.8 34.616 L 88.424 34.616 L 88.424 33.608 L 82.712 33.608 L 82.712 31.832 L 86.904 31.832 Z  M 82.104 36.632 C 84.328 36.632 85.672 37.176 85.672 38.072 C 85.672 39 84.328 39.512 82.104 39.512 C 79.912 39.512 78.568 39 78.568 38.072 C 78.568 37.176 79.912 36.632 82.104 36.632 Z  M 101.432 40.52 L 101.432 26.536 L 100.232 26.536 L 100.232 32.168 L 98.376 32.168 L 98.376 26.872 L 97.192 26.872 L 97.192 39.8 L 98.376 39.8 L 98.376 33.176 L 100.232 33.176 L 100.232 40.52 L 101.432 40.52 Z  M 91.4 35.992 L 91.4 32.872 L 95.48 32.872 L 95.48 31.896 L 91.4 31.896 L 91.4 29.128 L 95.656 29.128 L 95.656 28.12 L 90.168 28.12 L 90.168 37.016 L 90.936 37.016 C 93.432 37.016 95.112 36.888 96.44 36.6 L 96.28 35.608 C 95.192 35.864 93.48 35.992 91.912 35.992 L 91.4 35.992 Z  M 90.704 19.528 L 91.92 19.528 L 93.024 16.392 L 97.328 16.392 L 98.464 19.528 L 99.792 19.528 L 95.872 8.792 L 94.64 8.792 L 90.704 19.528 Z  M 95.152 10.488 L 95.184 10.488 L 96.928 15.32 L 93.392 15.32 L 95.152 10.488 Z  M 101.456 19.528 L 102.64 19.528 L 102.64 10.456 L 102.688 10.456 L 105.792 19.528 L 106.976 19.528 L 110.112 10.456 L 110.16 10.456 L 110.16 19.528 L 111.44 19.528 L 111.44 8.792 L 109.568 8.792 L 106.48 17.864 L 106.448 17.864 L 103.344 8.792 L 101.456 8.792 L 101.456 19.528 Z  M 118.272 19.704 C 121.216 19.704 122.992 17.672 122.992 14.296 L 122.992 14.04 C 122.992 10.52 121.216 8.616 118.32 8.616 C 115.36 8.616 113.584 10.648 113.584 14.024 L 113.584 14.28 C 113.584 17.8 115.36 19.704 118.272 19.704 Z  M 118.304 18.664 C 115.904 18.664 114.944 16.872 114.944 14.28 L 114.944 13.784 C 114.944 11.384 116.048 9.656 118.256 9.656 C 120.688 9.672 121.632 11.432 121.632 14.04 L 121.632 14.536 C 121.632 16.92 120.528 18.664 118.304 18.664 Z  M 134.64 7.336 L 134.64 21.32 L 135.856 21.32 L 135.856 7.336 L 134.64 7.336 Z  M 132.432 11.752 C 132.432 9.704 130.864 8.424 128.8 8.424 C 126.768 8.424 125.152 9.784 125.152 11.752 C 125.152 13.624 126.736 15 128.8 15 C 130.816 15 132.432 13.736 132.432 11.752 Z  M 131.248 11.752 C 131.248 13.064 130.128 13.976 128.8 13.976 C 127.44 13.976 126.336 13.048 126.336 11.752 C 126.336 10.44 127.456 9.464 128.8 9.464 C 130.16 9.464 131.248 10.344 131.248 11.752 Z  M 133.824 17.768 L 133.712 16.776 C 132.688 16.904 130.88 17.016 128.928 17.08 C 127.232 17.176 125.584 17.208 124.384 17.192 L 124.608 18.264 C 125.664 18.248 127.2 18.2 128.848 18.12 C 130.624 18.04 132.624 17.912 133.824 17.768 Z " fill-rule="evenodd" fill="rgb(0,0,0)"/><path d=" M 363.8 80.35 L 363.8 81.7 L 359.72 81.7 L 359.72 86 L 358.27 86 L 358.27 81.7 L 354.21 81.7 L 354.21 80.35 L 358.27 80.35 L 358.27 76.08 L 359.72 76.08 L 359.72 80.35 L 363.8 80.35 L 363.8 80.35 Z " fill="rgb(0,0,0)"/><path d=" M 214.7 83.35 L 214.7 82 L 223.3 82 L 223.3 83.35 L 214.7 83.35 L 214.7 83.35 Z  M 214.7 80 L 214.7 78.65 L 223.3 78.65 L 223.3 80 L 214.7 80 L 214.7 80 Z " fill-rule="evenodd" fill="rgb(0,0,0)"/><path d=" M 302.968 33.416 L 302.968 32.376 L 300.696 32.376 L 300.696 26.536 L 299.48 26.536 L 299.48 40.52 L 300.696 40.52 L 300.696 33.416 L 302.968 33.416 Z  M 298.68 36.984 L 298.584 35.976 C 297.336 36.168 295.576 36.296 293.896 36.376 L 293.896 31.992 L 292.664 31.992 L 292.664 36.408 C 291.624 36.44 290.376 36.424 289.608 36.424 L 289.784 37.496 C 290.952 37.496 292.504 37.448 293.912 37.384 C 295.272 37.304 297.336 37.16 298.68 36.984 Z  M 297.624 28.008 L 290.312 28.008 L 290.312 29.032 L 296.392 29.032 C 296.456 30.6 296.264 32.904 295.96 34.264 L 297.128 34.424 C 297.432 33.064 297.656 30.152 297.624 28.008 Z  M 313.912 33.16 L 313.912 40.52 L 315.128 40.52 L 315.128 26.536 L 313.912 26.536 L 313.912 32.12 L 310.744 32.12 L 310.744 33.16 L 313.912 33.16 Z  M 310.792 28.024 L 304.2 28.024 L 304.2 29.048 L 309.48 29.048 C 309.24 32.2 307.224 35.24 303.688 36.792 L 304.392 37.752 C 307.992 36.04 310.728 32.568 310.792 28.024 Z  M 328.568 32.328 L 328.568 26.984 L 327.336 26.984 L 327.336 28.712 L 320.344 28.712 L 320.344 26.984 L 319.128 26.984 L 319.128 32.328 L 328.568 32.328 Z  M 324.44 37.592 L 324.44 34.904 L 330.168 34.904 L 330.168 33.896 L 317.544 33.896 L 317.544 34.904 L 323.224 34.904 L 323.224 37.592 L 324.44 37.592 Z  M 328.76 40.072 L 328.76 39.064 L 320.36 39.064 L 320.36 36.28 L 319.144 36.28 L 319.144 40.072 L 328.76 40.072 Z  M 327.336 31.304 L 320.344 31.304 L 320.344 29.72 L 327.336 29.72 L 327.336 31.304 Z  M 344.392 33.208 L 344.392 32.184 L 342.136 32.184 L 342.136 26.536 L 340.92 26.536 L 340.92 40.52 L 342.136 40.52 L 342.136 33.208 L 344.392 33.208 Z  M 339.592 36.184 C 337.656 35.048 335.896 32.76 335.896 30.216 L 335.896 27.768 L 334.648 27.768 L 334.648 30.248 C 334.648 32.728 333 35.24 330.968 36.488 L 331.752 37.432 C 333.4 36.28 334.76 34.504 335.256 32.76 C 335.816 34.456 337.384 36.12 338.824 37.112 L 339.592 36.184 Z  M 237.064 40.36 L 238.168 40.36 C 236.744 38.76 235.592 36.312 235.592 33.848 L 235.592 33.464 C 235.592 30.92 236.744 28.632 238.168 27.048 L 237.064 27.048 C 235.592 28.552 234.296 30.728 234.296 33.576 L 234.296 33.832 C 234.296 36.664 235.592 38.856 237.064 40.36 Z  M 245.96 40.536 L 245.96 35.464 L 251.688 35.464 L 251.688 34.44 L 239.064 34.44 L 239.064 35.464 L 244.744 35.464 L 244.744 40.536 L 245.96 40.536 Z  M 251.176 31.912 C 248.712 31.608 246.024 29.816 246.024 27.912 L 246.024 27.016 L 244.744 27.016 L 244.744 27.912 C 244.744 29.816 242.28 31.592 239.592 31.944 L 240.184 32.984 C 242.312 32.568 244.696 31.208 245.368 29.576 C 246.216 31.208 248.504 32.52 250.6 32.952 L 251.176 31.912 Z  M 264.024 38.072 C 264.024 36.488 262.28 35.64 259.208 35.64 C 256.152 35.64 254.424 36.552 254.424 38.072 C 254.424 39.624 256.152 40.52 259.208 40.52 C 262.28 40.52 264.024 39.64 264.024 38.072 Z  M 264.008 31.832 L 264.008 30.824 L 255.672 30.824 L 255.672 28.216 L 263.944 28.216 L 263.944 27.208 L 254.44 27.208 L 254.44 31.832 L 258.6 31.832 L 258.6 33.608 L 252.904 33.608 L 252.904 34.616 L 265.528 34.616 L 265.528 33.608 L 259.816 33.608 L 259.816 31.832 L 264.008 31.832 Z  M 259.208 36.632 C 261.432 36.632 262.776 37.176 262.776 38.072 C 262.776 39 261.432 39.512 259.208 39.512 C 257.016 39.512 255.672 39 255.672 38.072 C 255.672 37.176 257.016 36.632 259.208 36.632 Z  M 278.536 40.52 L 278.536 26.536 L 277.336 26.536 L 277.336 32.168 L 275.48 32.168 L 275.48 26.872 L 274.296 26.872 L 274.296 39.8 L 275.48 39.8 L 275.48 33.176 L 277.336 33.176 L 277.336 40.52 L 278.536 40.52 Z  M 268.504 35.992 L 268.504 32.872 L 272.584 32.872 L 272.584 31.896 L 268.504 31.896 L 268.504 29.128 L 272.76 29.128 L 272.76 28.12 L 267.272 28.12 L 267.272 37.016 L 268.04 37.016 C 270.536 37.016 272.216 36.888 273.544 36.6 L 273.384 35.608 C 272.296 35.864 270.584 35.992 269.016 35.992 L 268.504 35.992 Z  M 280.264 40.36 L 281.352 40.36 C 282.84 38.856 284.104 36.68 284.104 33.832 L 284.104 33.576 C 284.104 30.744 282.84 28.552 281.352 27.048 L 280.264 27.048 C 281.672 28.648 282.84 31.096 282.84 33.56 L 282.84 33.96 C 282.84 36.488 281.672 38.776 280.264 40.36 Z  M 265.704 19.528 L 266.92 19.528 L 268.024 16.392 L 272.328 16.392 L 273.464 19.528 L 274.792 19.528 L 270.872 8.792 L 269.64 8.792 L 265.704 19.528 Z  M 270.152 10.488 L 270.184 10.488 L 271.928 15.32 L 268.392 15.32 L 270.152 10.488 Z  M 276.456 19.528 L 277.64 19.528 L 277.64 10.456 L 277.688 10.456 L 280.792 19.528 L 281.976 19.528 L 285.112 10.456 L 285.16 10.456 L 285.16 19.528 L 286.44 19.528 L 286.44 8.792 L 284.568 8.792 L 281.48 17.864 L 281.448 17.864 L 278.344 8.792 L 276.456 8.792 L 276.456 19.528 Z  M 293.272 19.704 C 296.216 19.704 297.992 17.672 297.992 14.296 L 297.992 14.04 C 297.992 10.52 296.216 8.616 293.32 8.616 C 290.36 8.616 288.584 10.648 288.584 14.024 L 288.584 14.28 C 288.584 17.8 290.36 19.704 293.272 19.704 Z  M 293.304 18.664 C 290.904 18.664 289.944 16.872 289.944 14.28 L 289.944 13.784 C 289.944 11.384 291.048 9.656 293.256 9.656 C 295.688 9.672 296.632 11.432 296.632 14.04 L 296.632 14.536 C 296.632 16.92 295.528 18.664 293.304 18.664 Z  M 309.64 7.336 L 309.64 21.32 L 310.856 21.32 L 310.856 7.336 L 309.64 7.336 Z  M 307.432 11.752 C 307.432 9.704 305.864 8.424 303.8 8.424 C 301.768 8.424 300.152 9.784 300.152 11.752 C 300.152 13.624 301.736 15 303.8 15 C 305.816 15 307.432 13.736 307.432 11.752 Z  M 306.248 11.752 C 306.248 13.064 305.128 13.976 303.8 13.976 C 302.44 13.976 301.336 13.048 301.336 11.752 C 301.336 10.44 302.456 9.464 303.8 9.464 C 305.16 9.464 306.248 10.344 306.248 11.752 Z  M 308.824 17.768 L 308.712 16.776 C 307.688 16.904 305.88 17.016 303.928 17.08 C 302.232 17.176 300.584 17.208 299.384 17.192 L 299.608 18.264 C 300.664 18.248 302.2 18.2 303.848 18.12 C 305.624 18.04 307.624 17.912 308.824 17.768 Z " fill-rule="evenodd" fill="rgb(0,0,0)"/><path d=" M 230 50 L 350 50 L 350 110 L 230 110 L 230 50 Z " fill="rgb(235,235,235)"/><path d=" M 20 50 L 210 50 L 210 110 L 20 110 L 20 50 Z " fill="none" vector-effect="non-scaling-stroke" stroke-width="1" stroke-dasharray="1,2" stroke="rgb(0,0,0)" stroke-linejoin="miter" stroke-linecap="square" stroke-miterlimit="3"/><path d=" M 247.838 82.662 L 253.723 82.662 L 251.248 76.249 L 251.248 76.249 Q 251.138 75.963 251.017 75.583 L 251.017 75.583 L 251.017 75.583 Q 250.896 75.204 250.786 74.775 L 250.786 74.775 L 250.786 74.775 Q 250.555 75.666 250.313 76.26 L 250.313 76.26 L 247.838 82.662 L 247.838 82.662 Z  M 251.864 72.751 L 258.167 88.514 L 256.517 88.514 L 256.517 88.514 Q 256.231 88.514 256.055 88.371 L 256.055 88.371 L 256.055 88.371 Q 255.879 88.228 255.791 88.008 L 255.791 88.008 L 254.317 84.202 L 247.244 84.202 L 245.77 88.008 L 245.77 88.008 Q 245.704 88.206 245.517 88.36 L 245.517 88.36 L 245.517 88.36 Q 245.33 88.514 245.055 88.514 L 245.055 88.514 L 243.405 88.514 L 249.708 72.751 L 251.864 72.751 L 251.864 72.751 Z  M 275.074 72.751 L 276.647 72.751 L 276.647 88.514 L 274.777 88.514 L 274.777 76.931 L 274.777 76.931 Q 274.777 76.7 274.794 76.436 L 274.794 76.436 L 274.794 76.436 Q 274.81 76.172 274.832 75.897 L 274.832 75.897 L 269.42 85.753 L 269.42 85.753 Q 269.167 86.248 268.65 86.248 L 268.65 86.248 L 268.342 86.248 L 268.342 86.248 Q 267.825 86.248 267.572 85.753 L 267.572 85.753 L 262.05 75.853 L 262.05 75.853 Q 262.116 76.436 262.116 76.931 L 262.116 76.931 L 262.116 88.514 L 260.246 88.514 L 260.246 72.751 L 261.819 72.751 L 261.819 72.751 Q 262.105 72.751 262.259 72.806 L 262.259 72.806 L 262.259 72.806 Q 262.413 72.861 262.556 73.114 L 262.556 73.114 L 268.001 82.816 L 268.001 82.816 Q 268.133 83.08 268.259 83.366 L 268.259 83.366 L 268.259 83.366 Q 268.386 83.652 268.496 83.949 L 268.496 83.949 L 268.496 83.949 Q 268.606 83.652 268.727 83.36 L 268.727 83.36 L 268.727 83.36 Q 268.848 83.069 268.991 82.805 L 268.991 82.805 L 274.337 73.114 L 274.337 73.114 Q 274.469 72.861 274.629 72.806 L 274.629 72.806 L 274.629 72.806 Q 274.788 72.751 275.074 72.751 L 275.074 72.751 L 275.074 72.751 Z  M 283.159 82.662 L 289.044 82.662 L 286.569 76.249 L 286.569 76.249 Q 286.459 75.963 286.338 75.583 L 286.338 75.583 L 286.338 75.583 Q 286.217 75.204 286.107 74.775 L 286.107 74.775 L 286.107 74.775 Q 285.876 75.666 285.634 76.26 L 285.634 76.26 L 283.159 82.662 L 283.159 82.662 Z  M 287.185 72.751 L 293.488 88.514 L 291.838 88.514 L 291.838 88.514 Q 291.552 88.514 291.376 88.371 L 291.376 88.371 L 291.376 88.371 Q 291.2 88.228 291.112 88.008 L 291.112 88.008 L 289.638 84.202 L 282.565 84.202 L 281.091 88.008 L 281.091 88.008 Q 281.025 88.206 280.838 88.36 L 280.838 88.36 L 280.838 88.36 Q 280.651 88.514 280.376 88.514 L 280.376 88.514 L 278.726 88.514 L 285.029 72.751 L 287.185 72.751 L 287.185 72.751 Z  M 306.226 72.751 L 306.226 74.544 L 301.122 74.544 L 301.122 88.514 L 298.999 88.514 L 298.999 74.544 L 293.884 74.544 L 293.884 72.751 L 306.226 72.751 L 306.226 72.751 Z  M 314.641 86.82 L 314.641 86.82 L 314.641 86.82 Q 315.62 86.82 316.39 86.49 L 316.39 86.49 L 316.39 86.49 Q 317.16 86.16 317.694 85.566 L 317.694 85.566 L 317.694 85.566 Q 318.227 84.972 318.507 84.147 L 318.507 84.147 L 318.507 84.147 Q 318.788 83.322 318.788 82.332 L 318.788 82.332 L 318.788 72.751 L 320.911 72.751 L 320.911 82.332 L 320.911 82.332 Q 320.911 83.696 320.477 84.862 L 320.477 84.862 L 320.477 84.862 Q 320.042 86.028 319.233 86.88 L 319.233 86.88 L 319.233 86.88 Q 318.425 87.733 317.259 88.217 L 317.259 88.217 L 317.259 88.217 Q 316.093 88.701 314.641 88.701 L 314.641 88.701 L 314.641 88.701 Q 313.189 88.701 312.023 88.217 L 312.023 88.217 L 312.023 88.217 Q 310.857 87.733 310.043 86.88 L 310.043 86.88 L 310.043 86.88 Q 309.229 86.028 308.795 84.862 L 308.795 84.862 L 308.795 84.862 Q 308.36 83.696 308.36 82.332 L 308.36 82.332 L 308.36 72.751 L 310.483 72.751 L 310.483 82.321 L 310.483 82.321 Q 310.483 83.311 310.763 84.136 L 310.763 84.136 L 310.763 84.136 Q 311.044 84.961 311.578 85.555 L 311.578 85.555 L 311.578 85.555 Q 312.111 86.149 312.886 86.484 L 312.886 86.484 L 312.886 86.484 Q 313.662 86.82 314.641 86.82 Z  M 333.319 74.203 L 332.802 75.215 L 332.802 75.215 Q 332.703 75.38 332.588 75.462 L 332.588 75.462 L 332.588 75.462 Q 332.472 75.545 332.307 75.545 L 332.307 75.545 L 332.307 75.545 Q 332.12 75.545 331.867 75.358 L 331.867 75.358 L 331.867 75.358 Q 331.614 75.171 331.234 74.945 L 331.234 74.945 L 331.234 74.945 Q 330.855 74.72 330.321 74.533 L 330.321 74.533 L 330.321 74.533 Q 329.788 74.346 329.029 74.346 L 329.029 74.346 L 329.029 74.346 Q 328.314 74.346 327.769 74.538 L 327.769 74.538 L 327.769 74.538 Q 327.225 74.731 326.857 75.061 L 326.857 75.061 L 326.857 75.061 Q 326.488 75.391 326.301 75.836 L 326.301 75.836 L 326.301 75.836 Q 326.114 76.282 326.114 76.799 L 326.114 76.799 L 326.114 76.799 Q 326.114 77.459 326.439 77.893 L 326.439 77.893 L 326.439 77.893 Q 326.763 78.328 327.296 78.636 L 327.296 78.636 L 327.296 78.636 Q 327.83 78.944 328.506 79.169 L 328.506 79.169 L 328.506 79.169 Q 329.183 79.395 329.892 79.637 L 329.892 79.637 L 329.892 79.637 Q 330.602 79.879 331.278 80.181 L 331.278 80.181 L 331.278 80.181 Q 331.955 80.484 332.488 80.946 L 332.488 80.946 L 332.488 80.946 Q 333.022 81.408 333.347 82.079 L 333.347 82.079 L 333.347 82.079 Q 333.671 82.75 333.671 83.729 L 333.671 83.729 L 333.671 83.729 Q 333.671 84.763 333.319 85.67 L 333.319 85.67 L 333.319 85.67 Q 332.967 86.578 332.29 87.249 L 332.29 87.249 L 332.29 87.249 Q 331.614 87.92 330.629 88.305 L 330.629 88.305 L 330.629 88.305 Q 329.645 88.69 328.391 88.69 L 328.391 88.69 L 328.391 88.69 Q 326.851 88.69 325.597 88.134 L 325.597 88.134 L 325.597 88.134 Q 324.343 87.579 323.452 86.633 L 323.452 86.633 L 324.068 85.621 L 324.068 85.621 Q 324.156 85.5 324.282 85.417 L 324.282 85.417 L 324.282 85.417 Q 324.409 85.335 324.563 85.335 L 324.563 85.335 L 324.563 85.335 Q 324.706 85.335 324.887 85.45 L 324.887 85.45 L 324.887 85.45 Q 325.069 85.566 325.3 85.742 L 325.3 85.742 L 325.3 85.742 Q 325.531 85.918 325.828 86.127 L 325.828 86.127 L 325.828 86.127 Q 326.125 86.336 326.504 86.512 L 326.504 86.512 L 326.504 86.512 Q 326.884 86.688 327.368 86.803 L 327.368 86.803 L 327.368 86.803 Q 327.852 86.919 328.457 86.919 L 328.457 86.919 L 328.457 86.919 Q 329.216 86.919 329.81 86.71 L 329.81 86.71 L 329.81 86.71 Q 330.404 86.501 330.816 86.121 L 330.816 86.121 L 330.816 86.121 Q 331.229 85.742 331.449 85.214 L 331.449 85.214 L 331.449 85.214 Q 331.669 84.686 331.669 84.037 L 331.669 84.037 L 331.669 84.037 Q 331.669 83.322 331.344 82.865 L 331.344 82.865 L 331.344 82.865 Q 331.02 82.409 330.492 82.101 L 330.492 82.101 L 330.492 82.101 Q 329.964 81.793 329.282 81.578 L 329.282 81.578 L 329.282 81.578 Q 328.6 81.364 327.896 81.138 L 327.896 81.138 L 327.896 81.138 Q 327.192 80.913 326.51 80.616 L 326.51 80.616 L 326.51 80.616 Q 325.828 80.319 325.3 79.846 L 325.3 79.846 L 325.3 79.846 Q 324.772 79.373 324.448 78.663 L 324.448 78.663 L 324.448 78.663 Q 324.123 77.954 324.123 76.909 L 324.123 76.909 L 324.123 76.909 Q 324.123 76.073 324.448 75.292 L 324.448 75.292 L 324.448 75.292 Q 324.772 74.511 325.393 73.906 L 325.393 73.906 L 325.393 73.906 Q 326.015 73.301 326.922 72.938 L 326.922 72.938 L 326.922 72.938 Q 327.83 72.575 329.007 72.575 L 329.007 72.575 L 329.007 72.575 Q 330.327 72.575 331.41 72.993 L 331.41 72.993 L 331.41 72.993 Q 332.494 73.411 333.319 74.203 L 333.319 74.203 L 333.319 74.203 Z " fill-rule="evenodd" fill="rgb(0,0,0)"/><path d=" M 145.598 86.776 L 153.188 86.776 L 153.177 88.514 L 143.464 88.514 L 143.464 72.751 L 153.177 72.751 L 153.177 74.489 L 145.598 74.489 L 145.598 79.725 L 151.736 79.725 L 151.736 81.397 L 145.598 81.397 L 145.598 86.776 L 145.598 86.776 Z  M 158.292 80.385 L 160.536 80.385 L 160.536 80.385 Q 161.46 80.385 162.169 80.159 L 162.169 80.159 L 162.169 80.159 Q 162.879 79.934 163.357 79.521 L 163.357 79.521 L 163.357 79.521 Q 163.836 79.109 164.078 78.537 L 164.078 78.537 L 164.078 78.537 Q 164.32 77.965 164.32 77.272 L 164.32 77.272 L 164.32 77.272 Q 164.32 75.864 163.396 75.149 L 163.396 75.149 L 163.396 75.149 Q 162.472 74.434 160.624 74.434 L 160.624 74.434 L 158.292 74.434 L 158.292 80.385 L 158.292 80.385 Z  M 163.22 82.255 L 167.818 88.514 L 165.926 88.514 L 165.926 88.514 Q 165.343 88.514 165.068 88.063 L 165.068 88.063 L 160.976 82.431 L 160.976 82.431 Q 160.789 82.167 160.574 82.051 L 160.574 82.051 L 160.574 82.051 Q 160.36 81.936 159.909 81.936 L 159.909 81.936 L 158.292 81.936 L 158.292 88.514 L 156.169 88.514 L 156.169 72.751 L 160.624 72.751 L 160.624 72.751 Q 162.12 72.751 163.209 73.053 L 163.209 73.053 L 163.209 73.053 Q 164.298 73.356 165.007 73.928 L 165.007 73.928 L 165.007 73.928 Q 165.717 74.5 166.058 75.308 L 166.058 75.308 L 166.058 75.308 Q 166.399 76.117 166.399 77.118 L 166.399 77.118 L 166.399 77.118 Q 166.399 77.954 166.135 78.68 L 166.135 78.68 L 166.135 78.68 Q 165.871 79.406 165.37 79.983 L 165.37 79.983 L 165.37 79.983 Q 164.87 80.561 164.149 80.968 L 164.149 80.968 L 164.149 80.968 Q 163.429 81.375 162.516 81.584 L 162.516 81.584 L 162.516 81.584 Q 162.923 81.815 163.22 82.255 L 163.22 82.255 L 163.22 82.255 Z  M 172.438 82.662 L 178.323 82.662 L 175.848 76.249 L 175.848 76.249 Q 175.738 75.963 175.617 75.583 L 175.617 75.583 L 175.617 75.583 Q 175.496 75.204 175.386 74.775 L 175.386 74.775 L 175.386 74.775 Q 175.155 75.666 174.913 76.26 L 174.913 76.26 L 172.438 82.662 L 172.438 82.662 Z  M 176.464 72.751 L 182.767 88.514 L 181.117 88.514 L 181.117 88.514 Q 180.831 88.514 180.655 88.371 L 180.655 88.371 L 180.655 88.371 Q 180.479 88.228 180.391 88.008 L 180.391 88.008 L 178.917 84.202 L 171.844 84.202 L 170.37 88.008 L 170.37 88.008 Q 170.304 88.206 170.117 88.36 L 170.117 88.36 L 170.117 88.36 Q 169.93 88.514 169.655 88.514 L 169.655 88.514 L 168.005 88.514 L 174.308 72.751 L 176.464 72.751 L 176.464 72.751 Z  M 193.426 74.203 L 192.909 75.215 L 192.909 75.215 Q 192.81 75.38 192.694 75.462 L 192.694 75.462 L 192.694 75.462 Q 192.579 75.545 192.414 75.545 L 192.414 75.545 L 192.414 75.545 Q 192.227 75.545 191.974 75.358 L 191.974 75.358 L 191.974 75.358 Q 191.721 75.171 191.341 74.945 L 191.341 74.945 L 191.341 74.945 Q 190.962 74.72 190.428 74.533 L 190.428 74.533 L 190.428 74.533 Q 189.895 74.346 189.136 74.346 L 189.136 74.346 L 189.136 74.346 Q 188.421 74.346 187.876 74.538 L 187.876 74.538 L 187.876 74.538 Q 187.332 74.731 186.963 75.061 L 186.963 75.061 L 186.963 75.061 Q 186.595 75.391 186.408 75.836 L 186.408 75.836 L 186.408 75.836 Q 186.221 76.282 186.221 76.799 L 186.221 76.799 L 186.221 76.799 Q 186.221 77.459 186.545 77.893 L 186.545 77.893 L 186.545 77.893 Q 186.87 78.328 187.403 78.636 L 187.403 78.636 L 187.403 78.636 Q 187.937 78.944 188.613 79.169 L 188.613 79.169 L 188.613 79.169 Q 189.29 79.395 189.999 79.637 L 189.999 79.637 L 189.999 79.637 Q 190.709 79.879 191.385 80.181 L 191.385 80.181 L 191.385 80.181 Q 192.062 80.484 192.595 80.946 L 192.595 80.946 L 192.595 80.946 Q 193.129 81.408 193.453 82.079 L 193.453 82.079 L 193.453 82.079 Q 193.778 82.75 193.778 83.729 L 193.778 83.729 L 193.778 83.729 Q 193.778 84.763 193.426 85.67 L 193.426 85.67 L 193.426 85.67 Q 193.074 86.578 192.397 87.249 L 192.397 87.249 L 192.397 87.249 Q 191.721 87.92 190.736 88.305 L 190.736 88.305 L 190.736 88.305 Q 189.752 88.69 188.498 88.69 L 188.498 88.69 L 188.498 88.69 Q 186.958 88.69 185.704 88.134 L 185.704 88.134 L 185.704 88.134 Q 184.45 87.579 183.559 86.633 L 183.559 86.633 L 184.175 85.621 L 184.175 85.621 Q 184.263 85.5 184.389 85.417 L 184.389 85.417 L 184.389 85.417 Q 184.516 85.335 184.67 85.335 L 184.67 85.335 L 184.67 85.335 Q 184.813 85.335 184.994 85.45 L 184.994 85.45 L 184.994 85.45 Q 185.176 85.566 185.407 85.742 L 185.407 85.742 L 185.407 85.742 Q 185.638 85.918 185.935 86.127 L 185.935 86.127 L 185.935 86.127 Q 186.232 86.336 186.611 86.512 L 186.611 86.512 L 186.611 86.512 Q 186.991 86.688 187.475 86.803 L 187.475 86.803 L 187.475 86.803 Q 187.959 86.919 188.564 86.919 L 188.564 86.919 L 188.564 86.919 Q 189.323 86.919 189.917 86.71 L 189.917 86.71 L 189.917 86.71 Q 190.511 86.501 190.923 86.121 L 190.923 86.121 L 190.923 86.121 Q 191.336 85.742 191.556 85.214 L 191.556 85.214 L 191.556 85.214 Q 191.776 84.686 191.776 84.037 L 191.776 84.037 L 191.776 84.037 Q 191.776 83.322 191.451 82.865 L 191.451 82.865 L 191.451 82.865 Q 191.127 82.409 190.599 82.101 L 190.599 82.101 L 190.599 82.101 Q 190.071 81.793 189.389 81.578 L 189.389 81.578 L 189.389 81.578 Q 188.707 81.364 188.003 81.138 L 188.003 81.138 L 188.003 81.138 Q 187.299 80.913 186.617 80.616 L 186.617 80.616 L 186.617 80.616 Q 185.935 80.319 185.407 79.846 L 185.407 79.846 L 185.407 79.846 Q 184.879 79.373 184.554 78.663 L 184.554 78.663 L 184.554 78.663 Q 184.23 77.954 184.23 76.909 L 184.23 76.909 L 184.23 76.909 Q 184.23 76.073 184.554 75.292 L 184.554 75.292 L 184.554 75.292 Q 184.879 74.511 185.5 73.906 L 185.5 73.906 L 185.5 73.906 Q 186.122 73.301 187.029 72.938 L 187.029 72.938 L 187.029 72.938 Q 187.937 72.575 189.114 72.575 L 189.114 72.575 L 189.114 72.575 Q 190.434 72.575 191.517 72.993 L 191.517 72.993 L 191.517 72.993 Q 192.601 73.411 193.426 74.203 L 193.426 74.203 L 193.426 74.203 Z  M 37.732 82.662 L 43.617 82.662 L 41.142 76.249 L 41.142 76.249 Q 41.032 75.963 40.911 75.583 L 40.911 75.583 L 40.911 75.583 Q 40.79 75.204 40.68 74.775 L 40.68 74.775 L 40.68 74.775 Q 40.449 75.666 40.207 76.26 L 40.207 76.26 L 37.732 82.662 L 37.732 82.662 Z  M 41.758 72.751 L 48.061 88.514 L 46.411 88.514 L 46.411 88.514 Q 46.125 88.514 45.949 88.371 L 45.949 88.371 L 45.949 88.371 Q 45.773 88.228 45.685 88.008 L 45.685 88.008 L 44.211 84.202 L 37.138 84.202 L 35.664 88.008 L 35.664 88.008 Q 35.598 88.206 35.411 88.36 L 35.411 88.36 L 35.411 88.36 Q 35.224 88.514 34.949 88.514 L 34.949 88.514 L 33.299 88.514 L 39.602 72.751 L 41.758 72.751 L 41.758 72.751 Z  M 64.968 72.751 L 66.541 72.751 L 66.541 88.514 L 64.671 88.514 L 64.671 76.931 L 64.671 76.931 Q 64.671 76.7 64.687 76.436 L 64.687 76.436 L 64.687 76.436 Q 64.703 76.172 64.726 75.897 L 64.726 75.897 L 59.314 85.753 L 59.314 85.753 Q 59.061 86.248 58.544 86.248 L 58.544 86.248 L 58.236 86.248 L 58.236 86.248 Q 57.719 86.248 57.466 85.753 L 57.466 85.753 L 51.944 75.853 L 51.944 75.853 Q 52.01 76.436 52.01 76.931 L 52.01 76.931 L 52.01 88.514 L 50.14 88.514 L 50.14 72.751 L 51.713 72.751 L 51.713 72.751 Q 51.999 72.751 52.153 72.806 L 52.153 72.806 L 52.153 72.806 Q 52.307 72.861 52.45 73.114 L 52.45 73.114 L 57.895 82.816 L 57.895 82.816 Q 58.027 83.08 58.153 83.366 L 58.153 83.366 L 58.153 83.366 Q 58.28 83.652 58.39 83.949 L 58.39 83.949 L 58.39 83.949 Q 58.5 83.652 58.621 83.36 L 58.621 83.36 L 58.621 83.36 Q 58.742 83.069 58.885 82.805 L 58.885 82.805 L 64.231 73.114 L 64.231 73.114 Q 64.363 72.861 64.522 72.806 L 64.522 72.806 L 64.522 72.806 Q 64.682 72.751 64.968 72.751 L 64.968 72.751 L 64.968 72.751 Z  M 73.053 82.662 L 78.938 82.662 L 76.463 76.249 L 76.463 76.249 Q 76.352 75.963 76.232 75.583 L 76.232 75.583 L 76.232 75.583 Q 76.111 75.204 76.001 74.775 L 76.001 74.775 L 76.001 74.775 Q 75.77 75.666 75.528 76.26 L 75.528 76.26 L 73.053 82.662 L 73.053 82.662 Z  M 77.078 72.751 L 83.382 88.514 L 81.732 88.514 L 81.732 88.514 Q 81.446 88.514 81.27 88.371 L 81.27 88.371 L 81.27 88.371 Q 81.094 88.228 81.006 88.008 L 81.006 88.008 L 79.532 84.202 L 72.459 84.202 L 70.985 88.008 L 70.985 88.008 Q 70.919 88.206 70.732 88.36 L 70.732 88.36 L 70.732 88.36 Q 70.545 88.514 70.27 88.514 L 70.27 88.514 L 68.62 88.514 L 74.923 72.751 L 77.078 72.751 L 77.078 72.751 Z  M 96.12 72.751 L 96.12 74.544 L 91.016 74.544 L 91.016 88.514 L 88.893 88.514 L 88.893 74.544 L 83.778 74.544 L 83.778 72.751 L 96.12 72.751 L 96.12 72.751 Z  M 104.535 86.82 L 104.535 86.82 L 104.535 86.82 Q 105.514 86.82 106.284 86.49 L 106.284 86.49 L 106.284 86.49 Q 107.054 86.16 107.587 85.566 L 107.587 85.566 L 107.587 85.566 Q 108.121 84.972 108.401 84.147 L 108.401 84.147 L 108.401 84.147 Q 108.682 83.322 108.682 82.332 L 108.682 82.332 L 108.682 72.751 L 110.805 72.751 L 110.805 82.332 L 110.805 82.332 Q 110.805 83.696 110.37 84.862 L 110.37 84.862 L 110.37 84.862 Q 109.936 86.028 109.127 86.88 L 109.127 86.88 L 109.127 86.88 Q 108.319 87.733 107.153 88.217 L 107.153 88.217 L 107.153 88.217 Q 105.987 88.701 104.535 88.701 L 104.535 88.701 L 104.535 88.701 Q 103.083 88.701 101.917 88.217 L 101.917 88.217 L 101.917 88.217 Q 100.751 87.733 99.937 86.88 L 99.937 86.88 L 99.937 86.88 Q 99.123 86.028 98.688 84.862 L 98.688 84.862 L 98.688 84.862 Q 98.254 83.696 98.254 82.332 L 98.254 82.332 L 98.254 72.751 L 100.377 72.751 L 100.377 82.321 L 100.377 82.321 Q 100.377 83.311 100.657 84.136 L 100.657 84.136 L 100.657 84.136 Q 100.938 84.961 101.471 85.555 L 101.471 85.555 L 101.471 85.555 Q 102.005 86.149 102.78 86.484 L 102.78 86.484 L 102.78 86.484 Q 103.556 86.82 104.535 86.82 Z  M 123.213 74.203 L 122.696 75.215 L 122.696 75.215 Q 122.597 75.38 122.481 75.462 L 122.481 75.462 L 122.481 75.462 Q 122.366 75.545 122.201 75.545 L 122.201 75.545 L 122.201 75.545 Q 122.014 75.545 121.761 75.358 L 121.761 75.358 L 121.761 75.358 Q 121.508 75.171 121.128 74.945 L 121.128 74.945 L 121.128 74.945 Q 120.749 74.72 120.215 74.533 L 120.215 74.533 L 120.215 74.533 Q 119.682 74.346 118.923 74.346 L 118.923 74.346 L 118.923 74.346 Q 118.208 74.346 117.663 74.538 L 117.663 74.538 L 117.663 74.538 Q 117.119 74.731 116.75 75.061 L 116.75 75.061 L 116.75 75.061 Q 116.382 75.391 116.195 75.836 L 116.195 75.836 L 116.195 75.836 Q 116.008 76.282 116.008 76.799 L 116.008 76.799 L 116.008 76.799 Q 116.008 77.459 116.332 77.893 L 116.332 77.893 L 116.332 77.893 Q 116.657 78.328 117.19 78.636 L 117.19 78.636 L 117.19 78.636 Q 117.724 78.944 118.4 79.169 L 118.4 79.169 L 118.4 79.169 Q 119.077 79.395 119.786 79.637 L 119.786 79.637 L 119.786 79.637 Q 120.496 79.879 121.172 80.181 L 121.172 80.181 L 121.172 80.181 Q 121.849 80.484 122.382 80.946 L 122.382 80.946 L 122.382 80.946 Q 122.916 81.408 123.24 82.079 L 123.24 82.079 L 123.24 82.079 Q 123.565 82.75 123.565 83.729 L 123.565 83.729 L 123.565 83.729 Q 123.565 84.763 123.213 85.67 L 123.213 85.67 L 123.213 85.67 Q 122.861 86.578 122.184 87.249 L 122.184 87.249 L 122.184 87.249 Q 121.508 87.92 120.523 88.305 L 120.523 88.305 L 120.523 88.305 Q 119.539 88.69 118.285 88.69 L 118.285 88.69 L 118.285 88.69 Q 116.745 88.69 115.491 88.134 L 115.491 88.134 L 115.491 88.134 Q 114.237 87.579 113.346 86.633 L 113.346 86.633 L 113.962 85.621 L 113.962 85.621 Q 114.05 85.5 114.176 85.417 L 114.176 85.417 L 114.176 85.417 Q 114.303 85.335 114.457 85.335 L 114.457 85.335 L 114.457 85.335 Q 114.6 85.335 114.781 85.45 L 114.781 85.45 L 114.781 85.45 Q 114.963 85.566 115.194 85.742 L 115.194 85.742 L 115.194 85.742 Q 115.425 85.918 115.722 86.127 L 115.722 86.127 L 115.722 86.127 Q 116.019 86.336 116.398 86.512 L 116.398 86.512 L 116.398 86.512 Q 116.778 86.688 117.262 86.803 L 117.262 86.803 L 117.262 86.803 Q 117.746 86.919 118.351 86.919 L 118.351 86.919 L 118.351 86.919 Q 119.11 86.919 119.704 86.71 L 119.704 86.71 L 119.704 86.71 Q 120.298 86.501 120.71 86.121 L 120.71 86.121 L 120.71 86.121 Q 121.123 85.742 121.343 85.214 L 121.343 85.214 L 121.343 85.214 Q 121.563 84.686 121.563 84.037 L 121.563 84.037 L 121.563 84.037 Q 121.563 83.322 121.238 82.865 L 121.238 82.865 L 121.238 82.865 Q 120.914 82.409 120.386 82.101 L 120.386 82.101 L 120.386 82.101 Q 119.858 81.793 119.176 81.578 L 119.176 81.578 L 119.176 81.578 Q 118.494 81.364 117.79 81.138 L 117.79 81.138 L 117.79 81.138 Q 117.086 80.913 116.404 80.616 L 116.404 80.616 L 116.404 80.616 Q 115.722 80.319 115.194 79.846 L 115.194 79.846 L 115.194 79.846 Q 114.666 79.373 114.341 78.663 L 114.341 78.663 L 114.341 78.663 Q 114.017 77.954 114.017 76.909 L 114.017 76.909 L 114.017 76.909 Q 114.017 76.073 114.341 75.292 L 114.341 75.292 L 114.341 75.292 Q 114.666 74.511 115.287 73.906 L 115.287 73.906 L 115.287 73.906 Q 115.909 73.301 116.816 72.938 L 116.816 72.938 L 116.816 72.938 Q 117.724 72.575 118.901 72.575 L 118.901 72.575 L 118.901 72.575 Q 120.221 72.575 121.304 72.993 L 121.304 72.993 L 121.304 72.993 Q 122.388 73.411 123.213 74.203 L 123.213 74.203 L 123.213 74.203 Z " fill-rule="evenodd" fill="rgb(0,0,0)"/></g></svg>