<?xml version="1.0" standalone="no"?><!-- Generator: Gravit.io --><svg xmlns="http://www.w3.org/2000/svg" xmlns:xlink="http://www.w3.org/1999/xlink" style="isolation:isolate" viewBox="0 0 225 220" width="225" height="220"><defs><clipPath id="_clipPath_F0PgOs4TeXPyNnK4Nk7IItsvYj29XEV9"><rect width="225" height="220"/></clipPath></defs><g clip-path="url(#_clipPath_F0PgOs4TeXPyNnK4Nk7IItsvYj29XEV9)"><g style="isolation:isolate" id="Layer 1"><path d=" M 40 120 L 185 120 L 185 210 L 40 210 L 40 120 Z  M 115 125 L 180 125 L 180 205 L 115 205 L 115 125 Z " fill-rule="evenodd" fill="rgb(235,235,235)"/><path d=" M 130.156 183.865 L 130.156 197.645 L 128.379 197.645 L 123.438 186.766 L 123.438 197.645 L 121.836 197.645 L 121.836 183.865 L 123.623 183.865 L 128.584 194.646 L 128.584 183.865 L 130.156 183.865 L 130.156 183.865 Z  M 143.066 183.865 L 143.066 185.164 L 138.818 185.164 L 138.818 197.645 L 137.227 197.645 L 137.227 185.164 L 132.959 185.164 L 132.959 183.865 L 143.066 183.865 L 143.066 183.865 Z  M 153.965 183.865 L 153.965 193.309 L 153.965 193.309 Q 153.965 195.701 152.993 196.805 L 152.993 196.805 L 152.993 196.805 Q 152.021 197.908 150.039 197.908 L 150.039 197.908 L 150.039 197.908 Q 146.045 197.908 146.045 193.348 L 146.045 193.348 L 146.045 183.865 L 147.646 183.865 L 147.646 193.201 L 147.646 193.201 Q 147.646 196.502 150.039 196.502 L 150.039 196.502 L 150.039 196.502 Q 151.24 196.502 151.802 195.721 L 151.802 195.721 L 151.802 195.721 Q 152.363 194.939 152.363 193.182 L 152.363 193.182 L 152.363 183.865 L 153.965 183.865 L 153.965 183.865 Z  M 163.066 191.043 L 167.471 197.645 L 165.469 197.645 L 161.426 191.385 L 159.648 191.385 L 159.648 197.645 L 158.047 197.645 L 158.047 183.865 L 161.943 183.865 L 161.943 183.865 Q 163.906 183.865 165.044 184.817 L 165.044 184.817 L 165.044 184.817 Q 166.182 185.77 166.182 187.469 L 166.182 187.469 L 166.182 187.469 Q 166.182 188.729 165.352 189.71 L 165.352 189.71 L 165.352 189.71 Q 164.521 190.691 163.066 191.043 L 163.066 191.043 L 163.066 191.043 Z  M 159.648 185.262 L 159.648 189.988 L 161.67 189.988 L 161.67 189.988 Q 162.939 189.988 163.73 189.3 L 163.73 189.3 L 163.73 189.3 Q 164.521 188.611 164.521 187.566 L 164.521 187.566 L 164.521 187.566 Q 164.521 185.262 161.709 185.262 L 161.709 185.262 L 159.648 185.262 L 159.648 185.262 Z  M 130.439 159.115 L 130.439 172.895 L 128.896 172.895 L 128.896 161.078 L 126.816 166.732 L 125.303 166.732 L 123.223 161.078 L 123.223 172.895 L 121.68 172.895 L 121.68 159.115 L 123.76 159.115 L 126.064 165.395 L 128.359 159.115 L 130.439 159.115 L 130.439 159.115 Z  M 141.064 171.498 L 141.064 172.895 L 134.805 172.895 L 134.805 171.498 L 137.178 171.498 L 137.178 160.512 L 134.805 160.512 L 134.805 159.115 L 141.064 159.115 L 141.064 160.512 L 138.779 160.512 L 138.779 171.498 L 141.064 171.498 L 141.064 171.498 Z  M 154.16 159.115 L 154.16 172.895 L 152.383 172.895 L 147.441 162.016 L 147.441 172.895 L 145.84 172.895 L 145.84 159.115 L 147.627 159.115 L 152.588 169.896 L 152.588 159.115 L 154.16 159.115 L 154.16 159.115 Z  M 165.068 171.498 L 165.068 172.895 L 158.809 172.895 L 158.809 171.498 L 161.182 171.498 L 161.182 160.512 L 158.809 160.512 L 158.809 159.115 L 165.068 159.115 L 165.068 160.512 L 162.783 160.512 L 162.783 171.498 L 165.068 171.498 L 165.068 171.498 Z  M 130.439 134.365 L 130.439 148.145 L 128.896 148.145 L 128.896 136.328 L 126.816 141.982 L 125.303 141.982 L 123.223 136.328 L 123.223 148.145 L 121.68 148.145 L 121.68 134.365 L 123.76 134.365 L 126.064 140.645 L 128.359 134.365 L 130.439 134.365 L 130.439 134.365 Z  M 141.963 134.365 L 141.963 143.809 L 141.963 143.809 Q 141.963 146.201 140.991 147.305 L 140.991 147.305 L 140.991 147.305 Q 140.02 148.408 138.037 148.408 L 138.037 148.408 L 138.037 148.408 Q 134.043 148.408 134.043 143.848 L 134.043 143.848 L 134.043 134.365 L 135.645 134.365 L 135.645 143.701 L 135.645 143.701 Q 135.645 147.002 138.037 147.002 L 138.037 147.002 L 138.037 147.002 Q 139.238 147.002 139.8 146.221 L 139.8 146.221 L 139.8 146.221 Q 140.361 145.439 140.361 143.682 L 140.361 143.682 L 140.361 134.365 L 141.963 134.365 L 141.963 134.365 Z  M 151.064 141.543 L 155.469 148.145 L 153.467 148.145 L 149.424 141.885 L 147.646 141.885 L 147.646 148.145 L 146.045 148.145 L 146.045 134.365 L 149.941 134.365 L 149.941 134.365 Q 151.904 134.365 153.042 135.317 L 153.042 135.317 L 153.042 135.317 Q 154.18 136.27 154.18 137.969 L 154.18 137.969 L 154.18 137.969 Q 154.18 139.229 153.35 140.21 L 153.35 140.21 L 153.35 140.21 Q 152.52 141.191 151.064 141.543 L 151.064 141.543 L 151.064 141.543 Z  M 147.646 135.762 L 147.646 140.488 L 149.668 140.488 L 149.668 140.488 Q 150.938 140.488 151.729 139.8 L 151.729 139.8 L 151.729 139.8 Q 152.52 139.111 152.52 138.066 L 152.52 138.066 L 152.52 138.066 Q 152.52 135.762 149.707 135.762 L 149.707 135.762 L 147.646 135.762 L 147.646 135.762 Z " fill-rule="evenodd" fill="rgb(0,0,0)"/><path d=" M 61.064 183.865 L 61.064 185.164 L 56.816 185.164 L 56.816 197.645 L 55.225 197.645 L 55.225 185.164 L 50.957 185.164 L 50.957 183.865 L 61.064 183.865 L 61.064 183.865 Z  M 71.963 183.865 L 71.963 193.309 L 71.963 193.309 Q 71.963 195.701 70.991 196.805 L 70.991 196.805 L 70.991 196.805 Q 70.02 197.908 68.037 197.908 L 68.037 197.908 L 68.037 197.908 Q 64.043 197.908 64.043 193.348 L 64.043 193.348 L 64.043 183.865 L 65.645 183.865 L 65.645 193.201 L 65.645 193.201 Q 65.645 196.502 68.037 196.502 L 68.037 196.502 L 68.037 196.502 Q 69.238 196.502 69.8 195.721 L 69.8 195.721 L 69.8 195.721 Q 70.361 194.939 70.361 193.182 L 70.361 193.182 L 70.361 183.865 L 71.963 183.865 L 71.963 183.865 Z  M 81.064 191.043 L 85.469 197.645 L 83.467 197.645 L 79.424 191.385 L 77.646 191.385 L 77.646 197.645 L 76.045 197.645 L 76.045 183.865 L 79.941 183.865 L 79.941 183.865 Q 81.904 183.865 83.042 184.817 L 83.042 184.817 L 83.042 184.817 Q 84.18 185.77 84.18 187.469 L 84.18 187.469 L 84.18 187.469 Q 84.18 188.729 83.35 189.71 L 83.35 189.71 L 83.35 189.71 Q 82.52 190.691 81.064 191.043 L 81.064 191.043 L 81.064 191.043 Z  M 77.646 185.262 L 77.646 189.988 L 79.668 189.988 L 79.668 189.988 Q 80.938 189.988 81.729 189.3 L 81.729 189.3 L 81.729 189.3 Q 82.52 188.611 82.52 187.566 L 82.52 187.566 L 82.52 187.566 Q 82.52 185.262 79.707 185.262 L 79.707 185.262 L 77.646 185.262 L 77.646 185.262 Z  M 57.061 166.293 L 61.465 172.895 L 59.463 172.895 L 55.42 166.635 L 53.643 166.635 L 53.643 172.895 L 52.041 172.895 L 52.041 159.115 L 55.938 159.115 L 55.938 159.115 Q 57.9 159.115 59.038 160.067 L 59.038 160.067 L 59.038 160.067 Q 60.176 161.02 60.176 162.719 L 60.176 162.719 L 60.176 162.719 Q 60.176 163.979 59.346 164.96 L 59.346 164.96 L 59.346 164.96 Q 58.516 165.941 57.061 166.293 L 57.061 166.293 L 57.061 166.293 Z  M 53.643 160.512 L 53.643 165.238 L 55.664 165.238 L 55.664 165.238 Q 56.934 165.238 57.725 164.55 L 57.725 164.55 L 57.725 164.55 Q 58.516 163.861 58.516 162.816 L 58.516 162.816 L 58.516 162.816 Q 58.516 160.512 55.703 160.512 L 55.703 160.512 L 53.643 160.512 L 53.643 160.512 Z  M 71.064 171.498 L 71.064 172.895 L 64.805 172.895 L 64.805 171.498 L 67.178 171.498 L 67.178 160.512 L 64.805 160.512 L 64.805 159.115 L 71.064 159.115 L 71.064 160.512 L 68.779 160.512 L 68.779 171.498 L 71.064 171.498 L 71.064 171.498 Z  M 83.301 159.271 L 82.939 160.639 L 82.939 160.639 Q 81.709 160.219 80.605 160.219 L 80.605 160.219 L 80.605 160.219 Q 79.355 160.219 78.569 160.79 L 78.569 160.79 L 78.569 160.79 Q 77.783 161.361 77.783 162.416 L 77.783 162.416 L 77.783 162.416 Q 77.783 163.666 79.844 164.613 L 79.844 164.613 L 79.844 164.613 Q 81.367 165.316 81.86 165.59 L 81.86 165.59 L 81.86 165.59 Q 82.354 165.863 82.861 166.342 L 82.861 166.342 L 82.861 166.342 Q 83.369 166.82 83.677 167.47 L 83.677 167.47 L 83.677 167.47 Q 83.984 168.119 83.984 168.93 L 83.984 168.93 L 83.984 168.93 Q 83.984 170.941 82.632 172.05 L 82.632 172.05 L 82.632 172.05 Q 81.279 173.158 79.443 173.158 L 79.443 173.158 L 79.443 173.158 Q 77.666 173.158 76.328 172.455 L 76.328 172.455 L 76.66 171.078 L 76.66 171.078 Q 78.232 171.791 79.404 171.791 L 79.404 171.791 L 79.404 171.791 Q 80.771 171.791 81.597 171.083 L 81.597 171.083 L 81.597 171.083 Q 82.422 170.375 82.422 169.135 L 82.422 169.135 L 82.422 169.135 Q 82.422 168.217 81.885 167.577 L 81.885 167.577 L 81.885 167.577 Q 81.348 166.938 79.902 166.273 L 79.902 166.273 L 79.902 166.273 Q 78.418 165.59 77.983 165.341 L 77.983 165.341 L 77.983 165.341 Q 77.549 165.092 77.119 164.652 L 77.119 164.652 L 77.119 164.652 Q 76.689 164.213 76.455 163.666 L 76.455 163.666 L 76.455 163.666 Q 76.221 163.119 76.221 162.475 L 76.221 162.475 L 76.221 162.475 Q 76.221 160.766 77.451 159.809 L 77.451 159.809 L 77.451 159.809 Q 78.682 158.852 80.566 158.852 L 80.566 158.852 L 80.566 158.852 Q 81.943 158.852 83.301 159.271 L 83.301 159.271 L 83.301 159.271 Z  M 55.977 134.102 L 55.977 134.102 L 55.977 134.102 Q 58.291 134.102 59.507 135.933 L 59.507 135.933 L 59.507 135.933 Q 60.723 137.764 60.723 141.26 L 60.723 141.26 L 60.723 141.26 Q 60.723 144.736 59.512 146.572 L 59.512 146.572 L 59.512 146.572 Q 58.301 148.408 55.977 148.408 L 55.977 148.408 L 55.977 148.408 Q 53.672 148.408 52.456 146.577 L 52.456 146.577 L 52.456 146.577 Q 51.24 144.746 51.24 141.26 L 51.24 141.26 L 51.24 141.26 Q 51.24 137.773 52.451 135.938 L 52.451 135.938 L 52.451 135.938 Q 53.662 134.102 55.977 134.102 Z  M 55.977 147.002 L 55.977 147.002 L 55.977 147.002 Q 59.023 147.002 59.023 141.26 L 59.023 141.26 L 59.023 141.26 Q 59.023 135.508 55.977 135.508 L 55.977 135.508 L 55.977 135.508 Q 54.492 135.508 53.716 136.997 L 53.716 136.997 L 53.716 136.997 Q 52.939 138.486 52.939 141.26 L 52.939 141.26 L 52.939 141.26 Q 52.939 144.063 53.711 145.532 L 53.711 145.532 L 53.711 145.532 Q 54.482 147.002 55.977 147.002 Z  M 69.063 141.543 L 73.467 148.145 L 71.465 148.145 L 67.422 141.885 L 65.645 141.885 L 65.645 148.145 L 64.043 148.145 L 64.043 134.365 L 67.939 134.365 L 67.939 134.365 Q 69.902 134.365 71.04 135.317 L 71.04 135.317 L 71.04 135.317 Q 72.178 136.27 72.178 137.969 L 72.178 137.969 L 72.178 137.969 Q 72.178 139.229 71.348 140.21 L 71.348 140.21 L 71.348 140.21 Q 70.518 141.191 69.063 141.543 L 69.063 141.543 L 69.063 141.543 Z  M 65.645 135.762 L 65.645 140.488 L 67.666 140.488 L 67.666 140.488 Q 68.936 140.488 69.727 139.8 L 69.727 139.8 L 69.727 139.8 Q 70.518 139.111 70.518 138.066 L 70.518 138.066 L 70.518 138.066 Q 70.518 135.762 67.705 135.762 L 67.705 135.762 L 65.645 135.762 L 65.645 135.762 Z " fill-rule="evenodd" fill="rgb(0,0,0)"/><path d=" M 89.699 134.365 L 89.699 151.885 L 88.195 151.885 L 88.195 134.365 L 89.699 134.365 L 89.699 134.365 Z  M 102.063 141.543 L 106.467 148.145 L 104.465 148.145 L 100.422 141.885 L 98.645 141.885 L 98.645 148.145 L 97.043 148.145 L 97.043 134.365 L 100.939 134.365 L 100.939 134.365 Q 102.902 134.365 104.04 135.317 L 104.04 135.317 L 104.04 135.317 Q 105.178 136.27 105.178 137.969 L 105.178 137.969 L 105.178 137.969 Q 105.178 139.229 104.348 140.21 L 104.348 140.21 L 104.348 140.21 Q 103.518 141.191 102.063 141.543 L 102.063 141.543 L 102.063 141.543 Z  M 98.645 135.762 L 98.645 140.488 L 100.666 140.488 L 100.666 140.488 Q 101.936 140.488 102.727 139.8 L 102.727 139.8 L 102.727 139.8 Q 103.518 139.111 103.518 138.066 L 103.518 138.066 L 103.518 138.066 Q 103.518 135.762 100.705 135.762 L 100.705 135.762 L 98.645 135.762 L 98.645 135.762 Z " fill-rule="evenodd" fill="rgb(0,0,0)"/></g><g style="isolation:isolate" id="Layer 1"><path d=" M 40 10 L 185 10 L 185 100 L 40 100 L 40 10 Z  M 115 15 L 180 15 L 180 95 L 115 95 L 115 15 Z " fill-rule="evenodd" fill="rgb(235,235,235)"/><path d=" M 130.156 73.865 L 130.156 87.645 L 128.379 87.645 L 123.438 76.766 L 123.438 87.645 L 121.836 87.645 L 121.836 73.865 L 123.623 73.865 L 128.584 84.646 L 128.584 73.865 L 130.156 73.865 L 130.156 73.865 Z  M 143.066 73.865 L 143.066 75.164 L 138.818 75.164 L 138.818 87.645 L 137.227 87.645 L 137.227 75.164 L 132.959 75.164 L 132.959 73.865 L 143.066 73.865 L 143.066 73.865 Z  M 131.064 49.115 L 131.064 50.414 L 126.816 50.414 L 126.816 62.895 L 125.225 62.895 L 125.225 50.414 L 120.957 50.414 L 120.957 49.115 L 131.064 49.115 L 131.064 49.115 Z  M 141.064 61.498 L 141.064 62.895 L 134.805 62.895 L 134.805 61.498 L 137.178 61.498 L 137.178 50.512 L 134.805 50.512 L 134.805 49.115 L 141.064 49.115 L 141.064 50.512 L 138.779 50.512 L 138.779 61.498 L 141.064 61.498 L 141.064 61.498 Z  M 153.301 49.271 L 152.939 50.639 L 152.939 50.639 Q 151.709 50.219 150.605 50.219 L 150.605 50.219 L 150.605 50.219 Q 149.355 50.219 148.569 50.79 L 148.569 50.79 L 148.569 50.79 Q 147.783 51.361 147.783 52.416 L 147.783 52.416 L 147.783 52.416 Q 147.783 53.666 149.844 54.613 L 149.844 54.613 L 149.844 54.613 Q 151.367 55.316 151.86 55.59 L 151.86 55.59 L 151.86 55.59 Q 152.354 55.863 152.861 56.342 L 152.861 56.342 L 152.861 56.342 Q 153.369 56.82 153.677 57.47 L 153.677 57.47 L 153.677 57.47 Q 153.984 58.119 153.984 58.93 L 153.984 58.93 L 153.984 58.93 Q 153.984 60.941 152.632 62.05 L 152.632 62.05 L 152.632 62.05 Q 151.279 63.158 149.443 63.158 L 149.443 63.158 L 149.443 63.158 Q 147.666 63.158 146.328 62.455 L 146.328 62.455 L 146.66 61.078 L 146.66 61.078 Q 148.232 61.791 149.404 61.791 L 149.404 61.791 L 149.404 61.791 Q 150.771 61.791 151.597 61.083 L 151.597 61.083 L 151.597 61.083 Q 152.422 60.375 152.422 59.135 L 152.422 59.135 L 152.422 59.135 Q 152.422 58.217 151.885 57.577 L 151.885 57.577 L 151.885 57.577 Q 151.348 56.938 149.902 56.273 L 149.902 56.273 L 149.902 56.273 Q 148.418 55.59 147.983 55.341 L 147.983 55.341 L 147.983 55.341 Q 147.549 55.092 147.119 54.652 L 147.119 54.652 L 147.119 54.652 Q 146.689 54.213 146.455 53.666 L 146.455 53.666 L 146.455 53.666 Q 146.221 53.119 146.221 52.475 L 146.221 52.475 L 146.221 52.475 Q 146.221 50.766 147.451 49.809 L 147.451 49.809 L 147.451 49.809 Q 148.682 48.852 150.566 48.852 L 150.566 48.852 L 150.566 48.852 Q 151.943 48.852 153.301 49.271 L 153.301 49.271 L 153.301 49.271 Z  M 130.439 24.365 L 130.439 38.145 L 128.896 38.145 L 128.896 26.328 L 126.816 31.982 L 125.303 31.982 L 123.223 26.328 L 123.223 38.145 L 121.68 38.145 L 121.68 24.365 L 123.76 24.365 L 126.064 30.645 L 128.359 24.365 L 130.439 24.365 L 130.439 24.365 Z  M 141.963 24.365 L 141.963 33.809 L 141.963 33.809 Q 141.963 36.201 140.991 37.305 L 140.991 37.305 L 140.991 37.305 Q 140.02 38.408 138.037 38.408 L 138.037 38.408 L 138.037 38.408 Q 134.043 38.408 134.043 33.848 L 134.043 33.848 L 134.043 24.365 L 135.645 24.365 L 135.645 33.701 L 135.645 33.701 Q 135.645 37.002 138.037 37.002 L 138.037 37.002 L 138.037 37.002 Q 139.238 37.002 139.8 36.221 L 139.8 36.221 L 139.8 36.221 Q 140.361 35.439 140.361 33.682 L 140.361 33.682 L 140.361 24.365 L 141.963 24.365 L 141.963 24.365 Z  M 153.301 24.521 L 152.939 25.889 L 152.939 25.889 Q 151.709 25.469 150.605 25.469 L 150.605 25.469 L 150.605 25.469 Q 149.355 25.469 148.569 26.04 L 148.569 26.04 L 148.569 26.04 Q 147.783 26.611 147.783 27.666 L 147.783 27.666 L 147.783 27.666 Q 147.783 28.916 149.844 29.863 L 149.844 29.863 L 149.844 29.863 Q 151.367 30.566 151.86 30.84 L 151.86 30.84 L 151.86 30.84 Q 152.354 31.113 152.861 31.592 L 152.861 31.592 L 152.861 31.592 Q 153.369 32.07 153.677 32.72 L 153.677 32.72 L 153.677 32.72 Q 153.984 33.369 153.984 34.18 L 153.984 34.18 L 153.984 34.18 Q 153.984 36.191 152.632 37.3 L 152.632 37.3 L 152.632 37.3 Q 151.279 38.408 149.443 38.408 L 149.443 38.408 L 149.443 38.408 Q 147.666 38.408 146.328 37.705 L 146.328 37.705 L 146.66 36.328 L 146.66 36.328 Q 148.232 37.041 149.404 37.041 L 149.404 37.041 L 149.404 37.041 Q 150.771 37.041 151.597 36.333 L 151.597 36.333 L 151.597 36.333 Q 152.422 35.625 152.422 34.385 L 152.422 34.385 L 152.422 34.385 Q 152.422 33.467 151.885 32.827 L 151.885 32.827 L 151.885 32.827 Q 151.348 32.188 149.902 31.523 L 149.902 31.523 L 149.902 31.523 Q 148.418 30.84 147.983 30.591 L 147.983 30.591 L 147.983 30.591 Q 147.549 30.342 147.119 29.902 L 147.119 29.902 L 147.119 29.902 Q 146.689 29.463 146.455 28.916 L 146.455 28.916 L 146.455 28.916 Q 146.221 28.369 146.221 27.725 L 146.221 27.725 L 146.221 27.725 Q 146.221 26.016 147.451 25.059 L 147.451 25.059 L 147.451 25.059 Q 148.682 24.102 150.566 24.102 L 150.566 24.102 L 150.566 24.102 Q 151.943 24.102 153.301 24.521 L 153.301 24.521 L 153.301 24.521 Z " fill-rule="evenodd" fill="rgb(0,0,0)"/><path d=" M 61.064 73.865 L 61.064 75.164 L 56.816 75.164 L 56.816 87.645 L 55.225 87.645 L 55.225 75.164 L 50.957 75.164 L 50.957 73.865 L 61.064 73.865 L 61.064 73.865 Z  M 59.297 49.271 L 58.936 50.639 L 58.936 50.639 Q 57.705 50.219 56.602 50.219 L 56.602 50.219 L 56.602 50.219 Q 55.352 50.219 54.565 50.79 L 54.565 50.79 L 54.565 50.79 Q 53.779 51.361 53.779 52.416 L 53.779 52.416 L 53.779 52.416 Q 53.779 53.666 55.84 54.613 L 55.84 54.613 L 55.84 54.613 Q 57.363 55.316 57.856 55.59 L 57.856 55.59 L 57.856 55.59 Q 58.35 55.863 58.857 56.342 L 58.857 56.342 L 58.857 56.342 Q 59.365 56.82 59.673 57.47 L 59.673 57.47 L 59.673 57.47 Q 59.98 58.119 59.98 58.93 L 59.98 58.93 L 59.98 58.93 Q 59.98 60.941 58.628 62.05 L 58.628 62.05 L 58.628 62.05 Q 57.275 63.158 55.439 63.158 L 55.439 63.158 L 55.439 63.158 Q 53.662 63.158 52.324 62.455 L 52.324 62.455 L 52.656 61.078 L 52.656 61.078 Q 54.229 61.791 55.4 61.791 L 55.4 61.791 L 55.4 61.791 Q 56.768 61.791 57.593 61.083 L 57.593 61.083 L 57.593 61.083 Q 58.418 60.375 58.418 59.135 L 58.418 59.135 L 58.418 59.135 Q 58.418 58.217 57.881 57.577 L 57.881 57.577 L 57.881 57.577 Q 57.344 56.938 55.898 56.273 L 55.898 56.273 L 55.898 56.273 Q 54.414 55.59 53.979 55.341 L 53.979 55.341 L 53.979 55.341 Q 53.545 55.092 53.115 54.652 L 53.115 54.652 L 53.115 54.652 Q 52.686 54.213 52.451 53.666 L 52.451 53.666 L 52.451 53.666 Q 52.217 53.119 52.217 52.475 L 52.217 52.475 L 52.217 52.475 Q 52.217 50.766 53.447 49.809 L 53.447 49.809 L 53.447 49.809 Q 54.678 48.852 56.563 48.852 L 56.563 48.852 L 56.563 48.852 Q 57.939 48.852 59.297 49.271 L 59.297 49.271 L 59.297 49.271 Z  M 55.977 24.102 L 55.977 24.102 L 55.977 24.102 Q 58.291 24.102 59.507 25.933 L 59.507 25.933 L 59.507 25.933 Q 60.723 27.764 60.723 31.26 L 60.723 31.26 L 60.723 31.26 Q 60.723 34.736 59.512 36.572 L 59.512 36.572 L 59.512 36.572 Q 58.301 38.408 55.977 38.408 L 55.977 38.408 L 55.977 38.408 Q 53.672 38.408 52.456 36.577 L 52.456 36.577 L 52.456 36.577 Q 51.24 34.746 51.24 31.26 L 51.24 31.26 L 51.24 31.26 Q 51.24 27.773 52.451 25.938 L 52.451 25.938 L 52.451 25.938 Q 53.662 24.102 55.977 24.102 Z  M 55.977 37.002 L 55.977 37.002 L 55.977 37.002 Q 59.023 37.002 59.023 31.26 L 59.023 31.26 L 59.023 31.26 Q 59.023 25.508 55.977 25.508 L 55.977 25.508 L 55.977 25.508 Q 54.492 25.508 53.716 26.997 L 53.716 26.997 L 53.716 26.997 Q 52.939 28.486 52.939 31.26 L 52.939 31.26 L 52.939 31.26 Q 52.939 34.063 53.711 35.532 L 53.711 35.532 L 53.711 35.532 Q 54.482 37.002 55.977 37.002 Z " fill-rule="evenodd" fill="rgb(0,0,0)"/><path d=" M 89.699 24.365 L 89.699 41.885 L 88.195 41.885 L 88.195 24.365 L 89.699 24.365 L 89.699 24.365 Z  M 105.441 24.365 L 105.441 38.145 L 103.898 38.145 L 103.898 26.328 L 101.818 31.982 L 100.305 31.982 L 98.225 26.328 L 98.225 38.145 L 96.682 38.145 L 96.682 24.365 L 98.762 24.365 L 101.066 30.645 L 103.361 24.365 L 105.441 24.365 L 105.441 24.365 Z " fill-rule="evenodd" fill="rgb(0,0,0)"/></g></g></svg>