<?xml version="1.0" standalone="no"?><!-- Generator: Gravit.io --><svg xmlns="http://www.w3.org/2000/svg" xmlns:xlink="http://www.w3.org/1999/xlink" style="isolation:isolate" viewBox="0 0 460 290" width="460" height="290"><defs><clipPath id="_clipPath_fsm6AXNHLE23YpaqzMEb4BApAQ1i7jJ0"><rect width="460" height="290"/></clipPath></defs><g clip-path="url(#_clipPath_fsm6AXNHLE23YpaqzMEb4BApAQ1i7jJ0)"><rect x="20" y="190" width="120" height="30" transform="matrix(1,0,0,1,0,0)" fill="rgb(235,235,235)"/><path d=" M 64.552 208.856 L 64.552 207.832 L 51.928 207.832 L 51.928 208.856 L 64.552 208.856 Z  M 62.744 198.504 L 53.24 198.504 L 53.24 199.512 L 61.496 199.512 C 61.496 201.8 61.288 204.84 60.904 206.616 L 62.12 206.776 C 62.552 204.632 62.744 201.72 62.744 198.504 Z  M 76.04 196.936 L 76.04 210.92 L 77.256 210.92 L 77.256 196.936 L 76.04 196.936 Z  M 74.76 206.104 C 73.064 206.408 70.296 206.536 68.072 206.536 L 67.736 206.536 L 67.736 203.192 L 73.048 203.192 L 73.048 198.232 L 66.456 198.232 L 66.456 199.24 L 71.816 199.24 L 71.816 202.184 L 66.52 202.184 L 66.52 207.576 L 67.944 207.576 C 71.016 207.576 73.416 207.336 74.872 207.112 L 74.76 206.104 Z  M 91.768 204.136 C 89.624 203.656 86.552 201.496 86.552 199.208 L 86.552 198.104 L 85.288 198.104 L 85.288 199.208 C 85.288 201.496 82.376 203.656 80.104 204.104 L 80.744 205.144 C 83.176 204.456 85.4 202.472 85.896 201.048 C 86.472 202.472 88.744 204.456 91.096 205.16 L 91.768 204.136 Z  M 92.232 209 L 92.232 207.976 L 79.608 207.976 L 79.608 209 L 92.232 209 Z  M 93.624 202.856 C 93.624 205.832 94.904 207.8 97.16 207.8 C 99.288 207.8 100.536 206.04 100.664 203.352 L 103.656 203.352 L 103.656 210.92 L 104.872 210.92 L 104.872 196.936 L 103.656 196.936 L 103.656 202.312 L 100.664 202.312 C 100.504 199.656 99.272 197.912 97.16 197.912 C 94.904 197.912 93.624 199.896 93.624 202.856 Z  M 99.48 202.872 C 99.48 205.144 98.536 206.744 97.16 206.744 C 95.768 206.744 94.84 205.144 94.84 202.872 C 94.84 200.568 95.768 198.968 97.16 198.968 C 98.536 198.968 99.48 200.568 99.48 202.872 Z " fill-rule="evenodd" fill="rgb(0,0,0)"/><rect x="171" y="130" width="120" height="30" transform="matrix(1,0,0,1,0,0)" fill="rgb(235,235,235)"/><path d=" M 220.584 136.936 L 219.384 136.936 L 219.384 150.92 L 220.584 150.92 L 220.584 143.592 L 222.84 143.592 L 222.84 142.568 L 220.584 142.568 L 220.584 136.936 Z  M 218.152 146.088 C 216.28 146.44 213.8 146.584 211.576 146.568 L 211.576 143.192 L 216.792 143.192 L 216.792 138.232 L 210.328 138.232 L 210.328 139.24 L 215.576 139.24 L 215.576 142.184 L 210.36 142.184 L 210.36 147.592 L 211.544 147.592 C 213.832 147.592 216.744 147.384 218.312 147.064 L 218.152 146.088 Z  M 235.432 150.456 L 235.432 149.432 L 227.272 149.432 L 227.272 146.328 L 226.056 146.328 L 226.056 150.456 L 235.432 150.456 Z  M 235.112 136.936 L 233.896 136.936 L 233.896 147.144 L 235.112 147.144 L 235.112 136.936 Z  M 232.232 143.656 C 230.632 143.96 228.008 144.04 226.136 144.04 L 225.688 144.04 L 225.688 141.976 L 230.728 141.976 L 230.728 140.984 L 225.688 140.984 L 225.688 139.128 L 230.936 139.128 L 230.936 138.12 L 224.456 138.12 L 224.456 145.048 L 225.768 145.048 C 228.376 145.048 230.76 144.92 232.36 144.632 L 232.232 143.656 Z  M 237.704 142.856 C 237.704 145.832 238.984 147.8 241.24 147.8 C 243.368 147.8 244.616 146.04 244.744 143.352 L 247.736 143.352 L 247.736 150.92 L 248.952 150.92 L 248.952 136.936 L 247.736 136.936 L 247.736 142.312 L 244.744 142.312 C 244.584 139.656 243.352 137.912 241.24 137.912 C 238.984 137.912 237.704 139.896 237.704 142.856 Z  M 243.56 142.872 C 243.56 145.144 242.616 146.744 241.24 146.744 C 239.848 146.744 238.92 145.144 238.92 142.872 C 238.92 140.568 239.848 138.968 241.24 138.968 C 242.616 138.968 243.56 140.568 243.56 142.872 Z " fill-rule="evenodd" fill="rgb(0,0,0)"/><rect x="170" y="70" width="120" height="30" transform="matrix(1,0,0,1,0,0)" fill="rgb(235,235,235)"/><path d=" M 213.352 85.288 L 213.352 84.264 L 211.064 84.264 L 211.624 80.392 L 210.424 80.2 L 209.928 84.264 L 206.488 84.264 L 206.2 80.184 L 204.952 80.36 L 205.336 84.264 L 203.048 84.264 L 203.048 85.288 L 213.352 85.288 Z  M 214.552 89.064 L 214.552 88.024 L 201.928 88.024 L 201.928 89.064 L 214.552 89.064 Z  M 213.368 79.432 L 213.368 78.408 L 203.032 78.408 L 203.032 79.432 L 213.368 79.432 Z  M 228.632 81.72 L 228.632 80.696 L 226.504 80.696 L 226.504 76.936 L 225.304 76.936 L 225.304 85.64 L 226.504 85.64 L 226.504 81.72 L 228.632 81.72 Z  M 226.664 88.376 C 226.664 86.808 225.064 85.816 222.04 85.816 C 219 85.816 217.416 86.776 217.416 88.376 C 217.416 89.928 219 90.904 222.04 90.904 C 225.064 90.904 226.664 89.912 226.664 88.376 Z  M 222.04 86.824 C 224.152 86.824 225.416 87.384 225.416 88.376 C 225.416 89.352 224.152 89.896 222.04 89.896 C 219.912 89.896 218.664 89.32 218.664 88.376 C 218.664 87.4 219.912 86.824 222.04 86.824 Z  M 223.992 83.496 C 222.344 83.832 219.256 83.928 217.624 83.928 L 217.448 83.928 L 217.448 81.848 L 222.584 81.848 L 222.584 77.864 L 216.2 77.864 L 216.2 78.872 L 221.368 78.872 L 221.368 80.856 L 216.232 80.856 L 216.232 84.952 L 217.544 84.952 C 219.512 84.952 222.664 84.744 224.104 84.488 L 223.992 83.496 Z  M 241.768 84.136 C 239.624 83.656 236.552 81.496 236.552 79.208 L 236.552 78.104 L 235.288 78.104 L 235.288 79.208 C 235.288 81.496 232.376 83.656 230.104 84.104 L 230.744 85.144 C 233.176 84.456 235.4 82.472 235.896 81.048 C 236.472 82.472 238.744 84.456 241.096 85.16 L 241.768 84.136 Z  M 242.232 89 L 242.232 87.976 L 229.608 87.976 L 229.608 89 L 242.232 89 Z  M 243.624 82.856 C 243.624 85.832 244.904 87.8 247.16 87.8 C 249.288 87.8 250.536 86.04 250.664 83.352 L 253.656 83.352 L 253.656 90.92 L 254.872 90.92 L 254.872 76.936 L 253.656 76.936 L 253.656 82.312 L 250.664 82.312 C 250.504 79.656 249.272 77.912 247.16 77.912 C 244.904 77.912 243.624 79.896 243.624 82.856 Z  M 249.48 82.872 C 249.48 85.144 248.536 86.744 247.16 86.744 C 245.768 86.744 244.84 85.144 244.84 82.872 C 244.84 80.568 245.768 78.968 247.16 78.968 C 248.536 78.968 249.48 80.568 249.48 82.872 Z " fill-rule="evenodd" fill="rgb(0,0,0)"/><rect x="320" y="10" width="120" height="30" transform="matrix(1,0,0,1,0,0)" fill="rgb(235,235,235)"/><path d=" M 377.208 28.296 C 377.208 26.632 375.496 25.624 372.44 25.624 C 369.4 25.624 367.688 26.632 367.688 28.296 C 367.688 29.912 369.4 30.952 372.44 30.952 C 375.496 30.952 377.208 29.912 377.208 28.296 Z  M 373.432 23.304 L 375.976 23.304 L 375.976 25.592 L 377.192 25.592 L 377.192 16.936 L 375.976 16.936 L 375.976 18.792 L 373.432 18.792 L 373.432 19.832 L 375.976 19.832 L 375.976 22.264 L 373.432 22.264 L 373.432 23.304 Z  M 375.96 28.296 C 375.96 29.32 374.664 29.912 372.44 29.912 C 370.264 29.912 368.952 29.32 368.952 28.296 C 368.952 27.256 370.264 26.648 372.44 26.648 C 374.664 26.648 375.96 27.256 375.96 28.296 Z  M 369.48 17.784 C 367.512 17.784 365.88 19.128 365.88 21.144 C 365.88 23.176 367.528 24.456 369.48 24.456 C 371.448 24.456 373.064 23.176 373.064 21.128 C 373.064 19.096 371.448 17.784 369.48 17.784 Z  M 369.48 18.824 C 370.92 18.824 371.848 19.752 371.848 21.144 C 371.848 22.552 370.904 23.464 369.48 23.464 C 368.104 23.464 367.096 22.552 367.096 21.128 C 367.096 19.736 368.104 18.824 369.48 18.824 Z  M 379.784 22.856 C 379.784 25.832 381.064 27.8 383.32 27.8 C 385.448 27.8 386.696 26.04 386.824 23.352 L 389.816 23.352 L 389.816 30.92 L 391.032 30.92 L 391.032 16.936 L 389.816 16.936 L 389.816 22.312 L 386.824 22.312 C 386.664 19.656 385.432 17.912 383.32 17.912 C 381.064 17.912 379.784 19.896 379.784 22.856 Z  M 385.64 22.872 C 385.64 25.144 384.696 26.744 383.32 26.744 C 381.928 26.744 381 25.144 381 22.872 C 381 20.568 381.928 18.968 383.32 18.968 C 384.696 18.968 385.64 20.568 385.64 22.872 Z " fill-rule="evenodd" fill="rgb(0,0,0)"/><rect x="20" y="250" width="420" height="30" transform="matrix(1,0,0,1,0,0)" fill="rgb(235,235,235)"/><path d=" M 199.512 267.144 L 199.512 256.936 L 198.296 256.936 L 198.296 267.144 L 199.512 267.144 Z  M 199.864 270.456 L 199.864 269.448 L 191.608 269.448 L 191.608 266.136 L 190.392 266.136 L 190.392 270.456 L 199.864 270.456 Z  M 192.152 257.864 C 190.04 257.864 188.392 259.288 188.392 261.368 C 188.392 263.448 190.04 264.824 192.168 264.824 C 194.296 264.824 195.928 263.432 195.928 261.352 C 195.928 259.272 194.28 257.864 192.152 257.864 Z  M 192.152 258.92 C 193.704 258.92 194.776 259.928 194.776 261.368 C 194.776 262.76 193.704 263.752 192.168 263.752 C 190.696 263.752 189.56 262.76 189.56 261.352 C 189.56 259.928 190.68 258.92 192.152 258.92 Z  M 214.552 269.144 L 214.552 268.12 L 208.824 268.12 L 208.824 264.696 L 213.128 264.696 L 213.128 263.688 L 204.68 263.688 L 204.68 259.128 L 213.048 259.128 L 213.048 258.12 L 203.448 258.12 L 203.448 264.696 L 207.608 264.696 L 207.608 268.12 L 201.928 268.12 L 201.928 269.144 L 214.552 269.144 Z  M 227.048 260.616 C 227.048 258.792 225.176 257.576 222.072 257.576 C 218.984 257.576 217.112 258.792 217.112 260.616 C 217.112 262.424 218.984 263.64 222.072 263.64 C 225.176 263.64 227.048 262.408 227.048 260.616 Z  M 220.248 270.92 L 220.248 265.96 L 223.864 265.96 L 223.864 270.92 L 225.08 270.92 L 225.08 265.96 L 228.392 265.96 L 228.392 264.936 L 215.768 264.936 L 215.768 265.96 L 219.032 265.96 L 219.032 270.92 L 220.248 270.92 Z  M 222.072 258.648 C 224.424 258.648 225.848 259.416 225.848 260.616 C 225.848 261.8 224.424 262.568 222.072 262.568 C 219.752 262.568 218.312 261.8 218.312 260.616 C 218.312 259.416 219.752 258.648 222.072 258.648 Z  M 241.032 270.728 L 241.032 265.384 L 239.816 265.384 L 239.816 267.048 L 233.128 267.048 L 233.128 265.4 L 231.896 265.4 L 231.896 270.728 L 241.032 270.728 Z  M 239.816 269.72 L 233.128 269.72 L 233.128 268.04 L 239.816 268.04 L 239.816 269.72 Z  M 241.032 264.648 L 241.032 256.936 L 239.816 256.936 L 239.816 260.28 L 237.384 260.28 L 237.384 261.304 L 239.816 261.304 L 239.816 264.648 L 241.032 264.648 Z  M 237.464 263.208 C 235.832 263.512 233.624 263.624 231.88 263.624 L 231.272 263.624 L 231.272 261.608 L 236.472 261.608 L 236.472 257.752 L 230.056 257.752 L 230.056 258.76 L 235.256 258.76 L 235.256 260.616 L 230.056 260.616 L 230.056 264.632 L 231.64 264.632 C 233.704 264.632 236.184 264.456 237.608 264.2 L 237.464 263.208 Z  M 255.016 259.336 L 255.016 258.36 L 244.52 258.36 L 244.52 259.336 L 249.128 259.336 L 249.128 259.624 C 249.128 261.864 246.168 263.88 243.96 264.264 L 244.536 265.288 C 246.856 264.696 249.176 262.984 249.752 261.4 C 250.424 262.936 252.728 264.68 254.968 265.32 L 255.592 264.296 C 253.496 263.88 250.408 261.832 250.408 259.624 L 250.408 259.336 L 255.016 259.336 Z  M 256.072 269.144 L 256.072 268.12 L 250.344 268.12 L 250.344 264.632 L 249.128 264.632 L 249.128 268.12 L 243.448 268.12 L 243.448 269.144 L 256.072 269.144 Z  M 257.464 262.856 C 257.464 265.832 258.744 267.8 261 267.8 C 263.128 267.8 264.376 266.04 264.504 263.352 L 267.496 263.352 L 267.496 270.92 L 268.712 270.92 L 268.712 256.936 L 267.496 256.936 L 267.496 262.312 L 264.504 262.312 C 264.344 259.656 263.112 257.912 261 257.912 C 258.744 257.912 257.464 259.896 257.464 262.856 Z  M 263.32 262.872 C 263.32 265.144 262.376 266.744 261 266.744 C 259.608 266.744 258.68 265.144 258.68 262.872 C 258.68 260.568 259.608 258.968 261 258.968 C 262.376 258.968 263.32 260.568 263.32 262.872 Z " fill-rule="evenodd" fill="rgb(0,0,0)"/><rect x="320" y="190" width="120" height="30" transform="matrix(1,0,0,1,0,0)" fill="rgb(235,235,235)"/><path d=" M 363.72 210.92 L 363.72 196.936 L 362.52 196.936 L 362.52 210.92 L 363.72 210.92 Z  M 361 210.216 L 361 197.272 L 359.832 197.272 L 359.832 202.376 L 357.48 202.376 L 357.48 203.4 L 359.832 203.4 L 359.832 210.216 L 361 210.216 Z  M 357.832 198.568 L 352.328 198.568 L 352.328 199.592 L 356.584 199.592 C 356.44 202.44 354.712 205.384 351.784 207.032 L 352.616 207.928 C 355.912 205.8 357.736 202.728 357.832 198.568 Z  M 377.176 205.64 L 377.176 204.616 L 368.568 204.616 L 368.568 202.264 L 376.808 202.264 L 376.808 198.04 L 367.304 198.04 L 367.304 199.064 L 375.592 199.064 L 375.592 201.256 L 367.352 201.256 L 367.352 205.64 L 377.176 205.64 Z  M 378.392 209.016 L 378.392 207.992 L 365.768 207.992 L 365.768 209.016 L 378.392 209.016 Z  M 386.712 204.648 L 386.712 198.168 L 380.088 198.168 L 380.088 204.648 L 386.712 204.648 Z  M 385.496 203.64 L 381.304 203.64 L 381.304 199.176 L 385.496 199.176 L 385.496 203.64 Z  M 392.488 202.136 L 392.488 201.112 L 390.36 201.112 L 390.36 196.936 L 389.144 196.936 L 389.144 207.096 L 390.36 207.096 L 390.36 202.136 L 392.488 202.136 Z  M 390.904 210.44 L 390.904 209.432 L 382.824 209.432 L 382.824 206.136 L 381.608 206.136 L 381.608 210.44 L 390.904 210.44 Z  M 393.624 202.856 C 393.624 205.832 394.904 207.8 397.16 207.8 C 399.288 207.8 400.536 206.04 400.664 203.352 L 403.656 203.352 L 403.656 210.92 L 404.872 210.92 L 404.872 196.936 L 403.656 196.936 L 403.656 202.312 L 400.664 202.312 C 400.504 199.656 399.272 197.912 397.16 197.912 C 394.904 197.912 393.624 199.896 393.624 202.856 Z  M 399.48 202.872 C 399.48 205.144 398.536 206.744 397.16 206.744 C 395.768 206.744 394.84 205.144 394.84 202.872 C 394.84 200.568 395.768 198.968 397.16 198.968 C 398.536 198.968 399.48 200.568 399.48 202.872 Z " fill-rule="evenodd" fill="rgb(0,0,0)"/><rect x="320" y="190" width="120" height="30" transform="matrix(1,0,0,1,0,0)" fill="rgb(235,235,235)"/><path d=" M 363.72 210.92 L 363.72 196.936 L 362.52 196.936 L 362.52 210.92 L 363.72 210.92 Z  M 361 210.216 L 361 197.272 L 359.832 197.272 L 359.832 202.376 L 357.48 202.376 L 357.48 203.4 L 359.832 203.4 L 359.832 210.216 L 361 210.216 Z  M 357.832 198.568 L 352.328 198.568 L 352.328 199.592 L 356.584 199.592 C 356.44 202.44 354.712 205.384 351.784 207.032 L 352.616 207.928 C 355.912 205.8 357.736 202.728 357.832 198.568 Z  M 377.176 205.64 L 377.176 204.616 L 368.568 204.616 L 368.568 202.264 L 376.808 202.264 L 376.808 198.04 L 367.304 198.04 L 367.304 199.064 L 375.592 199.064 L 375.592 201.256 L 367.352 201.256 L 367.352 205.64 L 377.176 205.64 Z  M 378.392 209.016 L 378.392 207.992 L 365.768 207.992 L 365.768 209.016 L 378.392 209.016 Z  M 386.712 204.648 L 386.712 198.168 L 380.088 198.168 L 380.088 204.648 L 386.712 204.648 Z  M 385.496 203.64 L 381.304 203.64 L 381.304 199.176 L 385.496 199.176 L 385.496 203.64 Z  M 392.488 202.136 L 392.488 201.112 L 390.36 201.112 L 390.36 196.936 L 389.144 196.936 L 389.144 207.096 L 390.36 207.096 L 390.36 202.136 L 392.488 202.136 Z  M 390.904 210.44 L 390.904 209.432 L 382.824 209.432 L 382.824 206.136 L 381.608 206.136 L 381.608 210.44 L 390.904 210.44 Z  M 393.624 202.856 C 393.624 205.832 394.904 207.8 397.16 207.8 C 399.288 207.8 400.536 206.04 400.664 203.352 L 403.656 203.352 L 403.656 210.92 L 404.872 210.92 L 404.872 196.936 L 403.656 196.936 L 403.656 202.312 L 400.664 202.312 C 400.504 199.656 399.272 197.912 397.16 197.912 C 394.904 197.912 393.624 199.896 393.624 202.856 Z  M 399.48 202.872 C 399.48 205.144 398.536 206.744 397.16 206.744 C 395.768 206.744 394.84 205.144 394.84 202.872 C 394.84 200.568 395.768 198.968 397.16 198.968 C 398.536 198.968 399.48 200.568 399.48 202.872 Z " fill-rule="evenodd" fill="rgb(0,0,0)"/><rect x="320" y="130" width="120" height="30" transform="matrix(1,0,0,1,0,0)" fill="rgb(235,235,235)"/><path d=" M 356.48 150.92 L 356.48 136.936 L 355.264 136.936 L 355.264 141.928 L 352 141.928 L 352 142.952 L 355.264 142.952 L 355.264 150.92 L 356.48 150.92 Z  M 353.376 146.648 C 351.456 145.528 349.792 143.256 349.792 140.696 L 349.792 138.152 L 348.528 138.152 L 348.528 140.744 C 348.528 143.224 346.912 145.704 344.88 146.984 L 345.68 147.896 C 347.296 146.728 348.672 145 349.168 143.256 C 349.728 144.936 351.344 146.712 352.624 147.576 L 353.376 146.648 Z  M 370.64 150.92 L 370.64 136.936 L 369.44 136.936 L 369.44 150.92 L 370.64 150.92 Z  M 367.92 150.216 L 367.92 137.272 L 366.752 137.272 L 366.752 142.376 L 364.4 142.376 L 364.4 143.4 L 366.752 143.4 L 366.752 150.216 L 367.92 150.216 Z  M 364.752 138.568 L 359.248 138.568 L 359.248 139.592 L 363.504 139.592 C 363.36 142.44 361.632 145.384 358.704 147.032 L 359.536 147.928 C 362.832 145.8 364.656 142.728 364.752 138.568 Z  M 384.096 145.64 L 384.096 144.616 L 375.488 144.616 L 375.488 142.264 L 383.728 142.264 L 383.728 138.04 L 374.224 138.04 L 374.224 139.064 L 382.512 139.064 L 382.512 141.256 L 374.272 141.256 L 374.272 145.64 L 384.096 145.64 Z  M 385.312 149.016 L 385.312 147.992 L 372.688 147.992 L 372.688 149.016 L 385.312 149.016 Z  M 393.632 144.648 L 393.632 138.168 L 387.008 138.168 L 387.008 144.648 L 393.632 144.648 Z  M 392.416 143.64 L 388.224 143.64 L 388.224 139.176 L 392.416 139.176 L 392.416 143.64 Z  M 399.408 142.136 L 399.408 141.112 L 397.28 141.112 L 397.28 136.936 L 396.064 136.936 L 396.064 147.096 L 397.28 147.096 L 397.28 142.136 L 399.408 142.136 Z  M 397.824 150.44 L 397.824 149.432 L 389.744 149.432 L 389.744 146.136 L 388.528 146.136 L 388.528 150.44 L 397.824 150.44 Z  M 400.544 142.856 C 400.544 145.832 401.824 147.8 404.08 147.8 C 406.208 147.8 407.456 146.04 407.584 143.352 L 410.576 143.352 L 410.576 150.92 L 411.792 150.92 L 411.792 136.936 L 410.576 136.936 L 410.576 142.312 L 407.584 142.312 C 407.424 139.656 406.192 137.912 404.08 137.912 C 401.824 137.912 400.544 139.896 400.544 142.856 Z  M 406.4 142.872 C 406.4 145.144 405.456 146.744 404.08 146.744 C 402.688 146.744 401.76 145.144 401.76 142.872 C 401.76 140.568 402.688 138.968 404.08 138.968 C 405.456 138.968 406.4 140.568 406.4 142.872 Z " fill-rule="evenodd" fill="rgb(0,0,0)"/><rect x="170" y="190" width="120" height="30" transform="matrix(1,0,0,1,0,0)" fill="rgb(235,235,235)"/><path d=" M 257.12 199.336 L 257.12 198.36 L 246.624 198.36 L 246.624 199.336 L 251.232 199.336 L 251.232 199.624 C 251.232 201.864 248.272 203.88 246.064 204.264 L 246.64 205.288 C 248.96 204.696 251.28 202.984 251.856 201.4 C 252.528 202.936 254.832 204.68 257.072 205.32 L 257.696 204.296 C 255.6 203.88 252.512 201.832 252.512 199.624 L 252.512 199.336 L 257.12 199.336 Z  M 258.176 209.144 L 258.176 208.12 L 252.448 208.12 L 252.448 204.632 L 251.232 204.632 L 251.232 208.12 L 245.552 208.12 L 245.552 209.144 L 258.176 209.144 Z  M 259.568 202.856 C 259.568 205.832 260.848 207.8 263.104 207.8 C 265.232 207.8 266.48 206.04 266.608 203.352 L 269.6 203.352 L 269.6 210.92 L 270.816 210.92 L 270.816 196.936 L 269.6 196.936 L 269.6 202.312 L 266.608 202.312 C 266.448 199.656 265.216 197.912 263.104 197.912 C 260.848 197.912 259.568 199.896 259.568 202.856 Z  M 265.424 202.872 C 265.424 205.144 264.48 206.744 263.104 206.744 C 261.712 206.744 260.784 205.144 260.784 202.872 C 260.784 200.568 261.712 198.968 263.104 198.968 C 264.48 198.968 265.424 200.568 265.424 202.872 Z  M 197.488 210.92 L 197.488 196.936 L 196.272 196.936 L 196.272 210.92 L 197.488 210.92 Z  M 186.448 202.92 C 186.448 205.896 187.76 207.88 190.048 207.88 C 192.368 207.88 193.664 205.896 193.664 202.936 C 193.664 199.976 192.368 197.992 190.048 197.992 C 187.76 197.992 186.448 199.976 186.448 202.92 Z  M 192.512 202.936 C 192.512 205.224 191.536 206.824 190.048 206.824 C 188.576 206.824 187.6 205.224 187.6 202.936 C 187.6 200.632 188.576 199.048 190.048 199.048 C 191.536 199.048 192.512 200.632 192.512 202.936 Z  M 211.088 210.792 L 211.088 209.768 L 202.912 209.768 L 202.912 208.296 L 210.56 208.296 L 210.56 205.064 L 201.632 205.064 L 201.632 206.072 L 209.344 206.072 L 209.344 207.368 L 201.696 207.368 L 201.696 210.792 L 211.088 210.792 Z  M 201.504 202.824 L 201.504 201.16 L 206.576 201.16 L 206.576 200.2 L 201.504 200.2 L 201.504 198.776 L 206.784 198.776 L 206.784 197.784 L 200.288 197.784 L 200.288 203.816 L 202.224 203.8 C 204.416 203.784 206.624 203.64 208.064 203.384 L 207.92 202.424 C 206.352 202.744 203.808 202.824 202.016 202.824 L 201.504 202.824 Z  M 212.688 201.128 L 212.688 200.12 L 210.56 200.12 L 210.56 196.936 L 209.344 196.936 L 209.344 204.328 L 210.56 204.328 L 210.56 201.128 L 212.688 201.128 Z  M 223.936 196.936 L 223.936 210.92 L 225.152 210.92 L 225.152 196.936 L 223.936 196.936 Z  M 222.656 206.104 C 220.96 206.408 218.192 206.536 215.968 206.536 L 215.632 206.536 L 215.632 203.192 L 220.944 203.192 L 220.944 198.232 L 214.352 198.232 L 214.352 199.24 L 219.712 199.24 L 219.712 202.184 L 214.416 202.184 L 214.416 207.576 L 215.84 207.576 C 218.912 207.576 221.312 207.336 222.768 207.112 L 222.656 206.104 Z  M 240.544 203.592 L 240.544 202.568 L 238.256 202.568 L 238.256 196.936 L 237.04 196.936 L 237.04 210.92 L 238.256 210.92 L 238.256 203.592 L 240.544 203.592 Z  M 227.696 202.92 C 227.696 205.896 229.008 207.88 231.28 207.88 C 233.552 207.88 234.848 205.896 234.848 202.936 C 234.848 199.976 233.552 197.992 231.28 197.992 C 229.008 197.992 227.696 199.976 227.696 202.92 Z  M 233.664 202.936 C 233.664 205.224 232.736 206.824 231.28 206.824 C 229.824 206.824 228.88 205.224 228.88 202.936 C 228.88 200.632 229.824 199.048 231.28 199.048 C 232.736 199.048 233.664 200.632 233.664 202.936 Z " fill-rule="evenodd" fill="rgb(0,0,0)"/><line x1="380" y1="130" x2="380" y2="40" vector-effect="non-scaling-stroke" stroke-width="1" stroke="rgb(0,0,0)" stroke-linejoin="miter" stroke-linecap="square" stroke-miterlimit="3"/><path d=" M 382.5 45 L 380 40 L 377.5 45 Z " fill="rgb(0,0,0)" stroke="none"/><line x1="230" y1="190" x2="230" y2="160" vector-effect="non-scaling-stroke" stroke-width="1" stroke="rgb(0,0,0)" stroke-linejoin="miter" stroke-linecap="square" stroke-miterlimit="3"/><path d=" M 232.5 165 L 230 160 L 227.5 165 Z " fill="rgb(0,0,0)" stroke="none"/><line x1="230" y1="130" x2="230" y2="100" vector-effect="non-scaling-stroke" stroke-width="1" stroke="rgb(0,0,0)" stroke-linejoin="miter" stroke-linecap="square" stroke-miterlimit="3"/><path d=" M 232.5 105 L 230 100 L 227.5 105 Z " fill="rgb(0,0,0)" stroke="none"/><line x1="80" y1="250" x2="80" y2="220" vector-effect="non-scaling-stroke" stroke-width="1" stroke="rgb(0,0,0)" stroke-linejoin="miter" stroke-linecap="square" stroke-miterlimit="3"/><path d=" M 82.5 225 L 80 220 L 77.5 225 Z " fill="rgb(0,0,0)" stroke="none"/><line x1="230" y1="250" x2="230" y2="220" vector-effect="non-scaling-stroke" stroke-width="1" stroke="rgb(0,0,0)" stroke-linejoin="miter" stroke-linecap="square" stroke-miterlimit="3"/><path d=" M 232.5 225 L 230 220 L 227.5 225 Z " fill="rgb(0,0,0)" stroke="none"/><line x1="380" y1="250" x2="380" y2="220" vector-effect="non-scaling-stroke" stroke-width="1" stroke="rgb(0,0,0)" stroke-linejoin="miter" stroke-linecap="square" stroke-miterlimit="3"/><path d=" M 382.5 225 L 380 220 L 377.5 225 Z " fill="rgb(0,0,0)" stroke="none"/><line x1="380" y1="190" x2="380" y2="160" vector-effect="non-scaling-stroke" stroke-width="1" stroke="rgb(0,0,0)" stroke-linejoin="miter" stroke-linecap="square" stroke-miterlimit="3"/><path d=" M 382.5 165 L 380 160 L 377.5 165 Z " fill="rgb(0,0,0)" stroke="none"/><path d=" M 90 190 Q 101.258 169.46 120 160 Q 138.742 150.54 168.816 150.105" fill="none" vector-effect="non-scaling-stroke" stroke-width="1" stroke="rgb(0,0,0)" stroke-linejoin="miter" stroke-linecap="square" stroke-miterlimit="3"/><path d=" M 163.856 152.684 L 168.816 150.105 L 163.776 147.685 Z " fill="rgb(0,0,0)" stroke="none"/><path d=" M 88.502 186.142 L 90.226 183.434 L 86.55 182.694 L 86.55 182.694 Q 86.386 182.661 86.176 182.605 L 86.176 182.605 L 86.176 182.605 Q 85.966 182.55 85.737 182.475 L 85.737 182.475 L 85.737 182.475 Q 86.079 182.842 86.281 183.127 L 86.281 183.127 L 88.502 186.142 L 88.502 186.142 Z  M 85.121 181.386 L 94.22 183.103 L 93.737 183.862 L 93.737 183.862 Q 93.653 183.994 93.536 184.033 L 93.536 184.033 L 93.536 184.033 Q 93.418 184.072 93.291 184.048 L 93.291 184.048 L 91.108 183.611 L 89.037 186.866 L 90.356 188.659 L 90.356 188.659 Q 90.428 188.747 90.444 188.879 L 90.444 188.879 L 90.444 188.879 Q 90.46 189.01 90.38 189.136 L 90.38 189.136 L 89.896 189.895 L 84.489 182.378 L 85.121 181.386 L 85.121 181.386 Z  M 94.811 180.691 L 95.916 179.195 L 95.916 179.195 Q 96.212 178.795 96.334 178.437 L 96.334 178.437 L 96.334 178.437 Q 96.457 178.08 96.427 177.771 L 96.427 177.771 L 96.427 177.771 Q 96.398 177.462 96.233 177.206 L 96.233 177.206 L 96.233 177.206 Q 96.068 176.95 95.793 176.747 L 95.793 176.747 L 95.793 176.747 Q 95.257 176.351 94.664 176.502 L 94.664 176.502 L 94.664 176.502 Q 94.072 176.654 93.508 177.416 L 93.508 177.416 L 92.403 178.912 L 94.811 180.691 L 94.811 180.691 Z  M 90.318 175.402 L 89.377 176.676 L 91.737 178.42 L 92.65 177.185 L 92.65 177.185 Q 92.942 176.789 93.071 176.433 L 93.071 176.433 L 93.071 176.433 Q 93.2 176.077 93.186 175.772 L 93.186 175.772 L 93.186 175.772 Q 93.173 175.467 93.021 175.213 L 93.021 175.213 L 93.021 175.213 Q 92.869 174.959 92.608 174.767 L 92.608 174.767 L 92.608 174.767 Q 91.995 174.314 91.442 174.472 L 91.442 174.472 L 91.442 174.472 Q 90.889 174.63 90.318 175.402 L 90.318 175.402 L 90.318 175.402 Z  M 87.951 177.062 L 89.58 174.857 L 89.58 174.857 Q 90.051 174.22 90.517 173.852 L 90.517 173.852 L 90.517 173.852 Q 90.983 173.484 91.434 173.358 L 91.434 173.358 L 91.434 173.358 Q 91.885 173.232 92.323 173.34 L 92.323 173.34 L 92.323 173.34 Q 92.762 173.448 93.182 173.758 L 93.182 173.758 L 93.182 173.758 Q 93.438 173.947 93.613 174.2 L 93.613 174.2 L 93.613 174.2 Q 93.788 174.452 93.873 174.761 L 93.873 174.761 L 93.873 174.761 Q 93.958 175.07 93.94 175.433 L 93.94 175.433 L 93.94 175.433 Q 93.921 175.797 93.78 176.2 L 93.78 176.2 L 93.78 176.2 Q 94.488 175.544 95.17 175.455 L 95.17 175.455 L 95.17 175.455 Q 95.852 175.365 96.498 175.843 L 96.498 175.843 L 96.498 175.843 Q 96.937 176.167 97.18 176.596 L 97.18 176.596 L 97.18 176.596 Q 97.422 177.026 97.453 177.529 L 97.453 177.529 L 97.453 177.529 Q 97.484 178.033 97.291 178.592 L 97.291 178.592 L 97.291 178.592 Q 97.098 179.151 96.67 179.73 L 96.67 179.73 L 94.866 182.172 L 87.951 177.062 L 87.951 177.062 Z  M 96.567 166.443 L 97.264 167.04 L 94.571 170.177 L 100.398 175.18 L 99.64 176.063 L 93.116 170.463 L 96.567 166.443 L 96.567 166.443 Z  M 101.767 164.398 L 103.68 170.324 L 107.704 166.886 L 102.178 164.039 L 102.178 164.039 Q 102.015 163.95 101.816 163.823 L 101.816 163.823 L 101.816 163.823 Q 101.617 163.697 101.396 163.539 L 101.396 163.539 L 101.396 163.539 Q 101.521 163.787 101.612 164.005 L 101.612 164.005 L 101.612 164.005 Q 101.704 164.223 101.767 164.398 L 101.767 164.398 L 101.767 164.398 Z  M 101.212 162.355 L 108.523 166.044 L 108.523 166.044 Q 108.686 166.133 108.829 166.24 L 108.829 166.24 L 108.829 166.24 Q 108.972 166.347 109.089 166.484 L 109.089 166.484 L 109.311 166.744 L 103.371 171.819 L 103.157 171.568 L 103.157 171.568 Q 102.947 171.321 102.814 170.953 L 102.814 170.953 L 100.318 163.118 L 101.212 162.355 L 101.212 162.355 Z  M 110.736 164.578 L 114.088 162.148 L 114.639 162.919 L 110.35 166.029 L 105.303 159.067 L 109.593 155.958 L 110.149 156.725 L 106.802 159.152 L 108.479 161.464 L 111.189 159.499 L 111.725 160.237 L 109.014 162.202 L 110.736 164.578 L 110.736 164.578 Z  M 117.099 151.807 L 117.301 152.189 L 117.301 152.189 Q 117.393 152.364 117.375 152.584 L 117.375 152.584 L 116.275 160.901 L 120.617 158.6 L 121.061 159.438 L 115.366 162.455 L 115.153 162.052 L 115.153 162.052 Q 115.108 161.967 115.098 161.878 L 115.098 161.878 L 115.098 161.878 Q 115.088 161.788 115.094 161.697 L 115.094 161.697 L 116.196 153.358 L 111.986 155.589 L 111.542 154.751 L 117.099 151.807 L 117.099 151.807 Z  M 124.568 148.648 L 125.644 148.203 L 128.928 156.149 L 127.852 156.594 L 126.358 152.978 L 122.072 154.75 L 123.566 158.365 L 122.49 158.81 L 119.206 150.864 L 120.282 150.419 L 121.746 153.963 L 126.032 152.191 L 124.568 148.648 L 124.568 148.648 Z  M 131.977 151.189 L 131.734 150.272 L 134.995 149.411 L 135.237 150.327 L 131.977 151.189 L 131.977 151.189 Z  M 137.599 149.262 L 137.599 149.262 L 137.599 149.262 Q 137.846 150.196 137.756 151.055 L 137.756 151.055 L 137.756 151.055 Q 137.667 151.913 137.276 152.618 L 137.276 152.618 L 137.276 152.618 Q 136.885 153.323 136.21 153.834 L 136.21 153.834 L 136.21 153.834 Q 135.535 154.344 134.619 154.586 L 134.619 154.586 L 134.619 154.586 Q 133.702 154.829 132.866 154.718 L 132.866 154.718 L 132.866 154.718 Q 132.03 154.607 131.342 154.186 L 131.342 154.186 L 131.342 154.186 Q 130.653 153.766 130.151 153.064 L 130.151 153.064 L 130.151 153.064 Q 129.649 152.362 129.402 151.428 L 129.402 151.428 L 129.402 151.428 Q 129.156 150.494 129.245 149.636 L 129.245 149.636 L 129.245 149.636 Q 129.335 148.778 129.725 148.069 L 129.725 148.069 L 129.725 148.069 Q 130.115 147.361 130.786 146.849 L 130.786 146.849 L 130.786 146.849 Q 131.458 146.336 132.374 146.094 L 132.374 146.094 L 132.374 146.094 Q 133.291 145.852 134.131 145.965 L 134.131 145.965 L 134.131 145.965 Q 134.97 146.078 135.659 146.501 L 135.659 146.501 L 135.659 146.501 Q 136.348 146.924 136.85 147.626 L 136.85 147.626 L 136.85 147.626 Q 137.352 148.328 137.599 149.262 Z  M 136.445 149.567 L 136.445 149.567 L 136.445 149.567 Q 136.242 148.802 135.873 148.248 L 135.873 148.248 L 135.873 148.248 Q 135.503 147.694 135.009 147.374 L 135.009 147.374 L 135.009 147.374 Q 134.515 147.055 133.91 146.973 L 133.91 146.973 L 133.91 146.973 Q 133.305 146.891 132.632 147.069 L 132.632 147.069 L 132.632 147.069 Q 131.965 147.245 131.479 147.615 L 131.479 147.615 L 131.479 147.615 Q 130.994 147.985 130.719 148.508 L 130.719 148.508 L 130.719 148.508 Q 130.444 149.031 130.397 149.695 L 130.397 149.695 L 130.397 149.695 Q 130.349 150.359 130.551 151.125 L 130.551 151.125 L 130.551 151.125 Q 130.753 151.89 131.122 152.441 L 131.122 152.441 L 131.122 152.441 Q 131.491 152.992 131.988 153.311 L 131.988 153.311 L 131.988 153.311 Q 132.485 153.63 133.09 153.709 L 133.09 153.709 L 133.09 153.709 Q 133.694 153.788 134.361 153.612 L 134.361 153.612 L 134.361 153.612 Q 135.034 153.434 135.52 153.067 L 135.52 153.067 L 135.52 153.067 Q 136.006 152.699 136.278 152.177 L 136.278 152.177 L 136.278 152.177 Q 136.55 151.656 136.598 150.994 L 136.598 150.994 L 136.598 150.994 Q 136.647 150.333 136.445 149.567 Z  M 139.76 144.435 L 141.468 152.862 L 140.327 153.093 L 138.619 144.666 L 139.76 144.435 L 139.76 144.435 Z  M 146.421 147.835 L 150.401 151.365 L 149.404 151.513 L 149.404 151.513 Q 149.291 151.529 149.208 151.526 L 149.208 151.526 L 149.208 151.526 Q 149.126 151.523 149.062 151.499 L 149.062 151.499 L 149.062 151.499 Q 148.998 151.476 148.947 151.438 L 148.947 151.438 L 148.947 151.438 Q 148.896 151.4 148.845 151.346 L 148.845 151.346 L 145.414 148.403 L 145.414 148.403 Q 145.273 148.272 145.127 148.23 L 145.127 148.23 L 145.127 148.23 Q 144.981 148.188 144.703 148.229 L 144.703 148.229 L 144.18 148.306 L 144.756 152.2 L 143.611 152.369 L 142.353 143.864 L 143.498 143.694 L 144.049 147.422 L 144.483 147.358 L 144.483 147.358 Q 144.708 147.324 144.836 147.248 L 144.836 147.248 L 144.836 147.248 Q 144.965 147.171 145.057 147.018 L 145.057 147.018 L 147.414 143.394 L 147.414 143.394 Q 147.51 143.222 147.632 143.144 L 147.632 143.144 L 147.632 143.144 Q 147.754 143.065 147.944 143.037 L 147.944 143.037 L 148.917 142.893 L 146.218 147.034 L 146.218 147.034 Q 146.12 147.194 146.024 147.303 L 146.024 147.303 L 146.024 147.303 Q 145.928 147.411 145.811 147.483 L 145.811 147.483 L 145.811 147.483 Q 145.98 147.518 146.129 147.6 L 146.129 147.6 L 146.129 147.6 Q 146.277 147.681 146.421 147.835 L 146.421 147.835 L 146.421 147.835 Z  M 154.095 142.325 L 158.427 150.536 L 157.436 150.634 L 157.436 150.634 Q 157.281 150.65 157.178 150.582 L 157.178 150.582 L 157.178 150.582 Q 157.074 150.513 157.015 150.399 L 157.015 150.399 L 154 144.601 L 154 144.601 Q 153.903 144.406 153.807 144.174 L 153.807 144.174 L 153.807 144.174 Q 153.712 143.942 153.621 143.692 L 153.621 143.692 L 153.621 143.692 Q 153.593 143.954 153.551 144.199 L 153.551 144.199 L 153.551 144.199 Q 153.508 144.445 153.451 144.655 L 153.451 144.655 L 151.635 150.93 L 151.635 150.93 Q 151.61 151.041 151.517 151.135 L 151.517 151.135 L 151.517 151.135 Q 151.423 151.228 151.274 151.243 L 151.274 151.243 L 150.408 151.329 L 153.05 142.428 L 154.095 142.325 L 154.095 142.325 Z  M 167.163 141.471 L 168.02 141.424 L 168.488 150.009 L 167.469 150.065 L 167.125 143.756 L 167.125 143.756 Q 167.118 143.631 167.12 143.486 L 167.12 143.486 L 167.12 143.486 Q 167.121 143.342 167.125 143.192 L 167.125 143.192 L 164.47 148.72 L 164.47 148.72 Q 164.347 148.997 164.065 149.013 L 164.065 149.013 L 163.897 149.022 L 163.897 149.022 Q 163.616 149.037 163.463 148.775 L 163.463 148.775 L 160.162 143.547 L 160.162 143.547 Q 160.215 143.863 160.23 144.132 L 160.23 144.132 L 160.574 150.441 L 159.555 150.497 L 159.087 141.911 L 159.944 141.865 L 159.944 141.865 Q 160.099 141.856 160.185 141.882 L 160.185 141.882 L 160.185 141.882 Q 160.27 141.907 160.356 142.04 L 160.356 142.04 L 163.61 147.163 L 163.61 147.163 Q 163.689 147.303 163.767 147.455 L 163.767 147.455 L 163.767 147.455 Q 163.844 147.607 163.913 147.765 L 163.913 147.765 L 163.913 147.765 Q 163.964 147.6 164.021 147.438 L 164.021 147.438 L 164.021 147.438 Q 164.079 147.275 164.149 147.127 L 164.149 147.127 L 166.772 141.69 L 166.772 141.69 Q 166.837 141.549 166.922 141.514 L 166.922 141.514 L 166.922 141.514 Q 167.007 141.479 167.163 141.471 L 167.163 141.471 L 167.163 141.471 Z " fill-rule="evenodd" fill="rgb(0,0,0)"/><path d=" M 240 70 Q 249.384 49.46 270 40 Q 290.616 30.54 320 30" fill="none" vector-effect="non-scaling-stroke" stroke-width="1" stroke="rgb(0,0,0)" stroke-linejoin="miter" stroke-linecap="square" stroke-miterlimit="3"/><path d=" M 315.051 32.599 L 320 30 L 314.951 27.6 Z " fill="rgb(0,0,0)" stroke="none"/><path d=" M 238.265 66.213 L 239.84 63.416 L 236.13 62.876 L 236.13 62.876 Q 235.964 62.851 235.752 62.807 L 235.752 62.807 L 235.752 62.807 Q 235.539 62.763 235.306 62.701 L 235.306 62.701 L 235.306 62.701 Q 235.667 63.049 235.885 63.323 L 235.885 63.323 L 238.265 66.213 L 238.265 66.213 Z  M 234.632 61.646 L 243.811 62.87 L 243.369 63.654 L 243.369 63.654 Q 243.293 63.79 243.178 63.836 L 243.178 63.836 L 243.178 63.836 Q 243.062 63.881 242.934 63.864 L 242.934 63.864 L 240.731 63.546 L 238.838 66.907 L 240.252 68.627 L 240.252 68.627 Q 240.328 68.711 240.352 68.841 L 240.352 68.841 L 240.352 68.841 Q 240.375 68.971 240.301 69.102 L 240.301 69.102 L 239.859 69.886 L 234.055 62.671 L 234.632 61.646 L 234.632 61.646 Z  M 244.33 60.448 L 245.382 58.914 L 245.382 58.914 Q 245.664 58.503 245.774 58.142 L 245.774 58.142 L 245.774 58.142 Q 245.883 57.781 245.843 57.473 L 245.843 57.473 L 245.843 57.473 Q 245.803 57.166 245.629 56.915 L 245.629 56.915 L 245.629 56.915 Q 245.455 56.665 245.173 56.471 L 245.173 56.471 L 245.173 56.471 Q 244.624 56.095 244.037 56.267 L 244.037 56.267 L 244.037 56.267 Q 243.45 56.438 242.913 57.22 L 242.913 57.22 L 241.861 58.754 L 244.33 60.448 L 244.33 60.448 Z  M 239.655 55.319 L 238.759 56.626 L 241.178 58.285 L 242.047 57.019 L 242.047 57.019 Q 242.326 56.613 242.442 56.253 L 242.442 56.253 L 242.442 56.253 Q 242.558 55.892 242.534 55.588 L 242.534 55.588 L 242.534 55.588 Q 242.51 55.284 242.349 55.036 L 242.349 55.036 L 242.349 55.036 Q 242.189 54.787 241.921 54.604 L 241.921 54.604 L 241.921 54.604 Q 241.293 54.173 240.746 54.35 L 240.746 54.35 L 240.746 54.35 Q 240.198 54.528 239.655 55.319 L 239.655 55.319 L 239.655 55.319 Z  M 237.347 57.061 L 238.898 54.8 L 238.898 54.8 Q 239.346 54.147 239.799 53.763 L 239.799 53.763 L 239.799 53.763 Q 240.252 53.379 240.698 53.237 L 240.698 53.237 L 240.698 53.237 Q 241.144 53.096 241.587 53.188 L 241.587 53.188 L 241.587 53.188 Q 242.029 53.281 242.459 53.576 L 242.459 53.576 L 242.459 53.576 Q 242.722 53.756 242.906 54.002 L 242.906 54.002 L 242.906 54.002 Q 243.09 54.249 243.185 54.554 L 243.185 54.554 L 243.185 54.554 Q 243.281 54.86 243.275 55.224 L 243.275 55.224 L 243.275 55.224 Q 243.27 55.587 243.143 55.995 L 243.143 55.995 L 243.143 55.995 Q 243.828 55.315 244.506 55.202 L 244.506 55.202 L 244.506 55.202 Q 245.184 55.089 245.847 55.543 L 245.847 55.543 L 245.847 55.543 Q 246.297 55.852 246.554 56.273 L 246.554 56.273 L 246.554 56.273 Q 246.811 56.693 246.86 57.195 L 246.86 57.195 L 246.86 57.195 Q 246.908 57.698 246.735 58.263 L 246.735 58.263 L 246.735 58.263 Q 246.562 58.828 246.154 59.422 L 246.154 59.422 L 244.437 61.925 L 237.347 57.061 L 237.347 57.061 Z  M 251.939 50.059 L 251.939 50.059 L 251.939 50.059 Q 252.007 49.991 252.113 49.995 L 252.113 49.995 L 252.792 50.021 L 252.792 50.021 Q 252.851 50.827 252.56 51.601 L 252.56 51.601 L 252.56 51.601 Q 252.27 52.375 251.515 53.131 L 251.515 53.131 L 251.515 53.131 Q 250.861 53.784 250.1 54.092 L 250.1 54.092 L 250.1 54.092 Q 249.338 54.399 248.551 54.367 L 248.551 54.367 L 248.551 54.367 Q 247.764 54.336 246.984 53.971 L 246.984 53.971 L 246.984 53.971 Q 246.203 53.606 245.516 52.918 L 245.516 52.918 L 245.516 52.918 Q 244.828 52.231 244.472 51.442 L 244.472 51.442 L 244.472 51.442 Q 244.115 50.653 244.096 49.849 L 244.096 49.849 L 244.096 49.849 Q 244.077 49.045 244.398 48.271 L 244.398 48.271 L 244.398 48.271 Q 244.718 47.496 245.38 46.835 L 245.38 46.835 L 245.38 46.835 Q 246.029 46.185 246.733 45.897 L 246.733 45.897 L 246.733 45.897 Q 247.437 45.608 248.171 45.587 L 248.171 45.587 L 248.278 46.236 L 248.278 46.236 Q 248.294 46.304 248.282 46.372 L 248.282 46.372 L 248.282 46.372 Q 248.269 46.44 248.201 46.508 L 248.201 46.508 L 248.201 46.508 Q 248.125 46.584 247.932 46.612 L 247.932 46.612 L 247.932 46.612 Q 247.739 46.639 247.459 46.716 L 247.459 46.716 L 247.459 46.716 Q 247.179 46.792 246.829 46.977 L 246.829 46.977 L 246.829 46.977 Q 246.479 47.161 246.088 47.552 L 246.088 47.552 L 246.088 47.552 Q 245.617 48.022 245.39 48.576 L 245.39 48.576 L 245.39 48.576 Q 245.163 49.13 245.191 49.722 L 245.191 49.722 L 245.191 49.722 Q 245.219 50.314 245.507 50.916 L 245.507 50.916 L 245.507 50.916 Q 245.796 51.518 246.356 52.078 L 246.356 52.078 L 246.356 52.078 Q 246.924 52.647 247.533 52.929 L 247.533 52.929 L 247.533 52.929 Q 248.142 53.211 248.731 53.237 L 248.731 53.237 L 248.731 53.237 Q 249.321 53.262 249.866 53.039 L 249.866 53.039 L 249.866 53.039 Q 250.412 52.817 250.857 52.371 L 250.857 52.371 L 250.857 52.371 Q 251.129 52.1 251.315 51.849 L 251.315 51.849 L 251.315 51.849 Q 251.502 51.599 251.619 51.347 L 251.619 51.347 L 251.619 51.347 Q 251.735 51.094 251.79 50.831 L 251.79 50.831 L 251.79 50.831 Q 251.846 50.568 251.858 50.267 L 251.858 50.267 L 251.858 50.267 Q 251.867 50.131 251.939 50.059 Z  M 257.628 41.896 L 257.628 41.896 L 257.628 41.896 Q 258.245 42.64 258.515 43.445 L 258.515 43.445 L 258.515 43.445 Q 258.786 44.25 258.716 45.04 L 258.716 45.04 L 258.716 45.04 Q 258.647 45.83 258.242 46.568 L 258.242 46.568 L 258.242 46.568 Q 257.837 47.306 257.108 47.911 L 257.108 47.911 L 254.637 49.962 L 249.146 43.346 L 251.616 41.295 L 251.616 41.295 Q 252.346 40.69 253.146 40.428 L 253.146 40.428 L 253.146 40.428 Q 253.945 40.165 254.737 40.245 L 254.737 40.245 L 254.737 40.245 Q 255.528 40.325 256.27 40.739 L 256.27 40.739 L 256.27 40.739 Q 257.011 41.153 257.628 41.896 Z  M 256.709 42.659 L 256.709 42.659 L 256.709 42.659 Q 256.203 42.05 255.639 41.707 L 255.639 41.707 L 255.639 41.707 Q 255.074 41.365 254.493 41.286 L 254.493 41.286 L 254.493 41.286 Q 253.913 41.206 253.333 41.391 L 253.333 41.391 L 253.333 41.391 Q 252.753 41.576 252.218 42.02 L 252.218 42.02 L 250.644 43.327 L 254.932 48.493 L 256.506 47.187 L 256.506 47.187 Q 257.041 46.742 257.33 46.206 L 257.33 46.206 L 257.33 46.206 Q 257.618 45.671 257.649 45.088 L 257.649 45.088 L 257.649 45.088 Q 257.68 44.505 257.447 43.887 L 257.447 43.887 L 257.447 43.887 Q 257.215 43.268 256.709 42.659 Z  M 262.41 42.992 L 266.016 40.957 L 266.476 41.785 L 261.863 44.39 L 257.636 36.902 L 262.25 34.298 L 262.716 35.123 L 259.116 37.155 L 260.52 39.643 L 263.435 37.997 L 263.883 38.791 L 260.968 40.437 L 262.41 42.992 L 262.41 42.992 Z  M 269.349 31.817 L 265.627 33.617 L 266.937 36.323 L 270.118 34.784 L 270.531 35.637 L 267.35 37.176 L 268.96 40.503 L 267.912 41.01 L 264.167 33.271 L 268.936 30.963 L 269.349 31.817 L 269.349 31.817 Z  M 276.689 32.856 L 279.154 31.909 L 280.338 34.989 L 280.338 34.989 Q 279.901 35.658 279.297 36.138 L 279.297 36.138 L 279.297 36.138 Q 278.694 36.617 277.877 36.931 L 277.877 36.931 L 277.877 36.931 Q 276.908 37.304 276.014 37.303 L 276.014 37.303 L 276.014 37.303 Q 275.12 37.303 274.361 36.974 L 274.361 36.974 L 274.361 36.974 Q 273.602 36.646 273.014 36.004 L 273.014 36.004 L 273.014 36.004 Q 272.427 35.362 272.078 34.455 L 272.078 34.455 L 272.078 34.455 Q 271.725 33.536 271.723 32.669 L 271.723 32.669 L 271.723 32.669 Q 271.721 31.802 272.045 31.057 L 272.045 31.057 L 272.045 31.057 Q 272.369 30.313 273.017 29.723 L 273.017 29.723 L 273.017 29.723 Q 273.664 29.133 274.605 28.772 L 274.605 28.772 L 274.605 28.772 Q 275.081 28.589 275.517 28.502 L 275.517 28.502 L 275.517 28.502 Q 275.953 28.414 276.351 28.413 L 276.351 28.413 L 276.351 28.413 Q 276.748 28.411 277.117 28.484 L 277.117 28.484 L 277.117 28.484 Q 277.486 28.558 277.834 28.694 L 277.834 28.694 L 277.716 29.305 L 277.716 29.305 Q 277.686 29.445 277.583 29.52 L 277.583 29.52 L 277.583 29.52 Q 277.48 29.595 277.308 29.565 L 277.308 29.565 L 277.308 29.565 Q 277.143 29.538 276.927 29.493 L 276.927 29.493 L 276.927 29.493 Q 276.71 29.448 276.421 29.44 L 276.421 29.44 L 276.421 29.44 Q 276.132 29.432 275.765 29.489 L 275.765 29.489 L 275.765 29.489 Q 275.398 29.547 274.933 29.726 L 274.933 29.726 L 274.933 29.726 Q 274.256 29.986 273.792 30.418 L 273.792 30.418 L 273.792 30.418 Q 273.328 30.85 273.1 31.411 L 273.1 31.411 L 273.1 31.411 Q 272.872 31.971 272.889 32.636 L 272.889 32.636 L 272.889 32.636 Q 272.907 33.301 273.187 34.029 L 273.187 34.029 L 273.187 34.029 Q 273.478 34.785 273.922 35.298 L 273.922 35.298 L 273.922 35.298 Q 274.367 35.812 274.928 36.075 L 274.928 36.075 L 274.928 36.075 Q 275.489 36.338 276.144 36.337 L 276.144 36.337 L 276.144 36.337 Q 276.799 36.336 277.511 36.063 L 277.511 36.063 L 277.511 36.063 Q 278.071 35.847 278.456 35.555 L 278.456 35.555 L 278.456 35.555 Q 278.842 35.262 279.17 34.878 L 279.17 34.878 L 278.492 33.114 L 277.243 33.594 L 277.243 33.594 Q 277.137 33.635 277.049 33.598 L 277.049 33.598 L 277.049 33.598 Q 276.961 33.562 276.926 33.472 L 276.926 33.472 L 276.689 32.856 L 276.689 32.856 Z  M 285.859 25.542 L 286.986 25.253 L 289.117 33.583 L 287.99 33.872 L 287.02 30.082 L 282.527 31.231 L 283.496 35.021 L 282.369 35.309 L 280.238 26.98 L 281.365 26.691 L 282.316 30.406 L 286.809 29.256 L 285.859 25.542 L 285.859 25.542 Z  M 290.719 24.461 L 292.405 32.892 L 291.263 33.12 L 289.577 24.689 L 290.719 24.461 L 290.719 24.461 Z  M 295.778 23.449 L 296.882 28.968 L 296.882 28.968 Q 297.023 29.674 296.962 30.267 L 296.962 30.267 L 296.962 30.267 Q 296.9 30.861 296.639 31.314 L 296.639 31.314 L 296.639 31.314 Q 296.377 31.767 295.924 32.072 L 295.924 32.072 L 295.924 32.072 Q 295.471 32.377 294.83 32.505 L 294.83 32.505 L 294.83 32.505 Q 294.247 32.621 293.609 32.578 L 293.609 32.578 L 293.609 32.578 Q 293.586 32.405 293.57 32.234 L 293.57 32.234 L 293.57 32.234 Q 293.554 32.063 293.533 31.895 L 293.533 31.895 L 293.533 31.895 Q 293.525 31.793 293.574 31.719 L 293.574 31.719 L 293.574 31.719 Q 293.624 31.645 293.753 31.619 L 293.753 31.619 L 293.753 31.619 Q 293.859 31.598 294.043 31.616 L 294.043 31.616 L 294.043 31.616 Q 294.227 31.634 294.522 31.575 L 294.522 31.575 L 294.522 31.575 Q 294.91 31.498 295.192 31.319 L 295.192 31.319 L 295.192 31.319 Q 295.475 31.14 295.631 30.852 L 295.631 30.852 L 295.631 30.852 Q 295.788 30.563 295.82 30.156 L 295.82 30.156 L 295.82 30.156 Q 295.851 29.749 295.745 29.22 L 295.745 29.22 L 294.637 23.677 L 295.778 23.449 L 295.778 23.449 Z  M 299.44 22.97 L 299.995 26.697 L 300.428 26.632 L 300.428 26.632 Q 300.654 26.599 300.782 26.522 L 300.782 26.522 L 300.782 26.522 Q 300.91 26.445 301.002 26.292 L 301.002 26.292 L 303.356 22.666 L 303.356 22.666 Q 303.452 22.494 303.573 22.415 L 303.573 22.415 L 303.573 22.415 Q 303.695 22.336 303.885 22.308 L 303.885 22.308 L 304.858 22.163 L 302.163 26.307 L 302.163 26.307 Q 302.066 26.467 301.97 26.576 L 301.97 26.576 L 301.97 26.576 Q 301.873 26.684 301.758 26.762 L 301.758 26.762 L 301.758 26.762 Q 301.926 26.791 302.072 26.876 L 302.072 26.876 L 302.072 26.876 Q 302.218 26.96 302.367 27.108 L 302.367 27.108 L 306.35 30.634 L 305.353 30.782 L 305.353 30.782 Q 305.24 30.799 305.158 30.796 L 305.158 30.796 L 305.158 30.796 Q 305.075 30.793 305.011 30.77 L 305.011 30.77 L 305.011 30.77 Q 304.947 30.746 304.896 30.708 L 304.896 30.708 L 304.896 30.708 Q 304.845 30.67 304.794 30.617 L 304.794 30.617 L 301.36 27.676 L 301.36 27.676 Q 301.219 27.546 301.073 27.504 L 301.073 27.504 L 301.073 27.504 Q 300.928 27.462 300.649 27.503 L 300.649 27.503 L 300.126 27.581 L 300.706 31.474 L 299.561 31.645 L 298.295 23.14 L 299.44 22.97 L 299.44 22.97 Z  M 308.506 29.613 L 312.206 29.236 L 312.306 30.209 L 307.453 30.703 L 306.581 22.149 L 307.733 22.032 L 308.506 29.613 L 308.506 29.613 Z  M 321.437 21.358 L 322.295 21.334 L 322.537 29.929 L 321.517 29.957 L 321.34 23.642 L 321.34 23.642 Q 321.336 23.516 321.341 23.372 L 321.341 23.372 L 321.341 23.372 Q 321.346 23.228 321.354 23.077 L 321.354 23.077 L 318.554 28.534 L 318.554 28.534 Q 318.424 28.808 318.142 28.816 L 318.142 28.816 L 317.974 28.82 L 317.974 28.82 Q 317.692 28.828 317.546 28.562 L 317.546 28.562 L 314.384 23.249 L 314.384 23.249 Q 314.429 23.566 314.436 23.836 L 314.436 23.836 L 314.614 30.151 L 313.594 30.18 L 313.353 21.585 L 314.21 21.561 L 314.21 21.561 Q 314.366 21.557 314.451 21.585 L 314.451 21.585 L 314.451 21.585 Q 314.536 21.612 314.618 21.748 L 314.618 21.748 L 317.735 26.954 L 317.735 26.954 Q 317.811 27.096 317.885 27.25 L 317.885 27.25 L 317.885 27.25 Q 317.958 27.404 318.022 27.565 L 318.022 27.565 L 318.022 27.565 Q 318.078 27.401 318.139 27.24 L 318.139 27.24 L 318.139 27.24 Q 318.201 27.079 318.275 26.933 L 318.275 26.933 L 321.041 21.567 L 321.041 21.567 Q 321.109 21.427 321.195 21.395 L 321.195 21.395 L 321.195 21.395 Q 321.281 21.363 321.437 21.358 L 321.437 21.358 L 321.437 21.358 Z " fill-rule="evenodd" fill="rgb(0,0,0)"/></g></svg>