<?xml version="1.0" standalone="no"?><!-- Generator: Gravit.io --><svg xmlns="http://www.w3.org/2000/svg" xmlns:xlink="http://www.w3.org/1999/xlink" style="isolation:isolate" viewBox="0 0 460 350" width="460" height="350"><defs><clipPath id="_clipPath_9dt0aAO4akxAI329deRzhTbbrfhIgzOy"><rect width="460" height="350"/></clipPath></defs><g clip-path="url(#_clipPath_9dt0aAO4akxAI329deRzhTbbrfhIgzOy)"><rect x="20" y="250" width="120" height="30" transform="matrix(1,0,0,1,0,0)" fill="rgb(235,235,235)"/><path d=" M 64.552 268.856 L 64.552 267.832 L 51.928 267.832 L 51.928 268.856 L 64.552 268.856 Z  M 62.744 258.504 L 53.24 258.504 L 53.24 259.512 L 61.496 259.512 C 61.496 261.8 61.288 264.84 60.904 266.616 L 62.12 266.776 C 62.552 264.632 62.744 261.72 62.744 258.504 Z  M 76.04 256.936 L 76.04 270.92 L 77.256 270.92 L 77.256 256.936 L 76.04 256.936 Z  M 74.76 266.104 C 73.064 266.408 70.296 266.536 68.072 266.536 L 67.736 266.536 L 67.736 263.192 L 73.048 263.192 L 73.048 258.232 L 66.456 258.232 L 66.456 259.24 L 71.816 259.24 L 71.816 262.184 L 66.52 262.184 L 66.52 267.576 L 67.944 267.576 C 71.016 267.576 73.416 267.336 74.872 267.112 L 74.76 266.104 Z  M 91.768 264.136 C 89.624 263.656 86.552 261.496 86.552 259.208 L 86.552 258.104 L 85.288 258.104 L 85.288 259.208 C 85.288 261.496 82.376 263.656 80.104 264.104 L 80.744 265.144 C 83.176 264.456 85.4 262.472 85.896 261.048 C 86.472 262.472 88.744 264.456 91.096 265.16 L 91.768 264.136 Z  M 92.232 269 L 92.232 267.976 L 79.608 267.976 L 79.608 269 L 92.232 269 Z  M 93.624 262.856 C 93.624 265.832 94.904 267.8 97.16 267.8 C 99.288 267.8 100.536 266.04 100.664 263.352 L 103.656 263.352 L 103.656 270.92 L 104.872 270.92 L 104.872 256.936 L 103.656 256.936 L 103.656 262.312 L 100.664 262.312 C 100.504 259.656 99.272 257.912 97.16 257.912 C 94.904 257.912 93.624 259.896 93.624 262.856 Z  M 99.48 262.872 C 99.48 265.144 98.536 266.744 97.16 266.744 C 95.768 266.744 94.84 265.144 94.84 262.872 C 94.84 260.568 95.768 258.968 97.16 258.968 C 98.536 258.968 99.48 260.568 99.48 262.872 Z " fill-rule="evenodd" fill="rgb(0,0,0)"/><rect x="170" y="190" width="120" height="30" transform="matrix(1,0,0,1,0,0)" fill="rgb(235,235,235)"/><path d=" M 219.584 196.936 L 218.384 196.936 L 218.384 210.92 L 219.584 210.92 L 219.584 203.592 L 221.84 203.592 L 221.84 202.568 L 219.584 202.568 L 219.584 196.936 Z  M 217.152 206.088 C 215.28 206.44 212.8 206.584 210.576 206.568 L 210.576 203.192 L 215.792 203.192 L 215.792 198.232 L 209.328 198.232 L 209.328 199.24 L 214.576 199.24 L 214.576 202.184 L 209.36 202.184 L 209.36 207.592 L 210.544 207.592 C 212.832 207.592 215.744 207.384 217.312 207.064 L 217.152 206.088 Z  M 234.432 210.456 L 234.432 209.432 L 226.272 209.432 L 226.272 206.328 L 225.056 206.328 L 225.056 210.456 L 234.432 210.456 Z  M 234.112 196.936 L 232.896 196.936 L 232.896 207.144 L 234.112 207.144 L 234.112 196.936 Z  M 231.232 203.656 C 229.632 203.96 227.008 204.04 225.136 204.04 L 224.688 204.04 L 224.688 201.976 L 229.728 201.976 L 229.728 200.984 L 224.688 200.984 L 224.688 199.128 L 229.936 199.128 L 229.936 198.12 L 223.456 198.12 L 223.456 205.048 L 224.768 205.048 C 227.376 205.048 229.76 204.92 231.36 204.632 L 231.232 203.656 Z  M 236.704 202.856 C 236.704 205.832 237.984 207.8 240.24 207.8 C 242.368 207.8 243.616 206.04 243.744 203.352 L 246.736 203.352 L 246.736 210.92 L 247.952 210.92 L 247.952 196.936 L 246.736 196.936 L 246.736 202.312 L 243.744 202.312 C 243.584 199.656 242.352 197.912 240.24 197.912 C 237.984 197.912 236.704 199.896 236.704 202.856 Z  M 242.56 202.872 C 242.56 205.144 241.616 206.744 240.24 206.744 C 238.848 206.744 237.92 205.144 237.92 202.872 C 237.92 200.568 238.848 198.968 240.24 198.968 C 241.616 198.968 242.56 200.568 242.56 202.872 Z " fill-rule="evenodd" fill="rgb(0,0,0)"/><rect x="170" y="130" width="120" height="30" transform="matrix(1,0,0,1,0,0)" fill="rgb(235,235,235)"/><path d=" M 213.352 145.288 L 213.352 144.264 L 211.064 144.264 L 211.624 140.392 L 210.424 140.2 L 209.928 144.264 L 206.488 144.264 L 206.2 140.184 L 204.952 140.36 L 205.336 144.264 L 203.048 144.264 L 203.048 145.288 L 213.352 145.288 Z  M 214.552 149.064 L 214.552 148.024 L 201.928 148.024 L 201.928 149.064 L 214.552 149.064 Z  M 213.368 139.432 L 213.368 138.408 L 203.032 138.408 L 203.032 139.432 L 213.368 139.432 Z  M 228.632 141.72 L 228.632 140.696 L 226.504 140.696 L 226.504 136.936 L 225.304 136.936 L 225.304 145.64 L 226.504 145.64 L 226.504 141.72 L 228.632 141.72 Z  M 226.664 148.376 C 226.664 146.808 225.064 145.816 222.04 145.816 C 219 145.816 217.416 146.776 217.416 148.376 C 217.416 149.928 219 150.904 222.04 150.904 C 225.064 150.904 226.664 149.912 226.664 148.376 Z  M 222.04 146.824 C 224.152 146.824 225.416 147.384 225.416 148.376 C 225.416 149.352 224.152 149.896 222.04 149.896 C 219.912 149.896 218.664 149.32 218.664 148.376 C 218.664 147.4 219.912 146.824 222.04 146.824 Z  M 223.992 143.496 C 222.344 143.832 219.256 143.928 217.624 143.928 L 217.448 143.928 L 217.448 141.848 L 222.584 141.848 L 222.584 137.864 L 216.2 137.864 L 216.2 138.872 L 221.368 138.872 L 221.368 140.856 L 216.232 140.856 L 216.232 144.952 L 217.544 144.952 C 219.512 144.952 222.664 144.744 224.104 144.488 L 223.992 143.496 Z  M 241.768 144.136 C 239.624 143.656 236.552 141.496 236.552 139.208 L 236.552 138.104 L 235.288 138.104 L 235.288 139.208 C 235.288 141.496 232.376 143.656 230.104 144.104 L 230.744 145.144 C 233.176 144.456 235.4 142.472 235.896 141.048 C 236.472 142.472 238.744 144.456 241.096 145.16 L 241.768 144.136 Z  M 242.232 149 L 242.232 147.976 L 229.608 147.976 L 229.608 149 L 242.232 149 Z  M 243.624 142.856 C 243.624 145.832 244.904 147.8 247.16 147.8 C 249.288 147.8 250.536 146.04 250.664 143.352 L 253.656 143.352 L 253.656 150.92 L 254.872 150.92 L 254.872 136.936 L 253.656 136.936 L 253.656 142.312 L 250.664 142.312 C 250.504 139.656 249.272 137.912 247.16 137.912 C 244.904 137.912 243.624 139.896 243.624 142.856 Z  M 249.48 142.872 C 249.48 145.144 248.536 146.744 247.16 146.744 C 245.768 146.744 244.84 145.144 244.84 142.872 C 244.84 140.568 245.768 138.968 247.16 138.968 C 248.536 138.968 249.48 140.568 249.48 142.872 Z " fill-rule="evenodd" fill="rgb(0,0,0)"/><rect x="320" y="70" width="120" height="30" transform="matrix(1,0,0,1,0,0)" fill="rgb(235,235,235)"/><rect x="320" y="10" width="120" height="30" transform="matrix(1,0,0,1,0,0)" fill="rgb(235,235,235)"/><rect x="320" y="130" width="120" height="30" transform="matrix(1,0,0,1,0,0)" fill="rgb(235,235,235)"/><path d=" M 339.664 88.232 C 339.664 86.6 337.888 85.56 334.832 85.56 C 331.792 85.56 330 86.6 330 88.232 C 330 89.88 331.792 90.904 334.832 90.904 C 337.888 90.904 339.664 89.88 339.664 88.232 Z  M 334.24 81.192 C 334.24 79.32 333.008 77.96 331.088 77.96 C 329.184 77.96 327.936 79.336 327.936 81.192 C 327.936 83.08 329.184 84.456 331.104 84.456 C 333.024 84.456 334.24 83.08 334.24 81.192 Z  M 339.504 85.448 L 339.504 76.936 L 338.288 76.936 L 338.288 80.632 L 336.608 80.632 L 336.608 77.192 L 335.44 77.192 L 335.44 85 L 336.608 85 L 336.608 81.656 L 338.288 81.656 L 338.288 85.448 L 339.504 85.448 Z  M 334.832 86.6 C 337.04 86.6 338.416 87.192 338.416 88.232 C 338.416 89.272 337.04 89.88 334.832 89.88 C 332.64 89.88 331.264 89.272 331.264 88.232 C 331.264 87.192 332.64 86.6 334.832 86.6 Z  M 333.056 81.208 C 333.056 82.456 332.336 83.4 331.088 83.4 C 329.856 83.4 329.12 82.456 329.12 81.192 C 329.12 79.944 329.856 79.016 331.088 79.016 C 332.336 79.016 333.056 79.944 333.056 81.208 Z  M 353.136 90.728 L 353.136 89.752 L 344.272 89.752 L 344.272 88.152 L 352.592 88.152 L 352.592 84.776 L 342.944 84.776 L 342.944 85.752 L 351.376 85.752 L 351.376 87.256 L 343.056 87.256 L 343.056 90.728 L 353.136 90.728 Z  M 352.608 77.688 L 343.088 77.688 L 343.088 78.696 L 351.36 78.696 C 351.36 80.056 351.232 81.192 350.96 82.216 L 341.552 82.216 L 341.552 83.208 L 354.176 83.208 L 354.176 82.216 L 352.176 82.216 C 352.464 80.936 352.608 79.56 352.608 77.688 Z  M 368.016 89.144 L 368.016 88.12 L 362.288 88.12 L 362.288 85.736 L 366.848 85.736 L 366.848 84.712 L 358.16 84.712 L 358.16 82.376 L 366.448 82.376 L 366.448 78.104 L 356.928 78.104 L 356.928 79.128 L 365.232 79.128 L 365.232 81.368 L 356.944 81.368 L 356.944 85.736 L 361.072 85.736 L 361.072 88.12 L 355.392 88.12 L 355.392 89.144 L 368.016 89.144 Z  M 369.456 84.456 L 374.736 84.456 L 374.736 83.4 L 369.456 83.4 L 369.456 84.456 Z  M 387.36 84.648 L 387.36 83.64 L 378.864 83.64 L 378.864 78.136 L 377.648 78.136 L 377.648 84.648 L 381.824 84.648 L 381.824 88.04 L 376.144 88.04 L 376.144 89.064 L 388.768 89.064 L 388.768 88.04 L 383.04 88.04 L 383.04 84.648 L 387.36 84.648 Z  M 401.392 85.64 L 401.392 84.616 L 392.784 84.616 L 392.784 82.264 L 401.024 82.264 L 401.024 78.04 L 391.52 78.04 L 391.52 79.064 L 399.808 79.064 L 399.808 81.256 L 391.568 81.256 L 391.568 85.64 L 401.392 85.64 Z  M 402.608 89.016 L 402.608 87.992 L 389.984 87.992 L 389.984 89.016 L 402.608 89.016 Z  M 410.928 84.648 L 410.928 78.168 L 404.304 78.168 L 404.304 84.648 L 410.928 84.648 Z  M 409.712 83.64 L 405.52 83.64 L 405.52 79.176 L 409.712 79.176 L 409.712 83.64 Z  M 416.704 82.136 L 416.704 81.112 L 414.576 81.112 L 414.576 76.936 L 413.36 76.936 L 413.36 87.096 L 414.576 87.096 L 414.576 82.136 L 416.704 82.136 Z  M 415.12 90.44 L 415.12 89.432 L 407.04 89.432 L 407.04 86.136 L 405.824 86.136 L 405.824 90.44 L 415.12 90.44 Z  M 417.84 82.856 C 417.84 85.832 419.12 87.8 421.376 87.8 C 423.504 87.8 424.752 86.04 424.88 83.352 L 427.872 83.352 L 427.872 90.92 L 429.088 90.92 L 429.088 76.936 L 427.872 76.936 L 427.872 82.312 L 424.88 82.312 C 424.72 79.656 423.488 77.912 421.376 77.912 C 419.12 77.912 417.84 79.896 417.84 82.856 Z  M 423.696 82.872 C 423.696 85.144 422.752 86.744 421.376 86.744 C 419.984 86.744 419.056 85.144 419.056 82.872 C 419.056 80.568 419.984 78.968 421.376 78.968 C 422.752 78.968 423.696 80.568 423.696 82.872 Z " fill-rule="evenodd" fill="rgb(0,0,0)"/><path d=" M 377.208 28.296 C 377.208 26.632 375.496 25.624 372.44 25.624 C 369.4 25.624 367.688 26.632 367.688 28.296 C 367.688 29.912 369.4 30.952 372.44 30.952 C 375.496 30.952 377.208 29.912 377.208 28.296 Z  M 373.432 23.304 L 375.976 23.304 L 375.976 25.592 L 377.192 25.592 L 377.192 16.936 L 375.976 16.936 L 375.976 18.792 L 373.432 18.792 L 373.432 19.832 L 375.976 19.832 L 375.976 22.264 L 373.432 22.264 L 373.432 23.304 Z  M 375.96 28.296 C 375.96 29.32 374.664 29.912 372.44 29.912 C 370.264 29.912 368.952 29.32 368.952 28.296 C 368.952 27.256 370.264 26.648 372.44 26.648 C 374.664 26.648 375.96 27.256 375.96 28.296 Z  M 369.48 17.784 C 367.512 17.784 365.88 19.128 365.88 21.144 C 365.88 23.176 367.528 24.456 369.48 24.456 C 371.448 24.456 373.064 23.176 373.064 21.128 C 373.064 19.096 371.448 17.784 369.48 17.784 Z  M 369.48 18.824 C 370.92 18.824 371.848 19.752 371.848 21.144 C 371.848 22.552 370.904 23.464 369.48 23.464 C 368.104 23.464 367.096 22.552 367.096 21.128 C 367.096 19.736 368.104 18.824 369.48 18.824 Z  M 379.784 22.856 C 379.784 25.832 381.064 27.8 383.32 27.8 C 385.448 27.8 386.696 26.04 386.824 23.352 L 389.816 23.352 L 389.816 30.92 L 391.032 30.92 L 391.032 16.936 L 389.816 16.936 L 389.816 22.312 L 386.824 22.312 C 386.664 19.656 385.432 17.912 383.32 17.912 C 381.064 17.912 379.784 19.896 379.784 22.856 Z  M 385.64 22.872 C 385.64 25.144 384.696 26.744 383.32 26.744 C 381.928 26.744 381 25.144 381 22.872 C 381 20.568 381.928 18.968 383.32 18.968 C 384.696 18.968 385.64 20.568 385.64 22.872 Z " fill-rule="evenodd" fill="rgb(0,0,0)"/><path d=" M 346.584 148.232 C 346.584 146.6 344.808 145.56 341.752 145.56 C 338.712 145.56 336.92 146.6 336.92 148.232 C 336.92 149.88 338.712 150.904 341.752 150.904 C 344.808 150.904 346.584 149.88 346.584 148.232 Z  M 341.16 141.192 C 341.16 139.32 339.928 137.96 338.008 137.96 C 336.104 137.96 334.856 139.336 334.856 141.192 C 334.856 143.08 336.104 144.456 338.024 144.456 C 339.944 144.456 341.16 143.08 341.16 141.192 Z  M 346.424 145.448 L 346.424 136.936 L 345.208 136.936 L 345.208 140.632 L 343.528 140.632 L 343.528 137.192 L 342.36 137.192 L 342.36 145 L 343.528 145 L 343.528 141.656 L 345.208 141.656 L 345.208 145.448 L 346.424 145.448 Z  M 341.752 146.6 C 343.96 146.6 345.336 147.192 345.336 148.232 C 345.336 149.272 343.96 149.88 341.752 149.88 C 339.56 149.88 338.184 149.272 338.184 148.232 C 338.184 147.192 339.56 146.6 341.752 146.6 Z  M 339.976 141.208 C 339.976 142.456 339.256 143.4 338.008 143.4 C 336.776 143.4 336.04 142.456 336.04 141.192 C 336.04 139.944 336.776 139.016 338.008 139.016 C 339.256 139.016 339.976 139.944 339.976 141.208 Z  M 360.056 150.728 L 360.056 149.752 L 351.192 149.752 L 351.192 148.152 L 359.512 148.152 L 359.512 144.776 L 349.864 144.776 L 349.864 145.752 L 358.296 145.752 L 358.296 147.256 L 349.976 147.256 L 349.976 150.728 L 360.056 150.728 Z  M 359.528 137.688 L 350.008 137.688 L 350.008 138.696 L 358.28 138.696 C 358.28 140.056 358.152 141.192 357.88 142.216 L 348.472 142.216 L 348.472 143.208 L 361.096 143.208 L 361.096 142.216 L 359.096 142.216 C 359.384 140.936 359.528 139.56 359.528 137.688 Z  M 374.936 149.144 L 374.936 148.12 L 369.208 148.12 L 369.208 145.736 L 373.768 145.736 L 373.768 144.712 L 365.08 144.712 L 365.08 142.376 L 373.368 142.376 L 373.368 138.104 L 363.848 138.104 L 363.848 139.128 L 372.152 139.128 L 372.152 141.368 L 363.864 141.368 L 363.864 145.736 L 367.992 145.736 L 367.992 148.12 L 362.312 148.12 L 362.312 149.144 L 374.936 149.144 Z  M 376.376 144.456 L 381.656 144.456 L 381.656 143.4 L 376.376 143.4 L 376.376 144.456 Z  M 394.856 145.32 L 394.856 136.936 L 393.64 136.936 L 393.64 140.536 L 391.864 140.536 L 391.864 137.192 L 390.68 137.192 L 390.68 145.208 L 391.864 145.208 L 391.864 141.56 L 393.64 141.56 L 393.64 145.32 L 394.856 145.32 Z  M 394.856 150.92 L 394.856 146.072 L 385.464 146.072 L 385.464 147.096 L 393.624 147.096 L 393.624 150.92 L 394.856 150.92 Z  M 390.056 143.64 C 388.712 143.064 387.112 141.608 387.112 139.464 L 387.112 137.752 L 385.928 137.752 L 385.928 139.496 C 385.928 141.592 384.424 143.288 382.936 144.088 L 383.688 145.016 C 384.984 144.264 386.2 142.76 386.552 141.624 C 387.032 142.712 388.136 143.976 389.384 144.568 L 390.056 143.64 Z  M 408.872 141.88 C 406.744 141.672 403.864 139.88 403.864 137.928 L 403.864 137.368 L 402.6 137.368 L 402.6 137.928 C 402.6 139.88 399.928 141.624 397.608 141.88 L 398.168 142.904 C 400.568 142.472 402.664 140.872 403.208 139.528 C 403.848 140.872 405.992 142.488 408.312 142.904 L 408.872 141.88 Z  M 409.528 145.304 L 409.528 144.28 L 396.904 144.28 L 396.904 145.304 L 409.528 145.304 Z  M 408.088 150.488 L 408.088 149.464 L 399.752 149.464 L 399.752 146.504 L 398.536 146.504 L 398.536 150.488 L 408.088 150.488 Z  M 410.92 142.856 C 410.92 145.832 412.2 147.8 414.456 147.8 C 416.584 147.8 417.832 146.04 417.96 143.352 L 420.952 143.352 L 420.952 150.92 L 422.168 150.92 L 422.168 136.936 L 420.952 136.936 L 420.952 142.312 L 417.96 142.312 C 417.8 139.656 416.568 137.912 414.456 137.912 C 412.2 137.912 410.92 139.896 410.92 142.856 Z  M 416.776 142.872 C 416.776 145.144 415.832 146.744 414.456 146.744 C 413.064 146.744 412.136 145.144 412.136 142.872 C 412.136 140.568 413.064 138.968 414.456 138.968 C 415.832 138.968 416.776 140.568 416.776 142.872 Z " fill-rule="evenodd" fill="rgb(0,0,0)"/><rect x="20" y="310" width="420" height="30" transform="matrix(1,0,0,1,0,0)" fill="rgb(235,235,235)"/><path d=" M 199.512 327.144 L 199.512 316.936 L 198.296 316.936 L 198.296 327.144 L 199.512 327.144 Z  M 199.864 330.456 L 199.864 329.448 L 191.608 329.448 L 191.608 326.136 L 190.392 326.136 L 190.392 330.456 L 199.864 330.456 Z  M 192.152 317.864 C 190.04 317.864 188.392 319.288 188.392 321.368 C 188.392 323.448 190.04 324.824 192.168 324.824 C 194.296 324.824 195.928 323.432 195.928 321.352 C 195.928 319.272 194.28 317.864 192.152 317.864 Z  M 192.152 318.92 C 193.704 318.92 194.776 319.928 194.776 321.368 C 194.776 322.76 193.704 323.752 192.168 323.752 C 190.696 323.752 189.56 322.76 189.56 321.352 C 189.56 319.928 190.68 318.92 192.152 318.92 Z  M 214.552 329.144 L 214.552 328.12 L 208.824 328.12 L 208.824 324.696 L 213.128 324.696 L 213.128 323.688 L 204.68 323.688 L 204.68 319.128 L 213.048 319.128 L 213.048 318.12 L 203.448 318.12 L 203.448 324.696 L 207.608 324.696 L 207.608 328.12 L 201.928 328.12 L 201.928 329.144 L 214.552 329.144 Z  M 227.048 320.616 C 227.048 318.792 225.176 317.576 222.072 317.576 C 218.984 317.576 217.112 318.792 217.112 320.616 C 217.112 322.424 218.984 323.64 222.072 323.64 C 225.176 323.64 227.048 322.408 227.048 320.616 Z  M 220.248 330.92 L 220.248 325.96 L 223.864 325.96 L 223.864 330.92 L 225.08 330.92 L 225.08 325.96 L 228.392 325.96 L 228.392 324.936 L 215.768 324.936 L 215.768 325.96 L 219.032 325.96 L 219.032 330.92 L 220.248 330.92 Z  M 222.072 318.648 C 224.424 318.648 225.848 319.416 225.848 320.616 C 225.848 321.8 224.424 322.568 222.072 322.568 C 219.752 322.568 218.312 321.8 218.312 320.616 C 218.312 319.416 219.752 318.648 222.072 318.648 Z  M 241.032 330.728 L 241.032 325.384 L 239.816 325.384 L 239.816 327.048 L 233.128 327.048 L 233.128 325.4 L 231.896 325.4 L 231.896 330.728 L 241.032 330.728 Z  M 239.816 329.72 L 233.128 329.72 L 233.128 328.04 L 239.816 328.04 L 239.816 329.72 Z  M 241.032 324.648 L 241.032 316.936 L 239.816 316.936 L 239.816 320.28 L 237.384 320.28 L 237.384 321.304 L 239.816 321.304 L 239.816 324.648 L 241.032 324.648 Z  M 237.464 323.208 C 235.832 323.512 233.624 323.624 231.88 323.624 L 231.272 323.624 L 231.272 321.608 L 236.472 321.608 L 236.472 317.752 L 230.056 317.752 L 230.056 318.76 L 235.256 318.76 L 235.256 320.616 L 230.056 320.616 L 230.056 324.632 L 231.64 324.632 C 233.704 324.632 236.184 324.456 237.608 324.2 L 237.464 323.208 Z  M 255.016 319.336 L 255.016 318.36 L 244.52 318.36 L 244.52 319.336 L 249.128 319.336 L 249.128 319.624 C 249.128 321.864 246.168 323.88 243.96 324.264 L 244.536 325.288 C 246.856 324.696 249.176 322.984 249.752 321.4 C 250.424 322.936 252.728 324.68 254.968 325.32 L 255.592 324.296 C 253.496 323.88 250.408 321.832 250.408 319.624 L 250.408 319.336 L 255.016 319.336 Z  M 256.072 329.144 L 256.072 328.12 L 250.344 328.12 L 250.344 324.632 L 249.128 324.632 L 249.128 328.12 L 243.448 328.12 L 243.448 329.144 L 256.072 329.144 Z  M 257.464 322.856 C 257.464 325.832 258.744 327.8 261 327.8 C 263.128 327.8 264.376 326.04 264.504 323.352 L 267.496 323.352 L 267.496 330.92 L 268.712 330.92 L 268.712 316.936 L 267.496 316.936 L 267.496 322.312 L 264.504 322.312 C 264.344 319.656 263.112 317.912 261 317.912 C 258.744 317.912 257.464 319.896 257.464 322.856 Z  M 263.32 322.872 C 263.32 325.144 262.376 326.744 261 326.744 C 259.608 326.744 258.68 325.144 258.68 322.872 C 258.68 320.568 259.608 318.968 261 318.968 C 262.376 318.968 263.32 320.568 263.32 322.872 Z " fill-rule="evenodd" fill="rgb(0,0,0)"/><rect x="320" y="250" width="120" height="30" transform="matrix(1,0,0,1,0,0)" fill="rgb(235,235,235)"/><path d=" M 363.72 270.92 L 363.72 256.936 L 362.52 256.936 L 362.52 270.92 L 363.72 270.92 Z  M 361 270.216 L 361 257.272 L 359.832 257.272 L 359.832 262.376 L 357.48 262.376 L 357.48 263.4 L 359.832 263.4 L 359.832 270.216 L 361 270.216 Z  M 357.832 258.568 L 352.328 258.568 L 352.328 259.592 L 356.584 259.592 C 356.44 262.44 354.712 265.384 351.784 267.032 L 352.616 267.928 C 355.912 265.8 357.736 262.728 357.832 258.568 Z  M 377.176 265.64 L 377.176 264.616 L 368.568 264.616 L 368.568 262.264 L 376.808 262.264 L 376.808 258.04 L 367.304 258.04 L 367.304 259.064 L 375.592 259.064 L 375.592 261.256 L 367.352 261.256 L 367.352 265.64 L 377.176 265.64 Z  M 378.392 269.016 L 378.392 267.992 L 365.768 267.992 L 365.768 269.016 L 378.392 269.016 Z  M 386.712 264.648 L 386.712 258.168 L 380.088 258.168 L 380.088 264.648 L 386.712 264.648 Z  M 385.496 263.64 L 381.304 263.64 L 381.304 259.176 L 385.496 259.176 L 385.496 263.64 Z  M 392.488 262.136 L 392.488 261.112 L 390.36 261.112 L 390.36 256.936 L 389.144 256.936 L 389.144 267.096 L 390.36 267.096 L 390.36 262.136 L 392.488 262.136 Z  M 390.904 270.44 L 390.904 269.432 L 382.824 269.432 L 382.824 266.136 L 381.608 266.136 L 381.608 270.44 L 390.904 270.44 Z  M 393.624 262.856 C 393.624 265.832 394.904 267.8 397.16 267.8 C 399.288 267.8 400.536 266.04 400.664 263.352 L 403.656 263.352 L 403.656 270.92 L 404.872 270.92 L 404.872 256.936 L 403.656 256.936 L 403.656 262.312 L 400.664 262.312 C 400.504 259.656 399.272 257.912 397.16 257.912 C 394.904 257.912 393.624 259.896 393.624 262.856 Z  M 399.48 262.872 C 399.48 265.144 398.536 266.744 397.16 266.744 C 395.768 266.744 394.84 265.144 394.84 262.872 C 394.84 260.568 395.768 258.968 397.16 258.968 C 398.536 258.968 399.48 260.568 399.48 262.872 Z " fill-rule="evenodd" fill="rgb(0,0,0)"/><rect x="320" y="250" width="120" height="30" transform="matrix(1,0,0,1,0,0)" fill="rgb(235,235,235)"/><path d=" M 400.2 259.336 L 400.2 258.36 L 389.704 258.36 L 389.704 259.336 L 394.312 259.336 L 394.312 259.624 C 394.312 261.864 391.352 263.88 389.144 264.264 L 389.72 265.288 C 392.04 264.696 394.36 262.984 394.936 261.4 C 395.608 262.936 397.912 264.68 400.152 265.32 L 400.776 264.296 C 398.68 263.88 395.592 261.832 395.592 259.624 L 395.592 259.336 L 400.2 259.336 Z  M 401.256 269.144 L 401.256 268.12 L 395.528 268.12 L 395.528 264.632 L 394.312 264.632 L 394.312 268.12 L 388.632 268.12 L 388.632 269.144 L 401.256 269.144 Z  M 402.648 262.856 C 402.648 265.832 403.928 267.8 406.184 267.8 C 408.312 267.8 409.56 266.04 409.688 263.352 L 412.68 263.352 L 412.68 270.92 L 413.896 270.92 L 413.896 256.936 L 412.68 256.936 L 412.68 262.312 L 409.688 262.312 C 409.528 259.656 408.296 257.912 406.184 257.912 C 403.928 257.912 402.648 259.896 402.648 262.856 Z  M 408.504 262.872 C 408.504 265.144 407.56 266.744 406.184 266.744 C 404.792 266.744 403.864 265.144 403.864 262.872 C 403.864 260.568 404.792 258.968 406.184 258.968 C 407.56 258.968 408.504 260.568 408.504 262.872 Z  M 354.696 270.92 L 354.696 256.936 L 353.496 256.936 L 353.496 270.92 L 354.696 270.92 Z  M 351.976 270.216 L 351.976 257.272 L 350.808 257.272 L 350.808 262.376 L 348.456 262.376 L 348.456 263.4 L 350.808 263.4 L 350.808 270.216 L 351.976 270.216 Z  M 348.808 258.568 L 343.304 258.568 L 343.304 259.592 L 347.56 259.592 C 347.416 262.44 345.688 265.384 342.76 267.032 L 343.592 267.928 C 346.888 265.8 348.712 262.728 348.808 258.568 Z  M 368.152 265.64 L 368.152 264.616 L 359.544 264.616 L 359.544 262.264 L 367.784 262.264 L 367.784 258.04 L 358.28 258.04 L 358.28 259.064 L 366.568 259.064 L 366.568 261.256 L 358.328 261.256 L 358.328 265.64 L 368.152 265.64 Z  M 369.368 269.016 L 369.368 267.992 L 356.744 267.992 L 356.744 269.016 L 369.368 269.016 Z  M 377.688 264.648 L 377.688 258.168 L 371.064 258.168 L 371.064 264.648 L 377.688 264.648 Z  M 376.472 263.64 L 372.28 263.64 L 372.28 259.176 L 376.472 259.176 L 376.472 263.64 Z  M 383.464 262.136 L 383.464 261.112 L 381.336 261.112 L 381.336 256.936 L 380.12 256.936 L 380.12 267.096 L 381.336 267.096 L 381.336 262.136 L 383.464 262.136 Z  M 381.88 270.44 L 381.88 269.432 L 373.8 269.432 L 373.8 266.136 L 372.584 266.136 L 372.584 270.44 L 381.88 270.44 Z " fill-rule="evenodd" fill="rgb(0,0,0)"/><rect x="320" y="190" width="120" height="30" transform="matrix(1,0,0,1,0,0)" fill="rgb(235,235,235)"/><path d=" M 356.48 210.92 L 356.48 196.936 L 355.264 196.936 L 355.264 201.928 L 352 201.928 L 352 202.952 L 355.264 202.952 L 355.264 210.92 L 356.48 210.92 Z  M 353.376 206.648 C 351.456 205.528 349.792 203.256 349.792 200.696 L 349.792 198.152 L 348.528 198.152 L 348.528 200.744 C 348.528 203.224 346.912 205.704 344.88 206.984 L 345.68 207.896 C 347.296 206.728 348.672 205 349.168 203.256 C 349.728 204.936 351.344 206.712 352.624 207.576 L 353.376 206.648 Z  M 370.64 210.92 L 370.64 196.936 L 369.44 196.936 L 369.44 210.92 L 370.64 210.92 Z  M 367.92 210.216 L 367.92 197.272 L 366.752 197.272 L 366.752 202.376 L 364.4 202.376 L 364.4 203.4 L 366.752 203.4 L 366.752 210.216 L 367.92 210.216 Z  M 364.752 198.568 L 359.248 198.568 L 359.248 199.592 L 363.504 199.592 C 363.36 202.44 361.632 205.384 358.704 207.032 L 359.536 207.928 C 362.832 205.8 364.656 202.728 364.752 198.568 Z  M 384.096 205.64 L 384.096 204.616 L 375.488 204.616 L 375.488 202.264 L 383.728 202.264 L 383.728 198.04 L 374.224 198.04 L 374.224 199.064 L 382.512 199.064 L 382.512 201.256 L 374.272 201.256 L 374.272 205.64 L 384.096 205.64 Z  M 385.312 209.016 L 385.312 207.992 L 372.688 207.992 L 372.688 209.016 L 385.312 209.016 Z  M 393.632 204.648 L 393.632 198.168 L 387.008 198.168 L 387.008 204.648 L 393.632 204.648 Z  M 392.416 203.64 L 388.224 203.64 L 388.224 199.176 L 392.416 199.176 L 392.416 203.64 Z  M 399.408 202.136 L 399.408 201.112 L 397.28 201.112 L 397.28 196.936 L 396.064 196.936 L 396.064 207.096 L 397.28 207.096 L 397.28 202.136 L 399.408 202.136 Z  M 397.824 210.44 L 397.824 209.432 L 389.744 209.432 L 389.744 206.136 L 388.528 206.136 L 388.528 210.44 L 397.824 210.44 Z  M 400.544 202.856 C 400.544 205.832 401.824 207.8 404.08 207.8 C 406.208 207.8 407.456 206.04 407.584 203.352 L 410.576 203.352 L 410.576 210.92 L 411.792 210.92 L 411.792 196.936 L 410.576 196.936 L 410.576 202.312 L 407.584 202.312 C 407.424 199.656 406.192 197.912 404.08 197.912 C 401.824 197.912 400.544 199.896 400.544 202.856 Z  M 406.4 202.872 C 406.4 205.144 405.456 206.744 404.08 206.744 C 402.688 206.744 401.76 205.144 401.76 202.872 C 401.76 200.568 402.688 198.968 404.08 198.968 C 405.456 198.968 406.4 200.568 406.4 202.872 Z " fill-rule="evenodd" fill="rgb(0,0,0)"/><rect x="170" y="250" width="120" height="30" transform="matrix(1,0,0,1,0,0)" fill="rgb(235,235,235)"/><path d=" M 257.12 259.336 L 257.12 258.36 L 246.624 258.36 L 246.624 259.336 L 251.232 259.336 L 251.232 259.624 C 251.232 261.864 248.272 263.88 246.064 264.264 L 246.64 265.288 C 248.96 264.696 251.28 262.984 251.856 261.4 C 252.528 262.936 254.832 264.68 257.072 265.32 L 257.696 264.296 C 255.6 263.88 252.512 261.832 252.512 259.624 L 252.512 259.336 L 257.12 259.336 Z  M 258.176 269.144 L 258.176 268.12 L 252.448 268.12 L 252.448 264.632 L 251.232 264.632 L 251.232 268.12 L 245.552 268.12 L 245.552 269.144 L 258.176 269.144 Z  M 259.568 262.856 C 259.568 265.832 260.848 267.8 263.104 267.8 C 265.232 267.8 266.48 266.04 266.608 263.352 L 269.6 263.352 L 269.6 270.92 L 270.816 270.92 L 270.816 256.936 L 269.6 256.936 L 269.6 262.312 L 266.608 262.312 C 266.448 259.656 265.216 257.912 263.104 257.912 C 260.848 257.912 259.568 259.896 259.568 262.856 Z  M 265.424 262.872 C 265.424 265.144 264.48 266.744 263.104 266.744 C 261.712 266.744 260.784 265.144 260.784 262.872 C 260.784 260.568 261.712 258.968 263.104 258.968 C 264.48 258.968 265.424 260.568 265.424 262.872 Z  M 197.488 270.92 L 197.488 256.936 L 196.272 256.936 L 196.272 270.92 L 197.488 270.92 Z  M 186.448 262.92 C 186.448 265.896 187.76 267.88 190.048 267.88 C 192.368 267.88 193.664 265.896 193.664 262.936 C 193.664 259.976 192.368 257.992 190.048 257.992 C 187.76 257.992 186.448 259.976 186.448 262.92 Z  M 192.512 262.936 C 192.512 265.224 191.536 266.824 190.048 266.824 C 188.576 266.824 187.6 265.224 187.6 262.936 C 187.6 260.632 188.576 259.048 190.048 259.048 C 191.536 259.048 192.512 260.632 192.512 262.936 Z  M 211.088 270.792 L 211.088 269.768 L 202.912 269.768 L 202.912 268.296 L 210.56 268.296 L 210.56 265.064 L 201.632 265.064 L 201.632 266.072 L 209.344 266.072 L 209.344 267.368 L 201.696 267.368 L 201.696 270.792 L 211.088 270.792 Z  M 201.504 262.824 L 201.504 261.16 L 206.576 261.16 L 206.576 260.2 L 201.504 260.2 L 201.504 258.776 L 206.784 258.776 L 206.784 257.784 L 200.288 257.784 L 200.288 263.816 L 202.224 263.8 C 204.416 263.784 206.624 263.64 208.064 263.384 L 207.92 262.424 C 206.352 262.744 203.808 262.824 202.016 262.824 L 201.504 262.824 Z  M 212.688 261.128 L 212.688 260.12 L 210.56 260.12 L 210.56 256.936 L 209.344 256.936 L 209.344 264.328 L 210.56 264.328 L 210.56 261.128 L 212.688 261.128 Z  M 223.936 256.936 L 223.936 270.92 L 225.152 270.92 L 225.152 256.936 L 223.936 256.936 Z  M 222.656 266.104 C 220.96 266.408 218.192 266.536 215.968 266.536 L 215.632 266.536 L 215.632 263.192 L 220.944 263.192 L 220.944 258.232 L 214.352 258.232 L 214.352 259.24 L 219.712 259.24 L 219.712 262.184 L 214.416 262.184 L 214.416 267.576 L 215.84 267.576 C 218.912 267.576 221.312 267.336 222.768 267.112 L 222.656 266.104 Z  M 240.544 263.592 L 240.544 262.568 L 238.256 262.568 L 238.256 256.936 L 237.04 256.936 L 237.04 270.92 L 238.256 270.92 L 238.256 263.592 L 240.544 263.592 Z  M 227.696 262.92 C 227.696 265.896 229.008 267.88 231.28 267.88 C 233.552 267.88 234.848 265.896 234.848 262.936 C 234.848 259.976 233.552 257.992 231.28 257.992 C 229.008 257.992 227.696 259.976 227.696 262.92 Z  M 233.664 262.936 C 233.664 265.224 232.736 266.824 231.28 266.824 C 229.824 266.824 228.88 265.224 228.88 262.936 C 228.88 260.632 229.824 259.048 231.28 259.048 C 232.736 259.048 233.664 260.632 233.664 262.936 Z " fill-rule="evenodd" fill="rgb(0,0,0)"/><line x1="380" y1="190" x2="380" y2="160" vector-effect="non-scaling-stroke" stroke-width="1" stroke="rgb(0,0,0)" stroke-linejoin="miter" stroke-linecap="square" stroke-miterlimit="3"/><path d=" M 382.5 165 L 380 160 L 377.5 165 Z " fill="rgb(0,0,0)" stroke="none"/><line x1="380" y1="130" x2="380" y2="100" vector-effect="non-scaling-stroke" stroke-width="1" stroke="rgb(0,0,0)" stroke-linejoin="miter" stroke-linecap="square" stroke-miterlimit="3"/><path d=" M 382.5 105 L 380 100 L 377.5 105 Z " fill="rgb(0,0,0)" stroke="none"/><line x1="380" y1="70" x2="380" y2="40" vector-effect="non-scaling-stroke" stroke-width="1" stroke="rgb(0,0,0)" stroke-linejoin="miter" stroke-linecap="square" stroke-miterlimit="3"/><path d=" M 382.5 45 L 380 40 L 377.5 45 Z " fill="rgb(0,0,0)" stroke="none"/><line x1="290" y1="205" x2="320" y2="205" vector-effect="non-scaling-stroke" stroke-width="1" stroke-dasharray="1,2" stroke="rgb(0,0,0)" stroke-linejoin="miter" stroke-linecap="square" stroke-miterlimit="3"/><path d=" M 315 207.5 L 320 205 L 315 202.5 Z " fill="rgb(0,0,0)" stroke="none"/><line x1="290" y1="145" x2="320" y2="85" vector-effect="non-scaling-stroke" stroke-width="1" stroke-dasharray="1,2" stroke="rgb(0,0,0)" stroke-linejoin="miter" stroke-linecap="square" stroke-miterlimit="3"/><path d=" M 320 90.59 L 320 85 L 315.528 88.354 Z " fill="rgb(0,0,0)" stroke="none"/><line x1="290" y1="205" x2="320" y2="145" vector-effect="non-scaling-stroke" stroke-width="1" stroke-dasharray="1,2" stroke="rgb(0,0,0)" stroke-linejoin="miter" stroke-linecap="square" stroke-miterlimit="3"/><path d=" M 320 150.59 L 320 145 L 315.528 148.354 Z " fill="rgb(0,0,0)" stroke="none"/><line x1="140" y1="265" x2="170" y2="205" vector-effect="non-scaling-stroke" stroke-width="1" stroke-dasharray="1,2" stroke="rgb(0,0,0)" stroke-linejoin="miter" stroke-linecap="square" stroke-miterlimit="3"/><path d=" M 170 210.59 L 170 205 L 165.528 208.354 Z " fill="rgb(0,0,0)" stroke="none"/><line x1="230" y1="250" x2="230" y2="220" vector-effect="non-scaling-stroke" stroke-width="1" stroke="rgb(0,0,0)" stroke-linejoin="miter" stroke-linecap="square" stroke-miterlimit="3"/><path d=" M 232.5 225 L 230 220 L 227.5 225 Z " fill="rgb(0,0,0)" stroke="none"/><line x1="230" y1="190" x2="230" y2="160" vector-effect="non-scaling-stroke" stroke-width="1" stroke="rgb(0,0,0)" stroke-linejoin="miter" stroke-linecap="square" stroke-miterlimit="3"/><path d=" M 232.5 165 L 230 160 L 227.5 165 Z " fill="rgb(0,0,0)" stroke="none"/><line x1="80" y1="310" x2="80" y2="280" vector-effect="non-scaling-stroke" stroke-width="1" stroke="rgb(0,0,0)" stroke-linejoin="miter" stroke-linecap="square" stroke-miterlimit="3"/><path d=" M 82.5 285 L 80 280 L 77.5 285 Z " fill="rgb(0,0,0)" stroke="none"/><line x1="230" y1="310" x2="230" y2="280" vector-effect="non-scaling-stroke" stroke-width="1" stroke="rgb(0,0,0)" stroke-linejoin="miter" stroke-linecap="square" stroke-miterlimit="3"/><path d=" M 232.5 285 L 230 280 L 227.5 285 Z " fill="rgb(0,0,0)" stroke="none"/><line x1="380" y1="310" x2="380" y2="280" vector-effect="non-scaling-stroke" stroke-width="1" stroke="rgb(0,0,0)" stroke-linejoin="miter" stroke-linecap="square" stroke-miterlimit="3"/><path d=" M 382.5 285 L 380 280 L 377.5 285 Z " fill="rgb(0,0,0)" stroke="none"/><line x1="380" y1="250" x2="380" y2="220" vector-effect="non-scaling-stroke" stroke-width="1" stroke="rgb(0,0,0)" stroke-linejoin="miter" stroke-linecap="square" stroke-miterlimit="3"/><path d=" M 382.5 225 L 380 220 L 377.5 225 Z " fill="rgb(0,0,0)" stroke="none"/></g></svg>